<?xml version="1.0" encoding="UTF-8" standalone="no"?>
<svg
   xmlns:dc="http://purl.org/dc/elements/1.1/"
   xmlns:cc="http://creativecommons.org/ns#"
   xmlns:rdf="http://www.w3.org/1999/02/22-rdf-syntax-ns#"
   xmlns:svg="http://www.w3.org/2000/svg"
   xmlns="http://www.w3.org/2000/svg"
   xmlns:sodipodi="http://sodipodi.sourceforge.net/DTD/sodipodi-0.dtd"
   xmlns:inkscape="http://www.inkscape.org/namespaces/inkscape"
   height="489.000"
   viewBox="-3.000 93.000 594.000 489.000"
   width="594.000"
   id="svg3406"
   version="1.1"
   inkscape:version="0.91 r13725"
   sodipodi:docname="6_1_annotated.svg">
  <metadata
     id="metadata3436">
    <rdf:RDF>
      <cc:Work
         rdf:about="">
        <dc:format>image/svg+xml</dc:format>
        <dc:type
           rdf:resource="http://purl.org/dc/dcmitype/StillImage" />
        <dc:title></dc:title>
      </cc:Work>
    </rdf:RDF>
  </metadata>
  <defs
     id="defs3434" />
  <sodipodi:namedview
     pagecolor="#ffffff"
     bordercolor="#666666"
     borderopacity="1"
     objecttolerance="10"
     gridtolerance="10"
     guidetolerance="10"
     inkscape:pageopacity="0"
     inkscape:pageshadow="2"
     inkscape:window-width="1855"
     inkscape:window-height="1056"
     id="namedview3432"
     showgrid="false"
     inkscape:zoom="1.8793456"
     inkscape:cx="297"
     inkscape:cy="244.5"
     inkscape:window-x="65"
     inkscape:window-y="24"
     inkscape:window-maximized="1"
     inkscape:current-layer="svg3406" />
  <path
     d="M54.4912280702 314.754385965 C62.0902976906,327.614349938 70.0,341.0 75.0,354.5 C78.220527204,363.195423451 83.2764817252,371.112657639 90.0,377.5 C96.539299464,383.712334491 103.932057414,388.966028707 112.0,393.0 C121.794454338,397.897227169 132.349678739,400.977555491 143.0,403.5 C155.174807719,406.383507091 167.53099777,408.460916481 180.0,409.5 C188.45272815,410.204394013 198.0,411.0 205.0,408.0 C212.0,405.0 226.354807628,387.953665942 236.0,376.5 C247.741527595,362.556935981 260.0,348.0 269.0,333.0 C278.0,318.0 288.261944906,301.991365947 298.112436898,286.62459844"
     fill="none"
     stroke="#d82626"
     stroke-linecap="round"
     stroke-width="5.0"
     id="path3408" />
  <path
     d="M298.112436898 286.62459844 C303.0,279.0 311.695515849,265.535975459 318.5,255.0 C327.730520978,240.707580422 336.914643288,226.385148127 346.0,212.0 C352.849325112,201.155235239 359.830340176,190.391765249 367.198452184,179.892205638"
     fill="none"
     stroke="#d82626"
     stroke-linecap="round"
     stroke-width="5.0"
     id="path3410" />
  <path
     d="M374.667896971 169.248246816 C384.472714363,155.276382033 398.0,136.0 406.0,129.0 C411.224786655,124.428311677 417.349911649,120.995026505 424.0,119.0 C431.868324664,116.639502601 439.914084169,114.943913541 448.0,113.5 C455.961528839,112.078298422 463.952188713,110.804781129 472.0,110.0 C478.672029201,109.33279708 485.047089442,112.453368034 489.5,117.5 C494.145449784,122.764843089 497.884870963,128.802091382 500.0,135.5 C502.978071106,144.930558503 504.496864558,154.729619625 506.0,164.5 C507.605160896,174.933545822 508.877259074,185.472891114 508.0,196.0 C507.372084484,203.534986193 506.224920257,211.022810996 504.346754808,218.34765625"
     fill="none"
     stroke="#d82626"
     stroke-linecap="round"
     stroke-width="5.0"
     id="path3412" />
  <path
     d="M504.346754808 218.34765625 C500.5637678,233.101305581 496.658206383,247.854484041 491.0,262.0 C486.435461407,273.411346484 482.152452847,284.932452784 478.0,296.5 C473.79726497,308.207619012 470.363850082,320.198589459 468.5,332.5 C466.64563681,344.738797055 466.596914314,357.157828951 467.5,369.5 C468.676751652,385.582272575 474.139651313,400.92175904 481.0,415.5 C488.27500466,430.959384903 494.509787873,446.913335834 498.737278107,463.471005917"
     fill="none"
     stroke="#d82626"
     stroke-linecap="round"
     stroke-width="5.0"
     id="path3414" />
  <path
     d="M501.137278107 472.871005917 C504.009581908,484.120862474 506.189253031,495.53193586 508.0,507.0 C509.523172116,516.646756734 510.873072087,526.507711654 508.5,536.0 C506.733252019,543.066991925 503.746908778,549.755152037 500.0,556.0 C494.0,566.0 478.917528998,565.192010482 466.0,564.5 C453.232506049,563.81602711 438.0,563.0 428.5,558.5 C421.540780729,555.203527714 416.132327908,549.493658141 412.0,543.0 C405.0,532.0 397.749525594,517.499051188 391.213333333,504.426666667"
     fill="none"
     stroke="#d82626"
     stroke-linecap="round"
     stroke-width="5.0"
     id="path3416" />
  <path
     d="M391.213333333 504.426666667 C385.901652722,493.803305444 380.671133107,483.123021618 376.5,472.0 C372.71762766,461.913673759 369.982164456,451.480249926 367.5,441.0 C365.040110372,430.61379935 362.488689063,420.246933932 359.5,410.0 C357.312546225,402.500158487 354.706133883,395.124741963 351.5,388.0 C347.0,378.0 341.845897929,366.660975444 337.0,356.0 C330.766862134,342.287096696 324.448296116,328.613069579 318.0,315.0 C313.401781901,305.292650679 308.444488485,295.521642862 300.289949518,288.499678752"
     fill="none"
     stroke="#d82626"
     stroke-linecap="round"
     stroke-width="5.0"
     id="path3418" />
  <path
     d="M293.089949518 282.299678752 C284.268596688,274.703513815 273.0,265.0 264.5,263.5 C257.372197201,262.242152447 250.189924178,261.329606636 243.0,260.5 C234.69233677,259.541423473 226.29915051,259.462606186 218.0,260.5 C206.0,262.0 184.254007835,267.083478688 167.5,271.0 C152.147193929,274.588967653 129.0,280.0 121.5,282.0 C114.0,284.0 100.109739215,288.819070068 89.5,292.5 C76.281282136,297.08608579 63.1313584059,301.934320797 50.6140350877,308.192982456"
     fill="none"
     stroke="#d82626"
     stroke-linecap="round"
     stroke-width="5.0"
     id="path3420" />
  <path
     d="M50.6140350877 308.192982456 C43.6373235952,311.681338202 37.3288735111,316.506689733 33.0,323.0 C27.0,332.0 23.1667374016,347.880659336 20.0,361.0 C16.3529956667,376.109017952 13.1813358199,391.541354469 15.0,407.0 C16.7201984262,421.621686622 24.4804264903,434.519349752 33.0,446.5 C45.5141345235,464.098001674 62.7046713857,477.565419616 81.0,489.0 C100.820748078,501.387967549 122.235814078,511.164643925 145.0,516.5 C161.956594995,520.474201952 179.079711292,524.053325931 196.5,524.5 C212.679280184,524.914853338 228.855393202,524.113421159 245.0,523.0 C261.515347015,521.861010551 278.023517025,520.607461754 294.5,519.0 C307.383574866,517.743065867 320.231176019,516.12813733 333.0,514.0 C349.718027766,511.213662039 366.444029308,508.475495209 383.170666667,505.741333333"
     fill="none"
     stroke="#d82626"
     stroke-linecap="round"
     stroke-width="5.0"
     id="path3422" />
  <path
     d="M400.095451922 502.974781897 C424.732542353,498.947565192 455.0,494.0 472.5,485.5 C482.171547732,480.802391102 491.680472678,475.692965695 500.171597633,469.088757396"
     fill="none"
     stroke="#d82626"
     stroke-linecap="round"
     stroke-width="5.0"
     id="path3424" />
  <path
     d="M500.171597633 469.088757396 C511.452670137,460.314589894 521.612566913,450.191582406 530.5,439.0 C538.450336699,428.988464898 546.554158832,419.097546782 555.0,409.5 C564.467195949,398.741822785 568.346626425,384.562879948 571.0,370.5 C574.759036428,350.57710693 574.986176545,330.212001016 573.5,310.0 C571.948183273,288.895292509 566.339939477,268.183124284 555.5,250.0 C545.898848902,233.89484332 529.978806002,222.411274122 511.477403846,219.478125"
     fill="none"
     stroke="#d82626"
     stroke-linecap="round"
     stroke-width="5.0"
     id="path3426" />
  <path
     d="M495.4577688 216.938426761 C477.691108404,214.121761088 458.0,211.0 443.0,205.0 C431.565677336,200.426270934 419.293538542,198.585406597 407.0,198.0 C391.984558455,197.284978974 378.987277106,188.337224661 369.498065229,176.615257048"
     fill="none"
     stroke="#d82626"
     stroke-linecap="round"
     stroke-width="5.0"
     id="path3428" />
  <path
     d="M369.498065229 176.615257048 C358.122932593,162.563622615 343.084569855,151.913889565 326.0,146.0 C302.346980511,137.812416331 276.956576689,138.200178297 252.0,139.5 C211.101194164,141.630146137 170.669786037,148.575348333 130.5,156.5 C97.9838477663,162.914751121 57.0,171.0 49.0,195.0 C43.3423692058,211.972892382 39.1448538246,229.388818582 36.0,247.0 C32.6378336442,265.828131592 36.958424887,285.08348827 46.6912280702,301.554385965"
     fill="none"
     stroke="#d82626"
     stroke-linecap="round"
     stroke-width="5.0"
     id="path3430" />
  <text
     xml:space="preserve"
     style="font-style:normal;font-weight:normal;font-size:40px;line-height:125%;font-family:'Abyssinica SIL';letter-spacing:0px;word-spacing:0px;fill:#000000;fill-opacity:1;stroke:none;stroke-width:1px;stroke-linecap:butt;stroke-linejoin:miter;stroke-opacity:1;-inkscape-font-specification:'Abyssinica SIL, Normal';font-stretch:normal;font-variant:normal;text-anchor:start;text-align:start;writing-mode:lr;"
     x="50.742111"
     y="276.04242"
     id="text3438"
     sodipodi:linespacing="125%"><tspan
       sodipodi:role="line"
       id="tspan3440"
       x="50.742111"
       y="276.04242" /></text>
  <text
     xml:space="preserve"
     style="font-style:normal;font-weight:normal;font-size:40px;line-height:125%;font-family:'Abyssinica SIL';letter-spacing:0px;word-spacing:0px;fill:#000000;fill-opacity:1;stroke:none;stroke-width:1px;stroke-linecap:butt;stroke-linejoin:miter;stroke-opacity:1;-inkscape-font-specification:'Abyssinica SIL, Normal';font-stretch:normal;font-variant:normal;text-anchor:start;text-align:start;writing-mode:lr;"
     x="312.53537"
     y="282.42764"
     id="text3442"
     sodipodi:linespacing="125%"><tspan
       sodipodi:role="line"
       id="tspan3444"
       x="312.53537"
       y="282.42764" /></text>
  <text
     xml:space="preserve"
     style="font-style:normal;font-weight:normal;font-size:40px;line-height:125%;font-family:'Abyssinica SIL';letter-spacing:0px;word-spacing:0px;fill:#000000;fill-opacity:1;stroke:none;stroke-width:1px;stroke-linecap:butt;stroke-linejoin:miter;stroke-opacity:1;-inkscape-font-specification:'Abyssinica SIL, Normal';font-stretch:normal;font-variant:normal;text-anchor:start;text-align:start;writing-mode:lr;"
     x="352.44287"
     y="140.88901"
     id="text3446"
     sodipodi:linespacing="125%"><tspan
       sodipodi:role="line"
       id="tspan3448"
       x="352.44287"
       y="140.88901" /></text>
  <text
     xml:space="preserve"
     style="font-style:normal;font-weight:normal;font-size:40px;line-height:125%;font-family:'Abyssinica SIL';letter-spacing:0px;word-spacing:0px;fill:#000000;fill-opacity:1;stroke:none;stroke-width:1px;stroke-linecap:butt;stroke-linejoin:miter;stroke-opacity:1;-inkscape-font-specification:'Abyssinica SIL, Normal';font-stretch:normal;font-variant:normal;text-anchor:start;text-align:start;writing-mode:lr;"
     x="518.99023"
     y="202.61261"
     id="text3450"
     sodipodi:linespacing="125%"><tspan
       sodipodi:role="line"
       id="tspan3452"
       x="518.99023"
       y="202.61261" /></text>
  <text
     xml:space="preserve"
     style="font-style:normal;font-weight:normal;font-size:40px;line-height:125%;font-family:'Abyssinica SIL';letter-spacing:0px;word-spacing:0px;fill:#000000;fill-opacity:1;stroke:none;stroke-width:1px;stroke-linecap:butt;stroke-linejoin:miter;stroke-opacity:1;-inkscape-font-specification:'Abyssinica SIL, Normal';font-stretch:normal;font-variant:normal;text-anchor:start;text-align:start;writing-mode:lr;"
     x="505.68771"
     y="437.80087"
     id="text3454"
     sodipodi:linespacing="125%"><tspan
       sodipodi:role="line"
       id="tspan3456"
       x="505.68771"
       y="437.80087" /></text>
  <text
     xml:space="preserve"
     style="font-style:normal;font-weight:normal;font-size:40px;line-height:125%;font-family:'Abyssinica SIL';letter-spacing:0px;word-spacing:0px;fill:#000000;fill-opacity:1;stroke:none;stroke-width:1px;stroke-linecap:butt;stroke-linejoin:miter;stroke-opacity:1;-inkscape-font-specification:'Abyssinica SIL, Normal';font-stretch:normal;font-variant:normal;text-anchor:start;text-align:start;writing-mode:lr;"
     x="400.86398"
     y="477.17627"
     id="text3458"
     sodipodi:linespacing="125%"><tspan
       sodipodi:role="line"
       id="tspan3460"
       x="400.86398"
       y="477.17627" /></text>
  <text
     xml:space="preserve"
     style="font-style:normal;font-variant:normal;font-weight:normal;font-stretch:normal;font-size:40px;line-height:125%;font-family:'Bitstream Charter';-inkscape-font-specification:'Bitstream Charter, Normal';text-align:start;letter-spacing:0px;word-spacing:0px;writing-mode:lr;text-anchor:start;fill:#000000;fill-opacity:1;stroke:none;stroke-width:1px;stroke-linecap:butt;stroke-linejoin:miter;stroke-opacity:1;"
     x="33.714909"
     y="150.46681"
     id="text3481"
     sodipodi:linespacing="125%"><tspan
       sodipodi:role="line"
       id="tspan3485"></tspan></text>
  <text
     xml:space="preserve"
     style="font-style:normal;font-variant:normal;font-weight:normal;font-stretch:normal;font-size:40px;line-height:125%;font-family:'Bitstream Charter';-inkscape-font-specification:'Bitstream Charter, Normal';text-align:start;letter-spacing:0px;word-spacing:0px;writing-mode:lr-tb;text-anchor:start;fill:#000000;fill-opacity:1;stroke:none;stroke-width:1px;stroke-linecap:butt;stroke-linejoin:miter;stroke-opacity:1"
     x="76.815018"
     y="142.48531"
     id="text3491"
     sodipodi:linespacing="125%"><tspan
       sodipodi:role="line"
       id="tspan3493"
       x="76.815018"
       y="142.48531" /></text>
  <text
     xml:space="preserve"
     style="font-style:normal;font-variant:normal;font-weight:normal;font-stretch:normal;font-size:40px;line-height:125%;font-family:'Bitstream Charter';-inkscape-font-specification:'Bitstream Charter, Normal';text-align:start;letter-spacing:0px;word-spacing:0px;writing-mode:lr-tb;text-anchor:start;fill:#000000;fill-opacity:1;stroke:none;stroke-width:1px;stroke-linecap:butt;stroke-linejoin:miter;stroke-opacity:1"
     x="57.127312"
     y="282.95975"
     id="text3495"
     sodipodi:linespacing="125%"><tspan
       sodipodi:role="line"
       id="tspan3497"
       x="57.127312"
       y="282.95975">0</tspan></text>
  <text
     xml:space="preserve"
     style="font-style:normal;font-variant:normal;font-weight:normal;font-stretch:normal;font-size:40px;line-height:125%;font-family:'Bitstream Charter';-inkscape-font-specification:'Bitstream Charter, Normal';text-align:start;letter-spacing:0px;word-spacing:0px;writing-mode:lr-tb;text-anchor:start;fill:#000000;fill-opacity:1;stroke:none;stroke-width:1px;stroke-linecap:butt;stroke-linejoin:miter;stroke-opacity:1"
     x="287.52667"
     y="255.29053"
     id="text3499"
     sodipodi:linespacing="125%"><tspan
       sodipodi:role="line"
       id="tspan3501"
       x="287.52667"
       y="255.29053">0</tspan></text>
  <text
     xml:space="preserve"
     style="font-style:normal;font-variant:normal;font-weight:normal;font-stretch:normal;font-size:40px;line-height:125%;font-family:'Bitstream Charter';-inkscape-font-specification:'Bitstream Charter, Normal';text-align:start;letter-spacing:0px;word-spacing:0px;writing-mode:lr-tb;text-anchor:start;fill:#000000;fill-opacity:1;stroke:none;stroke-width:1px;stroke-linecap:butt;stroke-linejoin:miter;stroke-opacity:1"
     x="356.69968"
     y="137.69641"
     id="text3503"
     sodipodi:linespacing="125%"><tspan
       sodipodi:role="line"
       id="tspan3505"
       x="356.69968"
       y="137.69641">4_1</tspan></text>
  <text
     xml:space="preserve"
     style="font-style:normal;font-variant:normal;font-weight:normal;font-stretch:normal;font-size:40px;line-height:125%;font-family:'Bitstream Charter';-inkscape-font-specification:'Bitstream Charter, Normal';text-align:start;letter-spacing:0px;word-spacing:0px;writing-mode:lr-tb;text-anchor:start;fill:#000000;fill-opacity:1;stroke:none;stroke-width:1px;stroke-linecap:butt;stroke-linejoin:miter;stroke-opacity:1"
     x="447.15668"
     y="234.53864"
     id="text3507"
     sodipodi:linespacing="125%"><tspan
       sodipodi:role="line"
       id="tspan3509"
       x="447.15668"
       y="234.53864">4_1</tspan></text>
  <text
     xml:space="preserve"
     style="font-style:normal;font-variant:normal;font-weight:normal;font-stretch:normal;font-size:40px;line-height:125%;font-family:'Bitstream Charter';-inkscape-font-specification:'Bitstream Charter, Normal';text-align:start;letter-spacing:0px;word-spacing:0px;writing-mode:lr-tb;text-anchor:start;fill:#000000;fill-opacity:1;stroke:none;stroke-width:1px;stroke-linecap:butt;stroke-linejoin:miter;stroke-opacity:1"
     x="459.92709"
     y="451.10336"
     id="text3511"
     sodipodi:linespacing="125%"><tspan
       sodipodi:role="line"
       id="tspan3513"
       x="459.92709"
       y="451.10336">4_1</tspan></text>
  <text
     xml:space="preserve"
     style="font-style:normal;font-variant:normal;font-weight:normal;font-stretch:normal;font-size:40px;line-height:125%;font-family:'Bitstream Charter';-inkscape-font-specification:'Bitstream Charter, Normal';text-align:start;letter-spacing:0px;word-spacing:0px;writing-mode:lr-tb;text-anchor:start;fill:#000000;fill-opacity:1;stroke:none;stroke-width:1px;stroke-linecap:butt;stroke-linejoin:miter;stroke-opacity:1"
     x="319.45267"
     y="484.62567"
     id="text3515"
     sodipodi:linespacing="125%"><tspan
       sodipodi:role="line"
       id="tspan3517"
       x="319.45267"
       y="484.62567">4_1</tspan></text>
</svg>
