<?xml version="1.0" encoding="UTF-8" standalone="no"?>
<svg
   xmlns:dc="http://purl.org/dc/elements/1.1/"
   xmlns:cc="http://creativecommons.org/ns#"
   xmlns:rdf="http://www.w3.org/1999/02/22-rdf-syntax-ns#"
   xmlns:svg="http://www.w3.org/2000/svg"
   xmlns="http://www.w3.org/2000/svg"
   xmlns:sodipodi="http://sodipodi.sourceforge.net/DTD/sodipodi-0.dtd"
   xmlns:inkscape="http://www.inkscape.org/namespaces/inkscape"
   height="923.000"
   viewBox="60.000 82.000 700.000 923.000"
   width="700.000"
   id="svg3391"
   version="1.1"
   inkscape:version="0.91 r13725"
   sodipodi:docname="7_4_annotated.svg">
  <metadata
     id="metadata3425">
    <rdf:RDF>
      <cc:Work
         rdf:about="">
        <dc:format>image/svg+xml</dc:format>
        <dc:type
           rdf:resource="http://purl.org/dc/dcmitype/StillImage" />
        <dc:title></dc:title>
      </cc:Work>
    </rdf:RDF>
  </metadata>
  <defs
     id="defs3423" />
  <sodipodi:namedview
     pagecolor="#ffffff"
     bordercolor="#666666"
     borderopacity="1"
     objecttolerance="10"
     gridtolerance="10"
     guidetolerance="10"
     inkscape:pageopacity="0"
     inkscape:pageshadow="2"
     inkscape:window-width="1855"
     inkscape:window-height="1056"
     id="namedview3421"
     showgrid="false"
     inkscape:zoom="0.99566631"
     inkscape:cx="350"
     inkscape:cy="461.5"
     inkscape:window-x="65"
     inkscape:window-y="24"
     inkscape:window-maximized="1"
     inkscape:current-layer="svg3391" />
  <path
     d="M197.21968832 267.144941895 C229.839669194,245.684428162 263.044589634,225.132459335 296.5,205.0 C322.662101785,189.256434324 353.0,171.0 373.5,155.5 C388.117087818,144.448055552 404.497367962,136.023724257 421.629579945,129.534250021"
     fill="none"
     stroke="#d82626"
     stroke-linecap="round"
     stroke-width="5.0"
     id="path3393" />
  <path
     d="M421.629579945 129.534250021 C451.780849507,118.113314581 483.859896615,113.29572167 516.0,111.0 C543.116736104,109.063090278 572.395472863,107.37569922 592.0,126.0 C603.376775242,136.80793648 611.863605073,150.864981862 611.5,166.5 C611.161383969,181.060489354 607.017663769,195.24061133 600.0,208.0 C593.681792393,219.487650195 586.199049038,230.411929995 576.256487202,238.973580465"
     fill="none"
     stroke="#d82626"
     stroke-linecap="round"
     stroke-width="5.0"
     id="path3395" />
  <path
     d="M569.056487202 245.173580465 C558.352680134,254.390747662 547.14964061,263.011675011 535.5,271.0 C522.213729784,280.110585291 510.625186635,291.399092999 500.0,303.5 C486.850316808,318.47602808 472.894881,332.717667128 458.5,346.5 C441.407817206,362.864855867 423.243623887,378.058191432 404.5,392.5 C385.714416723,406.974137935 367.158807951,421.746601321 349.0,437.0 C334.516988812,449.165729398 320.797941351,462.30276631 309.501125844,477.482862147"
     fill="none"
     stroke="#d82626"
     stroke-linecap="round"
     stroke-width="5.0"
     id="path3397" />
  <path
     d="M309.501125844 477.482862147 C292.0,501.0 265.445803317,523.128497236 241.0,543.5 C213.302310941,566.581407549 186.350479,590.794468765 164.5,619.5 C150.126950884,638.382240996 137.09372759,658.4464926 129.248328767,680.861917808"
     fill="none"
     stroke="#d82626"
     stroke-linecap="round"
     stroke-width="5.0"
     id="path3399" />
  <path
     d="M123.837257136 696.322122468 C115.619852894,719.800420302 109.308678489,743.916711569 105.5,768.5 C101.362762937,795.203984678 103.059889928,822.359339566 107.5,849.0 C111.4408017,872.644810202 116.131208561,896.360783083 126.5,918.0 C135.929743192,937.679464054 152.432591995,952.598934746 170.0,965.5 C191.219750747,981.083254455 217.179491118,988.63422913 243.5,988.0 C263.554843471,987.51675076 285.0,987.0 302.0,978.0 C319.0,969.0 335.686274821,955.650980144 351.5,943.0 C370.596801712,927.72255863 389.680867296,912.429187233 408.734861548,897.09838726"
     fill="none"
     stroke="#d82626"
     stroke-linecap="round"
     stroke-width="5.0"
     id="path3401" />
  <path
     d="M408.734861548 897.09838726 C451.247637425,862.89270552 495.135133758,830.436672911 540.124535404,799.56159335"
     fill="none"
     stroke="#d82626"
     stroke-linecap="round"
     stroke-width="5.0"
     id="path3403" />
  <path
     d="M552.636124462 790.975208702 C567.684124284,780.648150001 581.860403672,769.124085625 595.5,757.0 C608.731358686,745.238792279 621.91827639,733.42745388 635.0,721.5 C645.837357854,711.618879603 655.811357991,700.816553132 664.5,689.0 C677.0,672.0 686.766857079,653.21758254 696.5,634.5 C715.341330015,598.266673049 723.903009612,557.978890043 732.0,518.0 C744.00599198,458.720414599 718.900513218,400.126639795 682.5,351.5 C651.107860537,309.563935832 617.0,264.0 573.070609003,241.716975581"
     fill="none"
     stroke="#d82626"
     stroke-linecap="round"
     stroke-width="5.0"
     id="path3405" />
  <path
     d="M573.070609003 241.716975581 C548.0,229.0 475.843364562,172.20574501 428.701692647,135.100687116"
     fill="none"
     stroke="#d82626"
     stroke-linecap="round"
     stroke-width="5.0"
     id="path3407" />
  <path
     d="M415.903663956 125.027400017 C397.114335881,110.2383805 373.230663985,104.727662527 349.5,102.0 C314.981543996,98.0323613789 280.160144134,98.7084202226 245.5,101.0 C215.116625463,103.008818151 183.050196958,107.215685275 163.0,130.0 C150.393665217,144.325380436 144.121629309,163.70770281 150.5,181.5 C160.0,208.0 175.859598479,242.223344087 189.700934579,272.091490408"
     fill="none"
     stroke="#d82626"
     stroke-linecap="round"
     stroke-width="5.0"
     id="path3409" />
  <path
     d="M189.700934579 272.091490408 C207.170274428,309.788486924 224.758713649,347.430217139 242.5,385.0 C257.635378079,417.051388872 276.89460154,447.247721428 302.901712433,471.363406074"
     fill="none"
     stroke="#d82626"
     stroke-linecap="round"
     stroke-width="5.0"
     id="path3411" />
  <path
     d="M312.200900676 479.986289717 C323.0,490.0 344.946569769,522.919854653 360.0,545.5 C378.488522448,573.232783672 397.00994684,601.011797415 418.5,626.5 C440.0,652.0 463.759811938,684.376007475 485.5,714.0 C505.551476887,741.322891582 531.0,776.0 547.545155578,794.469010878"
     fill="none"
     stroke="#d82626"
     stroke-linecap="round"
     stroke-width="5.0"
     id="path3413" />
  <path
     d="M547.545155578 794.469010878 C580.50671005,831.263304242 617.0,872.0 624.0,917.5 C627.489623794,940.182554658 626.657413814,965.40228172 607.5,976.0 C585.351346943,988.252446372 559.015251482,985.252287722 534.0,981.5 C507.555743009,977.533361451 480.636004501,969.979615135 463.5,949.5 C449.136705142,932.334111024 432.942295666,916.810155042 415.587889238,902.678709808"
     fill="none"
     stroke="#d82626"
     stroke-linecap="round"
     stroke-width="5.0"
     id="path3415" />
  <path
     d="M401.755938807 891.415550171 C373.0,868.0 337.758226346,843.123453891 305.0,820.0 C244.576630898,777.348210045 185.583467692,732.723482264 126.810410959,687.82739726"
     fill="none"
     stroke="#d82626"
     stroke-linecap="round"
     stroke-width="5.0"
     id="path3417" />
  <path
     d="M126.810410959 687.82739726 C94.512703821,663.155537641 87.9091300488,620.000322903 83.0,579.5 C77.1451012564,531.197085366 76.0855112572,482.165811264 86.0,434.5 C93.8068657116,396.966991771 107.849753587,360.69954542 131.5,330.5 C147.31425151,310.306417303 164.0,289.0 184.560747664,275.473192327"
     fill="none"
     stroke="#d82626"
     stroke-linecap="round"
     stroke-width="5.0"
     id="path3419" />
  <text
     xml:space="preserve"
     style="font-style:normal;font-variant:normal;font-weight:normal;font-stretch:normal;font-size:40px;line-height:125%;font-family:'Bitstream Charter';-inkscape-font-specification:'Bitstream Charter, Normal';text-align:start;letter-spacing:0px;word-spacing:0px;writing-mode:lr-tb;text-anchor:start;fill:#000000;fill-opacity:1;stroke:none;stroke-width:1px;stroke-linecap:butt;stroke-linejoin:miter;stroke-opacity:1"
     x="401.47986"
     y="163.35255"
     id="text3427"
     sodipodi:linespacing="125%"><tspan
       sodipodi:role="line"
       id="tspan3429"
       x="401.47986"
       y="163.35255">5_2</tspan></text>
  <text
     xml:space="preserve"
     style="font-style:normal;font-variant:normal;font-weight:normal;font-stretch:normal;font-size:40px;line-height:125%;font-family:'Bitstream Charter';-inkscape-font-specification:'Bitstream Charter, Normal';text-align:start;letter-spacing:0px;word-spacing:0px;writing-mode:lr-tb;text-anchor:start;fill:#000000;fill-opacity:1;stroke:none;stroke-width:1px;stroke-linecap:butt;stroke-linejoin:miter;stroke-opacity:1"
     x="339.21002"
     y="470.68445"
     id="text3431"
     sodipodi:linespacing="125%"><tspan
       sodipodi:role="line"
       id="tspan3433"
       x="339.21002"
       y="470.68445">3_1</tspan></text>
  <text
     xml:space="preserve"
     style="font-style:normal;font-variant:normal;font-weight:normal;font-stretch:normal;font-size:40px;line-height:125%;font-family:'Bitstream Charter';-inkscape-font-specification:'Bitstream Charter, Normal';text-align:start;letter-spacing:0px;word-spacing:0px;writing-mode:lr-tb;text-anchor:start;fill:#000000;fill-opacity:1;stroke:none;stroke-width:1px;stroke-linecap:butt;stroke-linejoin:miter;stroke-opacity:1"
     x="219.69206"
     y="289.901"
     id="text3435"
     sodipodi:linespacing="125%"><tspan
       sodipodi:role="line"
       id="tspan3437"
       x="219.69206"
       y="289.901">5_2</tspan></text>
  <text
     xml:space="preserve"
     style="font-style:normal;font-variant:normal;font-weight:normal;font-stretch:normal;font-size:40px;line-height:125%;font-family:'Bitstream Charter';-inkscape-font-specification:'Bitstream Charter, Normal';text-align:start;letter-spacing:0px;word-spacing:0px;writing-mode:lr-tb;text-anchor:start;fill:#000000;fill-opacity:1;stroke:none;stroke-width:1px;stroke-linecap:butt;stroke-linejoin:miter;stroke-opacity:1"
     x="603.35474"
     y="237.67465"
     id="text3439"
     sodipodi:linespacing="125%"><tspan
       sodipodi:role="line"
       id="tspan3441"
       x="603.35474"
       y="237.67465">5_2</tspan></text>
  <text
     xml:space="preserve"
     style="font-style:normal;font-variant:normal;font-weight:normal;font-stretch:normal;font-size:40px;line-height:125%;font-family:'Bitstream Charter';-inkscape-font-specification:'Bitstream Charter, Normal';text-align:start;letter-spacing:0px;word-spacing:0px;writing-mode:lr-tb;text-anchor:start;fill:#000000;fill-opacity:1;stroke:none;stroke-width:1px;stroke-linecap:butt;stroke-linejoin:miter;stroke-opacity:1"
     x="584.27203"
     y="799.10773"
     id="text3443"
     sodipodi:linespacing="125%"><tspan
       sodipodi:role="line"
       id="tspan3445"
       x="584.27203"
       y="799.10773">5_2</tspan></text>
  <text
     xml:space="preserve"
     style="font-style:normal;font-variant:normal;font-weight:normal;font-stretch:normal;font-size:40px;line-height:125%;font-family:'Bitstream Charter';-inkscape-font-specification:'Bitstream Charter, Normal';text-align:start;letter-spacing:0px;word-spacing:0px;writing-mode:lr-tb;text-anchor:start;fill:#000000;fill-opacity:1;stroke:none;stroke-width:1px;stroke-linecap:butt;stroke-linejoin:miter;stroke-opacity:1"
     x="149.38737"
     y="682.60284"
     id="text3447"
     sodipodi:linespacing="125%"><tspan
       sodipodi:role="line"
       id="tspan3449"
       x="149.38737"
       y="682.60284">5_2</tspan></text>
  <text
     xml:space="preserve"
     style="font-style:normal;font-variant:normal;font-weight:normal;font-stretch:normal;font-size:40px;line-height:125%;font-family:'Bitstream Charter';-inkscape-font-specification:'Bitstream Charter, Normal';text-align:start;letter-spacing:0px;word-spacing:0px;writing-mode:lr-tb;text-anchor:start;fill:#000000;fill-opacity:1;stroke:none;stroke-width:1px;stroke-linecap:butt;stroke-linejoin:miter;stroke-opacity:1"
     x="392.4407"
     y="845.30792"
     id="text3451"
     sodipodi:linespacing="125%"><tspan
       sodipodi:role="line"
       id="tspan3453"
       x="392.4407"
       y="845.30792">5_2</tspan></text>
</svg>
