<?xml version="1.0" encoding="UTF-8" standalone="no"?>
<svg
   xmlns:dc="http://purl.org/dc/elements/1.1/"
   xmlns:cc="http://creativecommons.org/ns#"
   xmlns:rdf="http://www.w3.org/1999/02/22-rdf-syntax-ns#"
   xmlns:svg="http://www.w3.org/2000/svg"
   xmlns="http://www.w3.org/2000/svg"
   xmlns:sodipodi="http://sodipodi.sourceforge.net/DTD/sodipodi-0.dtd"
   xmlns:inkscape="http://www.inkscape.org/namespaces/inkscape"
   height="911.000"
   viewBox="51.000 34.000 853.000 911.000"
   width="853.000"
   id="svg3395"
   version="1.1"
   inkscape:version="0.91 r13725"
   sodipodi:docname="8_11_annotated.svg">
  <metadata
     id="metadata3433">
    <rdf:RDF>
      <cc:Work
         rdf:about="">
        <dc:format>image/svg+xml</dc:format>
        <dc:type
           rdf:resource="http://purl.org/dc/dcmitype/StillImage" />
        <dc:title></dc:title>
      </cc:Work>
    </rdf:RDF>
  </metadata>
  <defs
     id="defs3431" />
  <sodipodi:namedview
     pagecolor="#ffffff"
     bordercolor="#666666"
     borderopacity="1"
     objecttolerance="10"
     gridtolerance="10"
     guidetolerance="10"
     inkscape:pageopacity="0"
     inkscape:pageshadow="2"
     inkscape:window-width="1855"
     inkscape:window-height="1056"
     id="namedview3429"
     showgrid="false"
     inkscape:zoom="1.0087816"
     inkscape:cx="426.5"
     inkscape:cy="455.5"
     inkscape:window-x="65"
     inkscape:window-y="24"
     inkscape:window-maximized="1"
     inkscape:current-layer="svg3395" />
  <path
     d="M590.173279759 107.477984263 C547.710358532,88.9309611977 500.770838087,86.0 454.5,86.0 C384.997473049,86.0 315.497168691,85.3544733855 246.0,84.5 C193.064501999,83.8491537131 124.0,83.0 100.5,112.5 C88.7903867063,127.199301794 76.9122067427,142.476591968 73.5,161.0 C70.5857655913,176.820129647 69.7772254991,192.920921053 69.5,209.0 C69.028726737,236.333849252 68.515717841,263.666954428 68.0,291.0 C67.4645365205,319.379564415 68.3830463108,348.083279584 77.5,375.0 C83.3628334355,392.309317762 89.6576935005,409.489881054 97.5,426.0 C101.950087539,435.368605344 107.0,446.0 113.893751544,452.053050136"
     fill="none"
     stroke="#d82626"
     stroke-linecap="round"
     stroke-width="5.0"
     id="path3397" />
  <path
     d="M122.093751544 459.253050136 C137.530389726,472.807171466 154.494665157,484.674273888 173.5,492.5 C189.350248962,499.026573102 206.409717472,502.395125104 223.5,501.0 C243.489096507,499.36823702 261.167626994,488.783737677 277.0,476.5 C290.149331582,466.297932393 306.0,454.0 312.746305419,442.34729064"
     fill="none"
     stroke="#d82626"
     stroke-linecap="round"
     stroke-width="5.0"
     id="path3399" />
  <path
     d="M312.746305419 442.34729064 C324.001302363,422.906841373 340.553228788,407.293728422 359.0,394.5 C373.385251104,384.523132299 390.0,373.0 404.5,380.0 C418.583548114,386.798954262 427.786337359,400.053986934 436.5,413.0 C445.328739958,426.11698508 454.13993966,439.433812946 459.0,454.5 C461.838803858,463.300291958 464.333839411,472.225596074 465.705866303,481.372442019"
     fill="none"
     stroke="#d82626"
     stroke-linecap="round"
     stroke-width="5.0"
     id="path3401" />
  <path
     d="M466.905866303 489.372442019 C469.591186241,507.274574941 473.673675443,524.924306489 478.0,542.5 C485.048829431,571.135869562 490.871323305,600.052519854 496.5,629.0 C501.894432968,656.74279812 507.571896339,684.525056904 517.5,711.0 C526.365836155,734.642229745 538.594626993,756.807990051 551.5,778.5 C564.586014255,800.495640981 578.204493677,822.201447266 593.72824212,842.554806335"
     fill="none"
     stroke="#d82626"
     stroke-linecap="round"
     stroke-width="5.0"
     id="path3403" />
  <path
     d="M593.72824212 842.554806335 C610.958353193,865.145396409 632.857526453,883.767119186 658.0,897.0 C677.848553624,907.446607171 699.49455672,916.3147928 721.5,912.0 C741.585368401,908.06169247 760.815824566,900.836016732 779.5,892.5 C798.832229418,883.87485149 817.294480586,873.20975566 833.0,859.0 C846.584836599,846.708957363 857.310990488,831.556974256 864.0,814.5 C871.956088116,794.211975303 868.813784163,771.862938975 862.5,751.0 C856.679467645,731.766936567 850.255663279,712.204329712 836.5,697.5 C830.111386305,690.670792258 822.0,682.0 817.413509061,676.939044481"
     fill="none"
     stroke="#d82626"
     stroke-linecap="round"
     stroke-width="5.0"
     id="path3405" />
  <path
     d="M811.613509061 670.539044481 C798.679406146,656.26693092 788.933619577,639.464377995 782.0,621.5 C775.143866494,603.736381371 767.139422664,586.422720094 757.5,570.0 C744.85160723,548.450886391 733.380293122,526.243300193 722.0,504.0 C709.129819896,478.844647979 696.057931461,453.7916461 682.5,429.0 C671.992889702,409.786998312 661.318853904,390.665004393 650.316682199,371.731034483"
     fill="none"
     stroke="#d82626"
     stroke-linecap="round"
     stroke-width="5.0"
     id="path3407" />
  <path
     d="M650.316682199 371.731034483 C634.663410758,344.792846421 619.268498127,317.697672834 605.0,290.0 C594.792858416,270.186136925 586.082174092,249.584406487 580.5,228.0 C574.894518402,206.325471154 573.403457204,183.870354833 574.0,161.5 C574.482879496,143.392018914 575.0,124.0 587.138623807,110.78238741"
     fill="none"
     stroke="#d82626"
     stroke-linecap="round"
     stroke-width="5.0"
     id="path3409" />
  <path
     d="M596.138623807 100.98238741 C620.0,75.0 664.301901293,68.3280269137 703.0,62.5 C741.174706359,56.7507972352 786.0,50.0 808.5,76.0 C823.420814282,93.2418298367 830.624679482,115.699198922 830.0,138.5 C829.388268346,160.828205358 824.75000655,182.99998767 814.266012695,202.734564339"
     fill="none"
     stroke="#d82626"
     stroke-linecap="round"
     stroke-width="5.0"
     id="path3411" />
  <path
     d="M814.266012695 202.734564339 C800.540989036,228.569902992 782.890040201,252.056050409 763.0,273.5 C743.73671986,294.268223901 723.475796565,314.121385846 701.5,332.0 C686.127900613,344.506114756 670.694275051,356.947290649 654.65334576,368.584827586"
     fill="none"
     stroke="#d82626"
     stroke-linecap="round"
     stroke-width="5.0"
     id="path3413" />
  <path
     d="M644.45334576 375.984827586 C621.0,393.0 590.315317528,413.897326856 563.0,432.5 C532.588317696,453.211404328 501.27206905,473.171635442 466.132332879,484.215552524"
     fill="none"
     stroke="#d82626"
     stroke-linecap="round"
     stroke-width="5.0"
     id="path3415" />
  <path
     d="M466.132332879 484.215552524 C438.558628596,492.88157387 409.589134618,484.561678572 382.5,474.5 C359.692089547,466.028490403 330.0,455.0 316.197044335,444.877832512"
     fill="none"
     stroke="#d82626"
     stroke-linecap="round"
     stroke-width="5.0"
     id="path3417" />
  <path
     d="M305.488660456 437.025017668 C275.414479745,414.97061848 235.883880409,417.006359083 199.0,423.5 C168.44810689,428.878854421 128.0,436.0 115.617189429,453.56631267"
     fill="none"
     stroke="#d82626"
     stroke-linecap="round"
     stroke-width="5.0"
     id="path3419" />
  <path
     d="M115.617189429 453.56631267 C100.42178613,475.122582467 84.9452961815,497.362412797 81.0,523.5 C77.0,550.0 78.2774278861,579.125355803 79.5,607.0 C81.0094455725,641.415359054 83.410153825,675.794013809 87.5,710.0 C91.2019377275,740.961660993 96.7479158748,771.673102749 104.0,802.0 C114.96060497,847.835257147 162.221384987,869.65400527 205.5,889.5 C256.242797162,912.768796489 311.249126909,928.728853439 366.5,920.5 C409.092459625,914.156442183 451.290386054,905.063321182 492.0,891.0 C524.789780612,879.672621243 556.754677605,865.853216852 586.113888914,847.352891917"
     fill="none"
     stroke="#d82626"
     stroke-linecap="round"
     stroke-width="5.0"
     id="path3421" />
  <path
     d="M598.982593696 839.243845068 C620.0,826.0 661.572315064,805.638049765 693.5,790.0 C727.191546445,773.498018068 767.0,754.0 782.5,726.0 C792.303416413,708.29060261 803.447855371,691.341510103 816.266886326,675.673805601"
     fill="none"
     stroke="#d82626"
     stroke-linecap="round"
     stroke-width="5.0"
     id="path3423" />
  <path
     d="M816.266886326 675.673805601 C834.222316113,653.728280307 848.046542038,628.73046734 857.5,602.0 C867.167586098,574.664066894 874.51794444,546.563785212 879.5,518.0 C884.136834986,491.415479415 886.719482224,464.480583384 886.0,437.5 C885.302277719,411.335414453 885.543068987,385.156114348 886.5,359.0 C887.559638011,330.036561034 883.880538781,301.147658649 877.0,273.0 C869.864127658,243.807794965 849.382058193,219.884260978 822.353120339,206.684082026"
     fill="none"
     stroke="#d82626"
     stroke-linecap="round"
     stroke-width="5.0"
     id="path3425" />
  <path
     d="M807.412810156 199.387651471 C780.0,186.0 738.74353045,169.17170321 704.0,155.0 C665.927740124,139.470525577 627.85389563,123.936184298 590.173279759,107.477984263"
     fill="none"
     stroke="#d82626"
     stroke-linecap="round"
     stroke-width="5.0"
     id="path3427" />
  <text
     xml:space="preserve"
     style="font-style:normal;font-variant:normal;font-weight:normal;font-stretch:normal;font-size:20px;line-height:125%;font-family:'Bitstream Charter';-inkscape-font-specification:'Bitstream Charter, Normal';text-align:start;letter-spacing:0px;word-spacing:0px;writing-mode:lr-tb;text-anchor:start;fill:#000000;fill-opacity:1;stroke:none;stroke-width:1px;stroke-linecap:butt;stroke-linejoin:miter;stroke-opacity:1"
     x="115.43417"
     y="412.67465"
     id="text3435"
     sodipodi:linespacing="125%"><tspan
       sodipodi:role="line"
       id="tspan3437"
       x="115.43417"
       y="412.67465">6_2</tspan></text>
  <text
     xml:space="preserve"
     style="font-style:normal;font-variant:normal;font-weight:normal;font-stretch:normal;font-size:20px;line-height:125%;font-family:'Bitstream Charter';-inkscape-font-specification:'Bitstream Charter, Normal';text-align:start;letter-spacing:0px;word-spacing:0px;writing-mode:lr-tb;text-anchor:start;fill:#000000;fill-opacity:1;stroke:none;stroke-width:1px;stroke-linecap:butt;stroke-linejoin:miter;stroke-opacity:1"
     x="292.87595"
     y="410.69205"
     id="text3439"
     sodipodi:linespacing="125%"><tspan
       sodipodi:role="line"
       id="tspan3441"
       x="292.87595"
       y="410.69205">6_2</tspan></text>
  <text
     xml:space="preserve"
     style="font-style:normal;font-variant:normal;font-weight:normal;font-stretch:normal;font-size:20px;line-height:125%;font-family:'Bitstream Charter';-inkscape-font-specification:'Bitstream Charter, Normal';text-align:start;letter-spacing:0px;word-spacing:0px;writing-mode:lr-tb;text-anchor:start;fill:#000000;fill-opacity:1;stroke:none;stroke-width:1px;stroke-linecap:butt;stroke-linejoin:miter;stroke-opacity:1"
     x="469.32645"
     y="437.45703"
     id="text3443"
     sodipodi:linespacing="125%"><tspan
       sodipodi:role="line"
       id="tspan3445"
       x="469.32645"
       y="437.45703">6_2</tspan></text>
  <text
     xml:space="preserve"
     style="font-style:normal;font-variant:normal;font-weight:normal;font-stretch:normal;font-size:20px;line-height:125%;font-family:'Bitstream Charter';-inkscape-font-specification:'Bitstream Charter, Normal';text-align:start;letter-spacing:0px;word-spacing:0px;writing-mode:lr-tb;text-anchor:start;fill:#000000;fill-opacity:1;stroke:none;stroke-width:1px;stroke-linecap:butt;stroke-linejoin:miter;stroke-opacity:1"
     x="603.15125"
     y="375.00543"
     id="text3447"
     sodipodi:linespacing="125%"><tspan
       sodipodi:role="line"
       id="tspan3449"
       x="603.15125"
       y="375.00543">0</tspan></text>
  <text
     xml:space="preserve"
     style="font-style:normal;font-variant:normal;font-weight:normal;font-stretch:normal;font-size:20px;line-height:125%;font-family:'Bitstream Charter';-inkscape-font-specification:'Bitstream Charter, Normal';text-align:start;letter-spacing:0px;word-spacing:0px;writing-mode:lr-tb;text-anchor:start;fill:#000000;fill-opacity:1;stroke:none;stroke-width:1px;stroke-linecap:butt;stroke-linejoin:miter;stroke-opacity:1"
     x="534.75189"
     y="140.06854"
     id="text3451"
     sodipodi:linespacing="125%"><tspan
       sodipodi:role="line"
       id="tspan3453"
       x="534.75189"
       y="140.06854">5_2</tspan></text>
  <text
     xml:space="preserve"
     style="font-style:normal;font-variant:normal;font-weight:normal;font-stretch:normal;font-size:20px;line-height:125%;font-family:'Bitstream Charter';-inkscape-font-specification:'Bitstream Charter, Normal';text-align:start;letter-spacing:0px;word-spacing:0px;writing-mode:lr-tb;text-anchor:start;fill:#000000;fill-opacity:1;stroke:none;stroke-width:1px;stroke-linecap:butt;stroke-linejoin:miter;stroke-opacity:1"
     x="838.08813"
     y="197.56366"
     id="text3455"
     sodipodi:linespacing="125%"><tspan
       sodipodi:role="line"
       id="tspan3457"
       x="838.08813"
       y="197.56366">5_2</tspan></text>
  <text
     xml:space="preserve"
     style="font-style:normal;font-variant:normal;font-weight:normal;font-stretch:normal;font-size:20px;line-height:125%;font-family:'Bitstream Charter';-inkscape-font-specification:'Bitstream Charter, Normal';text-align:start;letter-spacing:0px;word-spacing:0px;writing-mode:lr-tb;text-anchor:start;fill:#000000;fill-opacity:1;stroke:none;stroke-width:1px;stroke-linecap:butt;stroke-linejoin:miter;stroke-opacity:1"
     x="770.68011"
     y="685.28076"
     id="text3459"
     sodipodi:linespacing="125%"><tspan
       sodipodi:role="line"
       id="tspan3461"
       x="770.68011"
       y="685.28076">6_1</tspan></text>
  <text
     xml:space="preserve"
     style="font-style:normal;font-variant:normal;font-weight:normal;font-stretch:normal;font-size:20px;line-height:125%;font-family:'Bitstream Charter';-inkscape-font-specification:'Bitstream Charter, Normal';text-align:start;letter-spacing:0px;word-spacing:0px;writing-mode:lr-tb;text-anchor:start;fill:#000000;fill-opacity:1;stroke:none;stroke-width:1px;stroke-linecap:butt;stroke-linejoin:miter;stroke-opacity:1"
     x="590.2644"
     y="806.21875"
     id="text3463"
     sodipodi:linespacing="125%"><tspan
       sodipodi:role="line"
       id="tspan3465"
       x="590.2644"
       y="806.21875">6_1</tspan></text>
</svg>
