<?xml version="1.0" encoding="UTF-8" standalone="no"?>
<svg
   xmlns:dc="http://purl.org/dc/elements/1.1/"
   xmlns:cc="http://creativecommons.org/ns#"
   xmlns:rdf="http://www.w3.org/1999/02/22-rdf-syntax-ns#"
   xmlns:svg="http://www.w3.org/2000/svg"
   xmlns="http://www.w3.org/2000/svg"
   xmlns:sodipodi="http://sodipodi.sourceforge.net/DTD/sodipodi-0.dtd"
   xmlns:inkscape="http://www.inkscape.org/namespaces/inkscape"
   height="899.000"
   viewBox="93.000 6.000 834.000 899.000"
   width="834.000"
   id="svg3395"
   version="1.1"
   inkscape:version="0.91 r13725"
   sodipodi:docname="8_14_annotated.svg">
  <metadata
     id="metadata3433">
    <rdf:RDF>
      <cc:Work
         rdf:about="">
        <dc:format>image/svg+xml</dc:format>
        <dc:type
           rdf:resource="http://purl.org/dc/dcmitype/StillImage" />
        <dc:title></dc:title>
      </cc:Work>
    </rdf:RDF>
  </metadata>
  <defs
     id="defs3431" />
  <sodipodi:namedview
     pagecolor="#ffffff"
     bordercolor="#666666"
     borderopacity="1"
     objecttolerance="10"
     gridtolerance="10"
     guidetolerance="10"
     inkscape:pageopacity="0"
     inkscape:pageshadow="2"
     inkscape:window-width="1855"
     inkscape:window-height="1056"
     id="namedview3429"
     showgrid="false"
     inkscape:zoom="1.0222469"
     inkscape:cx="417"
     inkscape:cy="449.5"
     inkscape:window-x="65"
     inkscape:window-y="24"
     inkscape:window-maximized="1"
     inkscape:current-layer="svg3395" />
  <path
     d="M352.859365528 131.981006264 C329.143914088,123.589384985 304.142522161,119.628563054 279.0,119.0 C249.759257832,118.268981446 222.145628277,130.276641132 198.5,147.5 C176.403352801,163.5950887 155.402793439,181.859289694 142.5,206.0 C132.545396052,224.62474287 125.41687603,244.657056218 122.0,265.5 C118.136500936,289.06734429 115.137260371,312.764656661 112.5,336.5 C109.424924035,364.175683688 110.849484499,392.1378864 116.0,419.5 C120.680091178,444.362984382 125.463849169,469.206642061 130.5,494.0 C135.123285926,516.760792251 147.019480766,537.198243209 162.5,554.5 C175.287653135,568.792082916 189.377552312,583.213423598 208.32740643,586.149316489"
     fill="none"
     stroke="#d82626"
     stroke-linecap="round"
     stroke-width="5.0"
     id="path3397" />
  <path
     d="M222.303150173 588.314572562 C251.484945659,592.835695806 281.101856943,589.449617688 310.0,583.5 C333.753064165,578.60966326 361.0,573.0 376.532467532,558.142857143"
     fill="none"
     stroke="#d82626"
     stroke-linecap="round"
     stroke-width="5.0"
     id="path3399" />
  <path
     d="M376.532467532 558.142857143 C395.919334076,539.598897841 415.861415688,521.640519174 436.5,504.5 C457.253244728,487.264254378 478.65552711,470.829328181 500.5,455.0 C518.417263431,442.016475774 536.254877664,428.87861996 552.756754688,414.132261768"
     fill="none"
     stroke="#d82626"
     stroke-linecap="round"
     stroke-width="5.0"
     id="path3401" />
  <path
     d="M562.156754688 405.732261768 C576.244948635,393.142811858 590.177248839,380.380290854 604.0,367.5 C621.479075884,351.21267929 636.895178926,332.900356684 651.5,314.0 C668.633691673,291.826987246 681.531321705,266.708908468 690.0,240.0 C697.562140074,216.150173614 703.19948888,191.61891144 703.875813128,166.594914252"
     fill="none"
     stroke="#d82626"
     stroke-linecap="round"
     stroke-width="5.0"
     id="path3403" />
  <path
     d="M703.875813128 166.594914252 C704.508087069,143.200778454 698.524101783,119.33358906 681.0,104.0 C658.228325921,84.0747851807 631.62046315,69.3340955423 605.0,55.0 C579.468416898,41.2522244835 553.0,27.0 524.5,24.5 C501.596999181,22.4909648405 478.871391927,27.4899384849 457.0,34.5 C432.017257706,42.5072891967 409.053444466,55.9465555337 390.5,74.5 C375.549419345,89.4505806545 361.670895019,105.92952777 354.887492423,125.984805011"
     fill="none"
     stroke="#d82626"
     stroke-linecap="round"
     stroke-width="5.0"
     id="path3405" />
  <path
     d="M350.287492423 139.584805011 C343.372605046,160.028819864 347.14335885,182.302451352 358.0,201.0 C369.723785024,221.190963097 388.446516737,236.329223213 410.5,244.0 C436.144782714,252.919924422 463.931727272,249.918899725 489.783388645,241.615032738"
     fill="none"
     stroke="#d82626"
     stroke-linecap="round"
     stroke-width="5.0"
     id="path3407" />
  <path
     d="M489.783388645 241.615032738 C537.541477311,226.274555773 610.0,203.0 631.0,191.0 C650.76912599,179.703356577 673.003320727,173.977466783 695.122603103,168.688073171"
     fill="none"
     stroke="#d82626"
     stroke-linecap="round"
     stroke-width="5.0"
     id="path3409" />
  <path
     d="M711.900650503 164.675931402 C733.73893564,159.453732782 756.549704786,160.875644125 778.0,167.5 C805.853999889,176.101970554 824.185492523,200.730630282 838.0,226.5 C855.766520621,259.641394235 869.987555541,294.547607796 881.0,330.5 C891.714146133,365.478535904 899.918701773,401.202021737 904.5,437.5 C907.669663467,462.613487467 911.0,489.0 907.0,513.0 C903.062895115,536.622629309 889.698568403,557.0776326 876.5,577.0 C857.894621,605.083590943 835.69813015,630.568440627 811.262510975,653.750951127"
     fill="none"
     stroke="#d82626"
     stroke-linecap="round"
     stroke-width="5.0"
     id="path3411" />
  <path
     d="M811.262510975 653.750951127 C790.903352622,673.066050077 770.531616596,692.368266353 750.0,711.5 C732.397377212,727.902443961 714.712321121,744.216091872 697.0,760.5 C679.05175003,777.000810456 661.226763716,793.636858104 643.738903394,810.625065274"
     fill="none"
     stroke="#d82626"
     stroke-linecap="round"
     stroke-width="5.0"
     id="path3413" />
  <path
     d="M631.718114815 822.302402751 C609.450934917,843.933377509 584.006349786,862.182441451 555.5,874.5 C524.479391821,887.903966497 490.059433351,889.228825928 456.5,885.5 C417.327614034,881.14751267 378.554762609,873.758240355 340.5,863.5 C309.347205451,855.102290165 278.762190804,840.764716007 262.5,813.0 C244.051294916,781.502210832 234.410088705,745.980061723 226.0,710.5 C216.400864982,670.003649143 210.882008907,628.495853537 213.409258037,586.936645611"
     fill="none"
     stroke="#d82626"
     stroke-linecap="round"
     stroke-width="5.0"
     id="path3415" />
  <path
     d="M213.409258037 586.936645611 C215.58394211,551.175174199 219.0,495.0 227.5,483.0 C232.515971035,475.918629128 239.513841775,470.26794963 248.0,468.5 C259.910509095,466.018643939 271.072852735,472.695213282 281.5,479.0 C297.406056889,488.617615793 311.914498112,500.320198237 325.5,513.0 C340.284212339,526.798598183 355.387896926,540.251297399 370.825974026,553.314285714"
     fill="none"
     stroke="#d82626"
     stroke-linecap="round"
     stroke-width="5.0"
     id="path3417" />
  <path
     d="M383.402944101 563.956337316 C426.0,600.0 554.411391443,730.746144014 638.173629243,816.031331593"
     fill="none"
     stroke="#d82626"
     stroke-linecap="round"
     stroke-width="5.0"
     id="path3419" />
  <path
     d="M638.173629243 816.031331593 C663.568252803,841.887675581 701.0,880.0 719.5,883.0 C732.714486927,885.142889772 746.12943891,885.621886562 759.5,885.0 C775.105983487,884.274140303 790.243044055,879.870129252 804.5,873.5 C817.875617668,867.523660191 830.99426148,860.904016964 843.0,852.5 C855.49854864,843.751015952 863.061810063,830.035721668 869.0,816.0 C875.128662298,801.514070933 881.025691958,786.922924127 886.0,772.0 C892.0,754.0 846.801346083,697.878338053 816.907684289,660.760374659"
     fill="none"
     stroke="#d82626"
     stroke-linecap="round"
     stroke-width="5.0"
     id="path3421" />
  <path
     d="M805.61733766 646.741527595 C781.125148712,616.330392984 754.413876024,587.800384243 726.5,560.5 C701.878121439,536.419261627 677.027268438,512.55696598 651.0,490.0 C621.0,464.0 588.577526387,436.643537889 557.19594336,410.16532721"
     fill="none"
     stroke="#d82626"
     stroke-linecap="round"
     stroke-width="5.0"
     id="path3423" />
  <path
     d="M557.19594336 410.16532721 C540.527651142,396.101455651 523.964911431,381.831351616 509.5,365.5 C501.549763788,356.523926857 493.739138149,347.068350532 490.5,335.5 C487.578796115,325.067128983 488.825816252,314.099145771 491.0,303.5 C494.604962728,285.925806703 493.01545959,267.87560917 490.826710916,250.092026191"
     fill="none"
     stroke="#d82626"
     stroke-linecap="round"
     stroke-width="5.0"
     id="path3425" />
  <path
     d="M489.226710916 237.092026191 C487.179561723,220.458938999 477.746887532,206.094343137 468.0,192.5 C449.0,166.0 394.860111276,146.842808605 352.859365528,131.981006264"
     fill="none"
     stroke="#d82626"
     stroke-linecap="round"
     stroke-width="5.0"
     id="path3427" />
  <text
     xml:space="preserve"
     style="font-style:normal;font-variant:normal;font-weight:normal;font-stretch:normal;font-size:20px;line-height:125%;font-family:'Bitstream Charter';-inkscape-font-specification:'Bitstream Charter, Normal';text-align:start;letter-spacing:0px;word-spacing:0px;writing-mode:lr-tb;text-anchor:start;fill:#000000;fill-opacity:1;stroke:none;stroke-width:1px;stroke-linecap:butt;stroke-linejoin:miter;stroke-opacity:1"
     x="617.33514"
     y="760.22089"
     id="text3435"
     sodipodi:linespacing="125%"><tspan
       sodipodi:role="line"
       id="tspan3437"
       x="617.33514"
       y="760.22089">6_2</tspan></text>
  <text
     xml:space="preserve"
     style="font-style:normal;font-variant:normal;font-weight:normal;font-stretch:normal;font-size:20px;line-height:125%;font-family:'Bitstream Charter';-inkscape-font-specification:'Bitstream Charter, Normal';text-align:start;letter-spacing:0px;word-spacing:0px;writing-mode:lr-tb;text-anchor:start;fill:#000000;fill-opacity:1;stroke:none;stroke-width:1px;stroke-linecap:butt;stroke-linejoin:miter;stroke-opacity:1"
     x="749.39716"
     y="648.70184"
     id="text3439"
     sodipodi:linespacing="125%"><tspan
       sodipodi:role="line"
       id="tspan3441"
       x="749.39716"
       y="648.70184">6_2</tspan></text>
  <text
     xml:space="preserve"
     style="font-style:normal;font-variant:normal;font-weight:normal;font-stretch:normal;font-size:20px;line-height:125%;font-family:'Bitstream Charter';-inkscape-font-specification:'Bitstream Charter, Normal';text-align:start;letter-spacing:0px;word-spacing:0px;writing-mode:lr-tb;text-anchor:start;fill:#000000;fill-opacity:1;stroke:none;stroke-width:1px;stroke-linecap:butt;stroke-linejoin:miter;stroke-opacity:1"
     x="409.94885"
     y="558.70404"
     id="text3443"
     sodipodi:linespacing="125%"><tspan
       sodipodi:role="line"
       id="tspan3445"
       x="409.94885"
       y="558.70404">4_1</tspan></text>
  <text
     xml:space="preserve"
     style="font-style:normal;font-variant:normal;font-weight:normal;font-stretch:normal;font-size:20px;line-height:125%;font-family:'Bitstream Charter';-inkscape-font-specification:'Bitstream Charter, Normal';text-align:start;letter-spacing:0px;word-spacing:0px;writing-mode:lr-tb;text-anchor:start;fill:#000000;fill-opacity:1;stroke:none;stroke-width:1px;stroke-linecap:butt;stroke-linejoin:miter;stroke-opacity:1"
     x="233.86617"
     y="564.57343"
     id="text3447"
     sodipodi:linespacing="125%"><tspan
       sodipodi:role="line"
       id="tspan3449"
       x="233.86617"
       y="564.57343">4_1</tspan></text>
  <text
     xml:space="preserve"
     style="font-style:normal;font-variant:normal;font-weight:normal;font-stretch:normal;font-size:20px;line-height:125%;font-family:'Bitstream Charter';-inkscape-font-specification:'Bitstream Charter, Normal';text-align:start;letter-spacing:0px;word-spacing:0px;writing-mode:lr-tb;text-anchor:start;fill:#000000;fill-opacity:1;stroke:none;stroke-width:1px;stroke-linecap:butt;stroke-linejoin:miter;stroke-opacity:1"
     x="289.62567"
     y="93.06311"
     id="text3451"
     sodipodi:linespacing="125%"><tspan
       sodipodi:role="line"
       id="tspan3453"
       x="289.62567"
       y="93.06311">5_2</tspan></text>
  <text
     xml:space="preserve"
     style="font-style:normal;font-variant:normal;font-weight:normal;font-stretch:normal;font-size:20px;line-height:125%;font-family:'Bitstream Charter';-inkscape-font-specification:'Bitstream Charter, Normal';text-align:start;letter-spacing:0px;word-spacing:0px;writing-mode:lr-tb;text-anchor:start;fill:#000000;fill-opacity:1;stroke:none;stroke-width:1px;stroke-linecap:butt;stroke-linejoin:miter;stroke-opacity:1"
     x="500.92493"
     y="200.6692"
     id="text3455"
     sodipodi:linespacing="125%"><tspan
       sodipodi:role="line"
       id="tspan3457"
       x="500.92493"
       y="200.6692">5_2</tspan></text>
  <text
     xml:space="preserve"
     style="font-style:normal;font-variant:normal;font-weight:normal;font-stretch:normal;font-size:20px;line-height:125%;font-family:'Bitstream Charter';-inkscape-font-specification:'Bitstream Charter, Normal';text-align:start;letter-spacing:0px;word-spacing:0px;writing-mode:lr-tb;text-anchor:start;fill:#000000;fill-opacity:1;stroke:none;stroke-width:1px;stroke-linecap:butt;stroke-linejoin:miter;stroke-opacity:1"
     x="716.13708"
     y="137.08379"
     id="text3459"
     sodipodi:linespacing="125%"><tspan
       sodipodi:role="line"
       id="tspan3461"
       x="716.13708"
       y="137.08379">3_1</tspan></text>
  <text
     xml:space="preserve"
     style="font-style:normal;font-variant:normal;font-weight:normal;font-stretch:normal;font-size:20px;line-height:125%;font-family:'Bitstream Charter';-inkscape-font-specification:'Bitstream Charter, Normal';text-align:start;letter-spacing:0px;word-spacing:0px;writing-mode:lr-tb;text-anchor:start;fill:#000000;fill-opacity:1;stroke:none;stroke-width:1px;stroke-linecap:butt;stroke-linejoin:miter;stroke-opacity:1"
     x="594.83569"
     y="408.05551"
     id="text3463"
     sodipodi:linespacing="125%"><tspan
       sodipodi:role="line"
       id="tspan3465"
       x="594.83569"
       y="408.05551">0</tspan></text>
</svg>
