<?xml version="1.0" encoding="UTF-8" standalone="no"?>
<svg
   xmlns:dc="http://purl.org/dc/elements/1.1/"
   xmlns:cc="http://creativecommons.org/ns#"
   xmlns:rdf="http://www.w3.org/1999/02/22-rdf-syntax-ns#"
   xmlns:svg="http://www.w3.org/2000/svg"
   xmlns="http://www.w3.org/2000/svg"
   xmlns:sodipodi="http://sodipodi.sourceforge.net/DTD/sodipodi-0.dtd"
   xmlns:inkscape="http://www.inkscape.org/namespaces/inkscape"
   height="606.000"
   viewBox="28.000 124.000 856.000 606.000"
   width="856.000"
   id="svg3395"
   version="1.1"
   inkscape:version="0.91 r13725"
   sodipodi:docname="8_3_annotated.svg">
  <metadata
     id="metadata3433">
    <rdf:RDF>
      <cc:Work
         rdf:about="">
        <dc:format>image/svg+xml</dc:format>
        <dc:type
           rdf:resource="http://purl.org/dc/dcmitype/StillImage" />
        <dc:title></dc:title>
      </cc:Work>
    </rdf:RDF>
  </metadata>
  <defs
     id="defs3431" />
  <sodipodi:namedview
     pagecolor="#ffffff"
     bordercolor="#666666"
     borderopacity="1"
     objecttolerance="10"
     gridtolerance="10"
     guidetolerance="10"
     inkscape:pageopacity="0"
     inkscape:pageshadow="2"
     inkscape:window-width="1855"
     inkscape:window-height="1056"
     id="namedview3429"
     showgrid="false"
     inkscape:zoom="1.5165017"
     inkscape:cx="428"
     inkscape:cy="303"
     inkscape:window-x="65"
     inkscape:window-y="24"
     inkscape:window-maximized="1"
     inkscape:current-layer="svg3395" />
  <path
     d="M606.223436966 647.625896823 C562.0,673.0 488.518852872,684.158248268 427.0,693.5 C362.809456475,703.247452906 292.0,714.0 233.5,710.0 C197.260099813,707.522058107 161.357811446,700.686726563 127.5,687.5 C95.816197726,675.159992799 75.8169460407,644.738287036 70.0,611.0 C65.3623395245,584.101569242 60.0,553.0 64.5,530.0 C66.6154923701,519.187483442 69.0,507.0 73.841607565,498.527186761"
     fill="none"
     stroke="#d82626"
     stroke-linecap="round"
     stroke-width="5.0"
     id="path3397" />
  <path
     d="M79.441607565 488.727186761 C88.7653037858,472.410718375 100.012214098,456.569198304 117.0,448.5 C131.343018367,441.687066276 147.806351308,442.325031172 163.0,447.0 C178.634521286,451.810621934 192.24356334,462.135839347 199.0,477.0 C204.682773268,489.50210119 210.010872434,502.177027649 214.17535545,515.265402844"
     fill="none"
     stroke="#d82626"
     stroke-linecap="round"
     stroke-width="5.0"
     id="path3399" />
  <path
     d="M214.17535545 515.265402844 C219.150921212,530.902895238 224.486013445,546.436406092 231.0,561.5 C236.674987788,574.623409261 247.457357289,584.631409944 260.0,591.5 C270.945323285,597.493867513 283.316134511,602.172809103 295.0,598.0 C304.33626591,594.665619318 312.829250124,589.3448067 320.0,582.5 C330.956051514,572.041950827 336.558562209,557.598270641 342.0,543.5 C347.0805236,530.336825217 353.0,515.0 357.136170213,503.970212766"
     fill="none"
     stroke="#d82626"
     stroke-linecap="round"
     stroke-width="5.0"
     id="path3401" />
  <path
     d="M361.33032374 492.785803359 C369.614353077,470.695058461 381.80705545,449.004618493 403.5,440.0 C418.242631591,433.880417075 435.053678882,432.141476062 448.5,440.5 C459.723623788,447.476847219 470.00903449,455.966454555 478.0,466.5 C484.909659205,475.608187135 491.819318411,484.716374269 498.728977616,493.824561404"
     fill="none"
     stroke="#d82626"
     stroke-linecap="round"
     stroke-width="5.0"
     id="path3403" />
  <path
     d="M498.728977616 493.824561404 C509.410474198,507.904715988 520.426799885,521.72601937 531.5,535.5 C544.871039157,552.13226822 557.120304708,569.640514194 568.0,588.0 C578.697295362,606.051685923 589.965938033,623.758504773 601.778749573,641.100717458"
     fill="none"
     stroke="#d82626"
     stroke-linecap="round"
     stroke-width="5.0"
     id="path3405" />
  <path
     d="M611.178749573 654.900717458 C625.883784019,676.488959517 648.596930559,690.703592594 673.0,700.0 C695.24649745,708.474856172 719.563283245,714.105806955 741.5,705.0 C761.207164319,696.819667641 777.111864023,681.988906516 790.0,665.0 C802.772531032,648.163481821 812.747214701,629.025996123 815.0,608.0 C817.316911626,586.375491486 816.124735553,564.581158988 813.5,543.0 C811.274626646,524.70248576 808.732452858,505.682676646 796.828448892,491.563974267"
     fill="none"
     stroke="#d82626"
     stroke-linecap="round"
     stroke-width="5.0"
     id="path3407" />
  <path
     d="M796.828448892 491.563974267 C783.517812204,475.776940056 766.0,455.0 758.5,443.0 C753.549638462,435.079421539 751.178121639,425.834472458 751.5,416.5 C751.788399063,408.136427175 753.965968662,399.771902183 759.5,393.5 C767.0,385.0 776.106934308,375.112471322 784.5,366.0 C794.615836845,355.017091426 803.78798047,343.088792721 810.0,329.5 C813.770520618,321.251986147 818.0,312.0 818.916988569,303.97635002"
     fill="none"
     stroke="#d82626"
     stroke-linecap="round"
     stroke-width="5.0"
     id="path3409" />
  <path
     d="M819.716988569 296.97635002 C822.0,277.0 820.207298903,254.975386521 818.5,234.0 C816.656123126,211.346655542 811.397667289,187.998056074 794.0,173.5 C783.179063013,164.482552511 771.490498087,155.80522556 757.5,154.0 C745.189710095,152.411575496 733.09510768,156.45244616 722.0,162.0 C707.957130708,169.021434646 695.620058961,178.942877013 685.0,190.5 C673.990175004,202.481280143 663.078497342,214.552464537 652.285368803,226.729327504"
     fill="none"
     stroke="#d82626"
     stroke-linecap="round"
     stroke-width="5.0"
     id="path3411" />
  <path
     d="M652.285368803 226.729327504 C634.765966646,246.494806861 622.638552388,270.23747095 613.5,295.0 C604.004137591,320.730723946 594.370230202,346.41051429 584.5,372.0 C574.362663958,398.28198233 559.224593707,422.226818482 542.0,444.5 C529.325564214,460.88935662 513.0,482.0 501.583182093,491.459649123"
     fill="none"
     stroke="#d82626"
     stroke-linecap="round"
     stroke-width="5.0"
     id="path3413" />
  <path
     d="M494.583182093 497.259649123 C482.581130638,507.204206043 470.549617632,517.113134251 458.5,527.0 C447.412387975,536.097527815 433.48136794,541.867972911 419.5,539.0 C407.797097917,536.599404701 396.474602498,532.288155767 387.0,525.0 C377.12242686,517.401866815 367.567226035,509.397261386 358.170212766,501.212765957"
     fill="none"
     stroke="#d82626"
     stroke-linecap="round"
     stroke-width="5.0"
     id="path3415" />
  <path
     d="M358.170212766 501.212765957 C347.375559905,491.81097153 335.038979201,484.398585829 322.0,478.5 C310.752663902,473.411919384 298.593968617,469.497799596 286.5,472.0 C276.216849787,474.12754832 266.785403133,479.055797563 258.5,485.5 C246.353981422,494.946903338 233.386664141,503.258334912 220.34028436,511.412322275"
     fill="none"
     stroke="#d82626"
     stroke-linecap="round"
     stroke-width="5.0"
     id="path3417" />
  <path
     d="M209.14028436 518.412322275 C192.347847981,528.907595012 172.956240573,533.937589754 153.5,537.5 C122.638569039,543.150684542 96.4938841004,520.168898598 75.0520094563,496.408983452"
     fill="none"
     stroke="#d82626"
     stroke-linecap="round"
     stroke-width="5.0"
     id="path3419" />
  <path
     d="M75.0520094563 496.408983452 C58.2054408122,477.741164143 44.1016950045,455.593214714 44.5,430.5 C45.0,399.0 63.5940641553,366.787748013 80.5,337.5 C116.0,276.0 200.378027498,237.962920937 273.5,205.0 C354.810694179,168.345655322 444.726638251,139.576446789 527.0,173.0 C567.095344055,189.288733522 623.0,212.0 646.428295042,223.783462004"
     fill="none"
     stroke="#d82626"
     stroke-linecap="round"
     stroke-width="5.0"
     id="path3421" />
  <path
     d="M660.325675871 230.773268929 C712.464855255,256.997116548 792.0,297.0 819.146235711,301.970437525"
     fill="none"
     stroke="#d82626"
     stroke-linecap="round"
     stroke-width="5.0"
     id="path3423" />
  <path
     d="M819.146235711 301.970437525 C839.335876283,305.667132277 863.0,310.0 865.0,328.0 C866.457653024,341.118877212 867.193126943,354.304458538 867.5,367.5 C867.917179582,385.438722011 860.657541537,402.308205965 852.0,418.0 C843.381066546,433.621816885 834.679660733,449.200565445 825.5,464.5 C819.299157725,474.834737125 811.133493656,484.035003339 800.462759114,489.651179414"
     fill="none"
     stroke="#d82626"
     stroke-linecap="round"
     stroke-width="5.0"
     id="path3425" />
  <path
     d="M792.862759114 493.651179414 C779.905504059,500.470787337 770.052579709,511.636744274 761.5,523.5 C748.281731537,541.835017545 731.650561192,557.299518979 714.5,572.0 C694.966206727,588.743251377 674.572651743,604.477776367 653.0,618.5 C637.596875179,628.512031133 622.158768547,638.482673784 606.223436966,647.625896823"
     fill="none"
     stroke="#d82626"
     stroke-linecap="round"
     stroke-width="5.0"
     id="path3427" />
  <text
     xml:space="preserve"
     style="font-style:normal;font-variant:normal;font-weight:normal;font-stretch:normal;font-size:40px;line-height:125%;font-family:'Bitstream Charter';-inkscape-font-specification:'Bitstream Charter, Normal';text-align:start;letter-spacing:0px;word-spacing:0px;writing-mode:lr-tb;text-anchor:start;fill:#000000;fill-opacity:1;stroke:none;stroke-width:1px;stroke-linecap:butt;stroke-linejoin:miter;stroke-opacity:1"
     x="66.245918"
     y="444.47443"
     id="text3435"
     sodipodi:linespacing="125%"><tspan
       sodipodi:role="line"
       id="tspan3437"
       x="66.245918"
       y="444.47443">6_1</tspan></text>
  <text
     xml:space="preserve"
     style="font-style:normal;font-variant:normal;font-weight:normal;font-stretch:normal;font-size:40px;line-height:125%;font-family:'Bitstream Charter';-inkscape-font-specification:'Bitstream Charter, Normal';text-align:start;letter-spacing:0px;word-spacing:0px;writing-mode:lr-tb;text-anchor:start;fill:#000000;fill-opacity:1;stroke:none;stroke-width:1px;stroke-linecap:butt;stroke-linejoin:miter;stroke-opacity:1"
     x="637.29706"
     y="203.78891"
     id="text3439"
     sodipodi:linespacing="125%"><tspan
       sodipodi:role="line"
       id="tspan3441"
       x="637.29706"
       y="203.78891">6_1</tspan></text>
  <text
     xml:space="preserve"
     style="font-style:normal;font-variant:normal;font-weight:normal;font-stretch:normal;font-size:40px;line-height:125%;font-family:'Bitstream Charter';-inkscape-font-specification:'Bitstream Charter, Normal';text-align:start;letter-spacing:0px;word-spacing:0px;writing-mode:lr-tb;text-anchor:start;fill:#000000;fill-opacity:1;stroke:none;stroke-width:1px;stroke-linecap:butt;stroke-linejoin:miter;stroke-opacity:1"
     x="742.80304"
     y="312.59195"
     id="text3443"
     sodipodi:linespacing="125%"><tspan
       sodipodi:role="line"
       id="tspan3445"
       x="742.80304"
       y="312.59195">6_1</tspan></text>
  <text
     xml:space="preserve"
     style="font-style:normal;font-variant:normal;font-weight:normal;font-stretch:normal;font-size:40px;line-height:125%;font-family:'Bitstream Charter';-inkscape-font-specification:'Bitstream Charter, Normal';text-align:start;letter-spacing:0px;word-spacing:0px;writing-mode:lr-tb;text-anchor:start;fill:#000000;fill-opacity:1;stroke:none;stroke-width:1px;stroke-linecap:butt;stroke-linejoin:miter;stroke-opacity:1"
     x="740.82483"
     y="484.69858"
     id="text3447"
     sodipodi:linespacing="125%"><tspan
       sodipodi:role="line"
       id="tspan3449"
       x="740.82483"
       y="484.69858">6_1</tspan></text>
  <text
     xml:space="preserve"
     style="font-style:normal;font-variant:normal;font-weight:normal;font-stretch:normal;font-size:40px;line-height:125%;font-family:'Bitstream Charter';-inkscape-font-specification:'Bitstream Charter, Normal';text-align:start;letter-spacing:0px;word-spacing:0px;writing-mode:lr-tb;text-anchor:start;fill:#000000;fill-opacity:1;stroke:none;stroke-width:1px;stroke-linecap:butt;stroke-linejoin:miter;stroke-opacity:1"
     x="602.34821"
     y="604.71167"
     id="text3451"
     sodipodi:linespacing="125%"><tspan
       sodipodi:role="line"
       id="tspan3453"
       x="602.34821"
       y="604.71167">6_1</tspan></text>
  <text
     xml:space="preserve"
     style="font-style:normal;font-variant:normal;font-weight:normal;font-stretch:normal;font-size:40px;line-height:125%;font-family:'Bitstream Charter';-inkscape-font-specification:'Bitstream Charter, Normal';text-align:start;letter-spacing:0px;word-spacing:0px;writing-mode:lr-tb;text-anchor:start;fill:#000000;fill-opacity:1;stroke:none;stroke-width:1px;stroke-linecap:butt;stroke-linejoin:miter;stroke-opacity:1"
     x="541.02283"
     y="507.11862"
     id="text3455"
     sodipodi:linespacing="125%"><tspan
       sodipodi:role="line"
       id="tspan3457"
       x="541.02283"
       y="507.11862">6_1</tspan></text>
  <text
     xml:space="preserve"
     style="font-style:normal;font-variant:normal;font-weight:normal;font-stretch:normal;font-size:40px;line-height:125%;font-family:'Bitstream Charter';-inkscape-font-specification:'Bitstream Charter, Normal';text-align:start;letter-spacing:0px;word-spacing:0px;writing-mode:lr-tb;text-anchor:start;fill:#000000;fill-opacity:1;stroke:none;stroke-width:1px;stroke-linecap:butt;stroke-linejoin:miter;stroke-opacity:1"
     x="349.13385"
     y="451.72797"
     id="text3459"
     sodipodi:linespacing="125%"><tspan
       sodipodi:role="line"
       id="tspan3461"
       x="349.13385"
       y="451.72797">6_1</tspan></text>
  <text
     xml:space="preserve"
     style="font-style:normal;font-variant:normal;font-weight:normal;font-stretch:normal;font-size:40px;line-height:125%;font-family:'Bitstream Charter';-inkscape-font-specification:'Bitstream Charter, Normal';text-align:start;letter-spacing:0px;word-spacing:0px;writing-mode:lr-tb;text-anchor:start;fill:#000000;fill-opacity:1;stroke:none;stroke-width:1px;stroke-linecap:butt;stroke-linejoin:miter;stroke-opacity:1"
     x="218.57018"
     y="466.23505"
     id="text3463"
     sodipodi:linespacing="125%"><tspan
       sodipodi:role="line"
       id="tspan3465"
       x="218.57018"
       y="466.23505">6_1</tspan></text>
</svg>
