<?xml version="1.0" encoding="UTF-8" standalone="no"?>
<svg
   xmlns:dc="http://purl.org/dc/elements/1.1/"
   xmlns:cc="http://creativecommons.org/ns#"
   xmlns:rdf="http://www.w3.org/1999/02/22-rdf-syntax-ns#"
   xmlns:svg="http://www.w3.org/2000/svg"
   xmlns="http://www.w3.org/2000/svg"
   xmlns:sodipodi="http://sodipodi.sourceforge.net/DTD/sodipodi-0.dtd"
   xmlns:inkscape="http://www.inkscape.org/namespaces/inkscape"
   height="788.000"
   viewBox="84.000 52.000 758.000 788.000"
   width="758.000"
   id="svg3395"
   version="1.1"
   inkscape:version="0.91 r13725"
   sodipodi:docname="8_4_annotated.svg">
  <metadata
     id="metadata3433">
    <rdf:RDF>
      <cc:Work
         rdf:about="">
        <dc:format>image/svg+xml</dc:format>
        <dc:type
           rdf:resource="http://purl.org/dc/dcmitype/StillImage" />
        <dc:title></dc:title>
      </cc:Work>
    </rdf:RDF>
  </metadata>
  <defs
     id="defs3431" />
  <sodipodi:namedview
     pagecolor="#ffffff"
     bordercolor="#666666"
     borderopacity="1"
     objecttolerance="10"
     gridtolerance="10"
     guidetolerance="10"
     inkscape:pageopacity="0"
     inkscape:pageshadow="2"
     inkscape:window-width="1855"
     inkscape:window-height="1056"
     id="namedview3429"
     showgrid="false"
     inkscape:zoom="1.1662437"
     inkscape:cx="379"
     inkscape:cy="394"
     inkscape:window-x="65"
     inkscape:window-y="24"
     inkscape:window-maximized="1"
     inkscape:current-layer="svg3395" />
  <path
     d="M393.335015803 316.1918015 C335.775264454,350.105384727 246.0,403.0 221.0,418.5 C207.958528016,426.58571263 194.989476206,434.86002025 183.299833611,444.808652246"
     fill="none"
     stroke="#d82626"
     stroke-linecap="round"
     stroke-width="5.0"
     id="path3397" />
  <path
     d="M173.899833611 452.808652246 C158.098494426,466.256600489 144.371009721,482.02358315 134.0,500.0 C123.166428779,518.778190117 116.661436387,539.641621077 113.0,561.0 C107.931055388,590.568843569 112.018934899,620.638407687 118.0,650.0 C126.56815251,692.061839596 151.882317555,727.971951725 181.5,759.0 C234.0,814.0 331.548846179,816.679913357 416.0,819.0 C506.153243823,821.476737468 598.150069194,823.942281079 682.5,791.5 C724.971328159,775.164873785 766.797089698,747.941388552 766.0,704.5 C765.38380528,670.91738776 762.365929792,637.384190056 755.5,604.5 C749.333838063,574.967329669 743.086382575,545.451678972 736.743331876,515.956493223"
     fill="none"
     stroke="#d82626"
     stroke-linecap="round"
     stroke-width="5.0"
     id="path3399" />
  <path
     d="M736.743331876 515.956493223 C731.676719163,492.396744107 726.0,466.0 708.0,452.5 C695.786269216,443.339701912 680.075490281,454.777425707 670.5,470.0 C660.471340969,485.942996408 650.634603795,502.182164193 645.066988284,520.195037905"
     fill="none"
     stroke="#d82626"
     stroke-linecap="round"
     stroke-width="5.0"
     id="path3401" />
  <path
     d="M641.666988284 531.195037905 C636.042422605,549.39216216 629.520822323,567.29531762 622.5,585.0 C616.223033059,600.828873154 609.451419194,616.507226067 600.5,631.0 C593.840780851,641.781592907 582.169279021,648.381986389 569.5,649.0 C554.875935722,649.713368989 540.435601158,646.301736864 527.0,640.5 C509.687732837,633.024248271 494.428595791,621.717791426 480.268200441,609.284273558"
     fill="none"
     stroke="#d82626"
     stroke-linecap="round"
     stroke-width="5.0"
     id="path3403" />
  <path
     d="M480.268200441 609.284273558 C469.540133349,599.86450733 458.274480897,591.073929758 446.5,583.0 C437.231256972,576.644290495 427.991072952,570.243304714 419.0,563.5 C410.531871411,557.148903558 400.931929835,552.569481977 391.196978852,548.43021148"
     fill="none"
     stroke="#d82626"
     stroke-linecap="round"
     stroke-width="5.0"
     id="path3405" />
  <path
     d="M378.463832321 543.01611768 C334.162645149,524.179392426 282.0,502.0 246.0,485.5 C222.903563689,474.914133358 200.751668152,462.347691127 180.124792013,447.510815308"
     fill="none"
     stroke="#d82626"
     stroke-linecap="round"
     stroke-width="5.0"
     id="path3407" />
  <path
     d="M180.124792013 447.510815308 C163.467363129,435.529155935 147.886474342,422.057253965 134.5,406.5 C118.988705673,388.473360648 111.865562913,365.246578363 107.0,342.0 C100.411861839,310.523339897 101.98602976,278.07334376 108.0,246.5 C113.820076654,215.944597565 126.764124443,186.584202395 150.5,166.5 C181.980353908,139.862777463 222.07342933,127.302858736 261.5,115.5 C320.045565003,97.9736206678 380.324802865,87.2089343131 441.0,80.0 C487.722362434,74.4488282257 542.0,68.0 581.5,72.0 C605.449408748,74.4252565821 628.976177421,80.8976528022 649.5,93.5 C667.189975048,104.36226538 681.525719696,120.134819213 689.0,139.5 C698.954267267,165.290601556 704.047518743,192.574220939 708.53760394,219.835452491"
     fill="none"
     stroke="#d82626"
     stroke-linecap="round"
     stroke-width="5.0"
     id="path3409" />
  <path
     d="M710.800200225 233.572644225 C714.0,253.0 706.514244265,273.392231142 699.5,292.5 C692.668787562,311.109164917 685.0,332.0 666.5,336.5 C652.683192134,339.860845157 638.576199915,335.082730179 626.5,327.5 C605.0,314.0 593.179380132,285.381657162 582.646033929,259.879871619"
     fill="none"
     stroke="#d82626"
     stroke-linecap="round"
     stroke-width="5.0"
     id="path3411" />
  <path
     d="M582.646033929 259.879871619 C575.100351746,241.611377913 567.0,222.0 550.5,212.0 C534.0,202.0 512.502427806,202.259006894 492.5,202.5 C472.231695326,202.744196442 450.540568898,203.475273554 436.5,218.0 C425.489236427,229.390445075 416.07962419,242.18679005 407.5,255.5 C397.367122939,271.223429922 393.103969814,289.852558763 393.268012642,308.5534412"
     fill="none"
     stroke="#d82626"
     stroke-linecap="round"
     stroke-width="5.0"
     id="path3413" />
  <path
     d="M393.413960134 325.19145526 C393.694140894,357.132061866 394.0,392.0 395.0,421.0 C395.759556626,443.027142143 394.57538138,465.060253978 392.5,487.0 C390.62231592,506.849803131 388.730170796,526.698292037 386.746223565,546.53776435"
     fill="none"
     stroke="#d82626"
     stroke-linecap="round"
     stroke-width="5.0"
     id="path3415" />
  <path
     d="M386.746223565 546.53776435 C384.8289048,565.710952003 383.979133063,585.725139206 393.5,602.5 C400.957347447,615.639135979 415.433686705,622.510109565 430.5,624.5 C446.542125047,626.618771233 463.022070949,623.156160323 475.614560353,613.027418847"
     fill="none"
     stroke="#d82626"
     stroke-linecap="round"
     stroke-width="5.0"
     id="path3417" />
  <path
     d="M484.814560353 605.627418847 C493.819765498,598.384101665 503.0,591.0 511.5,583.5 C520.0,576.0 529.058315756,568.703023419 538.0,561.5 C550.513249365,551.419882456 564.605661391,543.521115608 579.5,537.5 C599.816741073,529.286849354 621.751910541,526.61096959 643.583735355,524.993797381"
     fill="none"
     stroke="#d82626"
     stroke-linecap="round"
     stroke-width="5.0"
     id="path3419" />
  <path
     d="M643.583735355 524.993797381 C671.709055999,522.910440296 699.78290963,520.191541605 727.801838419,516.981039348"
     fill="none"
     stroke="#d82626"
     stroke-linecap="round"
     stroke-width="5.0"
     id="path3421" />
  <path
     d="M745.394665501 514.965194578 C762.310686989,513.026900449 780.0,511.0 793.0,500.0 C805.629784325,489.313259417 811.279005159,473.162984522 816.5,457.5 C823.997438926,435.007683222 825.841082195,411.127221503 824.0,387.5 C822.46844945,367.845101269 820.783713313,348.134853254 816.0,329.0 C811.0,309.0 798.301286927,289.044879457 786.5,270.5 C770.032593957,244.622647647 740.732492532,230.656789002 710.000250282,228.715805281"
     fill="none"
     stroke="#d82626"
     stroke-linecap="round"
     stroke-width="5.0"
     id="path3423" />
  <path
     d="M710.000250282 228.715805281 C668.744858692,226.110201602 629.277578553,241.150808614 590.997594749,256.525556207"
     fill="none"
     stroke="#d82626"
     stroke-linecap="round"
     stroke-width="5.0"
     id="path3425" />
  <path
     d="M575.116827144 262.903897295 C547.256606104,274.093658204 517.594268946,279.567621842 488.0,284.5 C454.904920217,290.01584663 422.263597433,299.147393945 393.335015803,316.1918015"
     fill="none"
     stroke="#d82626"
     stroke-linecap="round"
     stroke-width="5.0"
     id="path3427" />
  <text
     xml:space="preserve"
     style="font-style:normal;font-variant:normal;font-weight:normal;font-stretch:normal;font-size:40px;line-height:125%;font-family:'Bitstream Charter';-inkscape-font-specification:'Bitstream Charter, Normal';text-align:start;letter-spacing:0px;word-spacing:0px;writing-mode:lr-tb;text-anchor:start;fill:#000000;fill-opacity:1;stroke:none;stroke-width:1px;stroke-linecap:butt;stroke-linejoin:miter;stroke-opacity:1"
     x="121.72797"
     y="451.57346"
     id="text3435"
     sodipodi:linespacing="125%"><tspan
       sodipodi:role="line"
       id="tspan3437"
       x="121.72797"
       y="451.57346">4_1</tspan></text>
  <text
     xml:space="preserve"
     style="font-style:normal;font-variant:normal;font-weight:normal;font-stretch:normal;font-size:40px;line-height:125%;font-family:'Bitstream Charter';-inkscape-font-specification:'Bitstream Charter, Normal';text-align:start;letter-spacing:0px;word-spacing:0px;writing-mode:lr-tb;text-anchor:start;fill:#000000;fill-opacity:1;stroke:none;stroke-width:1px;stroke-linecap:butt;stroke-linejoin:miter;stroke-opacity:1"
     x="418.40695"
     y="319.52557"
     id="text3439"
     sodipodi:linespacing="125%"><tspan
       sodipodi:role="line"
       id="tspan3441"
       x="418.40695"
       y="319.52557">6_1</tspan></text>
  <text
     xml:space="preserve"
     style="font-style:normal;font-variant:normal;font-weight:normal;font-stretch:normal;font-size:40px;line-height:125%;font-family:'Bitstream Charter';-inkscape-font-specification:'Bitstream Charter, Normal';text-align:start;letter-spacing:0px;word-spacing:0px;writing-mode:lr-tb;text-anchor:start;fill:#000000;fill-opacity:1;stroke:none;stroke-width:1px;stroke-linecap:butt;stroke-linejoin:miter;stroke-opacity:1"
     x="586.4679"
     y="236.35255"
     id="text3443"
     sodipodi:linespacing="125%"><tspan
       sodipodi:role="line"
       id="tspan3445"
       x="586.4679"
       y="236.35255">6_1</tspan></text>
  <text
     xml:space="preserve"
     style="font-style:normal;font-variant:normal;font-weight:normal;font-stretch:normal;font-size:40px;line-height:125%;font-family:'Bitstream Charter';-inkscape-font-specification:'Bitstream Charter, Normal';text-align:start;letter-spacing:0px;word-spacing:0px;writing-mode:lr-tb;text-anchor:start;fill:#000000;fill-opacity:1;stroke:none;stroke-width:1px;stroke-linecap:butt;stroke-linejoin:miter;stroke-opacity:1"
     x="725.37543"
     y="219.20348"
     id="text3447"
     sodipodi:linespacing="125%"><tspan
       sodipodi:role="line"
       id="tspan3449"
       x="725.37543"
       y="219.20348">6_1</tspan></text>
  <text
     xml:space="preserve"
     style="font-style:normal;font-variant:normal;font-weight:normal;font-stretch:normal;font-size:40px;line-height:125%;font-family:'Bitstream Charter';-inkscape-font-specification:'Bitstream Charter, Normal';text-align:start;letter-spacing:0px;word-spacing:0px;writing-mode:lr-tb;text-anchor:start;fill:#000000;fill-opacity:1;stroke:none;stroke-width:1px;stroke-linecap:butt;stroke-linejoin:miter;stroke-opacity:1"
     x="411.54733"
     y="542.46356"
     id="text3451"
     sodipodi:linespacing="125%"><tspan
       sodipodi:role="line"
       id="tspan3453"
       x="411.54733"
       y="542.46356">6_2</tspan></text>
  <text
     xml:space="preserve"
     style="font-style:normal;font-variant:normal;font-weight:normal;font-stretch:normal;font-size:40px;line-height:125%;font-family:'Bitstream Charter';-inkscape-font-specification:'Bitstream Charter, Normal';text-align:start;letter-spacing:0px;word-spacing:0px;writing-mode:lr-tb;text-anchor:start;fill:#000000;fill-opacity:1;stroke:none;stroke-width:1px;stroke-linecap:butt;stroke-linejoin:miter;stroke-opacity:1"
     x="624.19586"
     y="509.02286"
     id="text3455"
     sodipodi:linespacing="125%"><tspan
       sodipodi:role="line"
       id="tspan3457"
       x="624.19586"
       y="509.02286">6_2</tspan></text>
  <text
     xml:space="preserve"
     style="font-style:normal;font-variant:normal;font-weight:normal;font-stretch:normal;font-size:40px;line-height:125%;font-family:'Bitstream Charter';-inkscape-font-specification:'Bitstream Charter, Normal';text-align:start;letter-spacing:0px;word-spacing:0px;writing-mode:lr-tb;text-anchor:start;fill:#000000;fill-opacity:1;stroke:none;stroke-width:1px;stroke-linecap:butt;stroke-linejoin:miter;stroke-opacity:1"
     x="750.24158"
     y="497.87595"
     id="text3459"
     sodipodi:linespacing="125%"><tspan
       sodipodi:role="line"
       id="tspan3461"
       x="750.24158"
       y="497.87595">6_2</tspan></text>
  <text
     xml:space="preserve"
     style="font-style:normal;font-variant:normal;font-weight:normal;font-stretch:normal;font-size:40px;line-height:125%;font-family:'Bitstream Charter';-inkscape-font-specification:'Bitstream Charter, Normal';text-align:start;letter-spacing:0px;word-spacing:0px;writing-mode:lr-tb;text-anchor:start;fill:#000000;fill-opacity:1;stroke:none;stroke-width:1px;stroke-linecap:butt;stroke-linejoin:miter;stroke-opacity:1"
     x="479.28619"
     y="588.76605"
     id="text3463"
     sodipodi:linespacing="125%"><tspan
       sodipodi:role="line"
       id="tspan3465"
       x="479.28619"
       y="588.76605">6_2</tspan></text>
</svg>
