<?xml version="1.0" ?><!DOCTYPE svg  PUBLIC '-//W3C//DTD SVG 1.1//EN'  'http://www.w3.org/Graphics/SVG/1.1/DTD/svg11.dtd'><svg height="748.000" viewBox="94.000 173.000 828.000 748.000" width="828.000" xmlns="http://www.w3.org/2000/svg"><path d="M537.433336657 500.501641306 C520.469974567,490.490476793 501.0,479.0 489.5,466.5 C478.0,454.0 440.123079631,436.676447273 413.5,424.5 C380.647583827,409.474476324 347.434966952,394.682763571 312.0,387.5 C287.20041623,382.473057344 262.299740187,377.958886816 237.316402459,373.943707538" fill="none" stroke="#d82626" stroke-linecap="round" stroke-width="5.0"/><path d="M237.316402459 373.943707538 C223.809008782,371.772876411 210.166235409,370.60738824 196.5,370.0 C180.100521034,369.271134268 164.334424105,375.169516529 150.5,384.0 C137.660040201,392.195719021 125.483856596,401.943101902 118.5,415.5 C112.088739142,427.945388724 110.0,442.010959511 110.0,456.0 C110.0,477.667547704 110.235781866,499.334113046 110.5,521.0 C110.742716834,540.902780383 111.0,562.0 117.0,580.0 C123.0,598.0 145.542867064,627.676685755 162.5,650.0 C181.025735812,674.388310436 202.0,702.0 229.5,708.0 C247.90736061,712.016151406 266.736368625,713.747107308 285.569989507,713.25792235" fill="none" stroke="#d82626" stroke-linecap="round" stroke-width="5.0"/><path d="M300.969989507 712.85792235 C321.566154534,712.322957025 342.094792501,709.831752009 362.0,704.5 C381.477831016,699.282723835 398.014794626,686.834894621 410.5,671.0 C421.702413792,656.792060557 430.211370498,639.817577558 427.5,622.0 C425.661830912,609.920603139 422.502745613,597.59934267 413.580526842,589.252750917" fill="none" stroke="#d82626" stroke-linecap="round" stroke-width="5.0"/><path d="M413.580526842 589.252750917 C400.131224512,576.671145512 386.110418748,564.712646946 371.5,553.5 C354.708962438,540.613854894 338.894533497,526.523144808 323.5,512.0 C306.364602527,495.834530685 290.693163835,478.170429369 277.0,459.0 C267.2440868,445.34172152 257.0,431.0 248.5,417.5 C241.462453802,406.322720745 239.026263062,393.094146299 237.853121967,379.95496603" fill="none" stroke="#d82626" stroke-linecap="round" stroke-width="5.0"/><path d="M236.853121967 368.75496603 C235.493455363,353.526700069 235.978974803,338.210251968 237.5,323.0 C238.999319979,308.006800214 243.671573877,293.339925464 253.0,281.5 C266.0,265.0 297.500299111,249.667996008 322.5,237.5 C361.738215271,218.401753629 403.879943704,206.158243987 447.0,199.5 C480.155835429,194.380348941 515.0,189.0 547.0,191.0 C566.935960126,192.245997508 586.238764985,199.112734876 601.5,212.0 C622.42527593,229.670233008 638.264738144,252.276219605 653.5,275.0 C671.471712027,301.805265396 686.158676863,330.810704793 694.5,362.0 C699.912212793,382.236969576 706.0,405.0 711.97484591,422.346326837" fill="none" stroke="#d82626" stroke-linecap="round" stroke-width="5.0"/><path d="M711.97484591 422.346326837 C725.861606929,462.662729795 737.606792395,503.928516664 740.5,546.5 C742.284341798,572.755315022 743.978731661,599.042148603 743.441710214,625.356199525" fill="none" stroke="#d82626" stroke-linecap="round" stroke-width="5.0"/><path d="M743.118502535 641.193375772 C742.27626038,682.46324136 741.0,745.0 741.5,765.0 C741.891583184,780.663327369 742.0,796.331864424 742.0,812.0 C742.0,833.68733267 725.531381347,850.456430367 707.5,863.0 C685.769546588,878.116837156 661.72805268,889.741825024 636.0,896.0 C615.34167333,901.024998379 594.241695648,904.725482441 573.0,903.5 C547.0,902.0 516.130835501,895.459922776 488.0,889.5 C460.515427721,883.676997399 429.0,877.0 409.5,862.0 C392.265636155,848.742797043 377.405408429,832.772776189 363.0,816.5 C346.341756138,797.682354155 330.346842576,778.278614251 315.5,758.0 C305.418716421,744.230441941 295.0,730.0 292.712486884,713.072402938" fill="none" stroke="#d82626" stroke-linecap="round" stroke-width="5.0"/><path d="M292.712486884 713.072402938 C290.462526835,696.422698578 296.209718617,680.120583608 303.5,665.0 C312.932886402,645.43549487 329.890822832,630.852069111 349.5,621.5 C368.935037084,612.230982314 388.241312175,602.690213241 407.264421474,592.602200734" fill="none" stroke="#d82626" stroke-linecap="round" stroke-width="5.0"/><path d="M420.464421474 585.602200734 C437.205260146,576.724483256 453.213081478,566.455262301 467.5,554.0 C487.0,537.0 518.27700013,519.83916807 545.184203822,505.075923567" fill="none" stroke="#d82626" stroke-linecap="round" stroke-width="5.0"/><path d="M545.184203822 505.075923567 C573.176376604,489.717386288 601.139892873,474.267211724 628.0,457.0 C651.090705323,442.15597515 677.057420117,432.734982445 703.3485452,424.912829527" fill="none" stroke="#d82626" stroke-linecap="round" stroke-width="5.0"/><path d="M720.60114662 419.779824146 C759.866248165,408.097645174 801.701309844,411.363435617 840.5,424.5 C870.671311197,434.715483319 904.054758057,447.752257832 905.0,478.0 C905.704198882,500.534364208 902.062544058,522.937355237 895.5,544.5 C889.204727216,565.18446772 876.458907045,583.658777975 857.5,594.0 C838.87249629,604.160456569 819.459464498,612.801504607 799.5,620.0 C781.369622911,626.538824524 762.563942191,631.299351526 743.302137767,632.195249406" fill="none" stroke="#d82626" stroke-linecap="round" stroke-width="5.0"/><path d="M743.302137767 632.195249406 C726.134073396,632.993764028 711.632227568,621.967603311 698.0,611.5 C680.59481074,598.135301104 663.387656588,584.51316185 646.5,570.5 C623.0,551.0 585.026352791,528.589322959 552.935070986,509.650205828" fill="none" stroke="#d82626" stroke-linecap="round" stroke-width="5.0"/></svg>