<?xml version="1.0" ?><!DOCTYPE svg  PUBLIC '-//W3C//DTD SVG 1.1//EN'  'http://www.w3.org/Graphics/SVG/1.1/DTD/svg11.dtd'><svg height="624.000" viewBox="30.000 110.000 828.000 624.000" width="828.000" xmlns="http://www.w3.org/2000/svg"><path d="M351.633744856 389.0781893 C324.236559526,381.147425126 295.714864241,376.128683005 267.5,380.5 C245.818968247,383.859033088 224.479343212,389.418480358 204.5,398.5 C186.467294597,406.696684274 166.812519191,410.720890937 147.011364434,410.178393546" fill="none" stroke="#d82626" stroke-linecap="round" stroke-width="5.0"/><path d="M132.411364434 409.778393546 C118.759583149,409.404372141 104.0,409.0 92.0,413.5 C80.0,418.0 71.1360619305,429.731682739 63.0,440.5 C53.3757265788,453.23800894 46.1201034327,468.044344173 46.5,484.0 C46.8403008242,498.292634615 52.0732404161,511.952218348 60.5,523.5 C68.6505321084,534.669247704 78.5108413913,544.597151104 90.5,551.5 C107.0,561.0 127.280497081,563.749897909 146.651410874,566.376462491" fill="none" stroke="#d82626" stroke-linecap="round" stroke-width="5.0"/><path d="M146.651410874 566.376462491 C158.565243038,567.991897361 170.667125775,568.151431677 182.5,566.0 C199.0,563.0 227.957715079,554.846856919 250.5,548.5 C274.550569385,541.728480465 302.0,534.0 308.5,511.5 C312.743810191,496.8098878 317.556493189,482.289205378 323.0,468.0 C328.150081785,454.481035314 332.398102281,440.630867388 335.5,426.5 C338.149243315,414.431224897 342.302138783,402.651434498 349.306995885,392.46255144" fill="none" stroke="#d82626" stroke-linecap="round" stroke-width="5.0"/><path d="M353.706995885 386.06255144 C359.006222215,378.354585869 364.742349477,370.952945025 371.0,364.0 C380.0,354.0 407.361921649,347.951575214 427.5,343.5 C446.982686421,339.193300896 475.0,333.0 483.5,339.5 C491.453571061,345.582142576 494.248191916,355.74216497 496.5,365.5 C498.900205129,375.900888892 501.135682465,386.356824647 502.198051948,396.980519481" fill="none" stroke="#d82626" stroke-linecap="round" stroke-width="5.0"/><path d="M502.198051948 396.980519481 C503.941121662,414.411216616 506.271603243,431.781883963 509.5,449.0 C511.929197272,461.955718786 514.25781855,474.933639128 516.0,488.0 C517.253719383,497.402895371 518.866889566,506.756521453 521.0,516.0 C523.383254464,526.327436012 527.648647461,536.082668601 532.5,545.5 C537.511582922,555.228366849 544.277325803,564.097488514 553.5,570.0 C563.48780365,576.392194336 574.649037376,580.594711213 586.0,584.0 C603.201600108,589.160480032 620.76913975,592.95382795 638.377358491,596.475471698" fill="none" stroke="#d82626" stroke-linecap="round" stroke-width="5.0"/><path d="M652.377358491 599.275471698 C674.465248693,603.693049739 697.006761821,604.96582813 719.5,606.0 C738.210234494,606.860240666 763.0,608.0 775.0,603.5 C782.642586464,600.634030076 789.57630539,596.101656436 795.0,590.0 C800.854681485,583.41348333 805.176624138,575.657377116 808.5,567.5 C812.770115477,557.018807465 814.632525189,545.777172538 815.5,534.5 C816.58850545,520.349429145 816.229330179,506.13729706 815.0,492.0 C813.818899744,478.417347053 812.174069316,464.87034658 809.5,451.5 C806.525295756,436.626478779 803.290398522,421.80679335 800.0,407.0 C797.014285307,393.564283882 793.973285963,379.954920063 786.945787067,368.096015676" fill="none" stroke="#d82626" stroke-linecap="round" stroke-width="5.0"/><path d="M786.945787067 368.096015676 C782.197549015,360.083363963 777.371664976,352.109858716 772.0,344.5 C766.054722992,336.077524239 760.276427947,327.5390674 754.5,319.0 C745.745610421,306.058728449 737.098200812,293.045546059 728.5,280.0 C721.019845741,268.650800434 713.378900438,257.34784546 704.0,247.5 C696.474539916,239.598266912 687.937202065,232.756041445 679.0,226.5 C669.366592551,219.756614786 659.375971217,213.533851316 649.0,208.0 C641.22733275,203.854577467 633.470624713,199.669140446 626.0,195.0 C618.965857265,190.603660791 611.127163775,187.758857753 603.246659117,185.189127973" fill="none" stroke="#d82626" stroke-linecap="round" stroke-width="5.0"/><path d="M594.046659117 182.189127973 C572.0,175.0 526.005228022,173.571590932 491.5,172.5 C455.936235975,171.395535279 411.0,170.0 385.0,174.0 C363.292537711,177.339609583 342.243795657,183.808817506 321.5,191.0 C294.303984464,200.427952052 267.865310284,211.875265218 242.0,224.5 C215.657374765,237.357709936 193.081251654,257.067584324 178.5,282.5 C166.159021912,304.024961781 155.298424348,326.487257175 149.0,350.5 C143.893516402,369.968468718 140.545101948,389.870512023 139.514205542,409.972991933" fill="none" stroke="#d82626" stroke-linecap="round" stroke-width="5.0"/><path d="M139.514205542 409.972991933 C138.19802984,435.638418118 137.16858425,461.360179502 139.0,487.0 C140.680306552,510.524291733 143.088681789,533.98801626 145.667346562,557.430423288" fill="none" stroke="#d82626" stroke-linecap="round" stroke-width="5.0"/><path d="M147.635475186 575.322501695 C150.085598022,597.596345654 153.666540211,619.814449498 161.0,641.0 C168.230547362,661.888247936 185.439057376,676.989978302 204.0,689.0 C236.420994349,709.978290461 276.029681124,713.237040066 314.5,715.5 C364.310910843,718.430053579 414.269427654,718.087444302 464.0,714.0 C499.887343125,711.05035536 537.0,708.0 567.0,688.0 C597.0,668.0 623.16530631,631.027284561 646.471698113,598.094339623" fill="none" stroke="#d82626" stroke-linecap="round" stroke-width="5.0"/><path d="M646.471698113 598.094339623 C672.410529425,561.441643203 693.824926788,521.59524892 706.5,478.5 C718.814322563,436.631303286 746.018767055,401.193518817 779.947749881,373.755297922" fill="none" stroke="#d82626" stroke-linecap="round" stroke-width="5.0"/><path d="M793.943824253 362.43673343 C815.007718436,345.402453787 839.0,326.0 840.5,301.0 C841.743035281,280.282745308 839.778291462,259.559356815 837.0,239.0 C833.420833459,212.514167597 821.317485542,188.152296073 805.0,167.0 C786.520023279,143.044474621 757.275851605,130.780932447 727.0,129.0 C702.506980265,127.559234133 676.0,126.0 654.5,134.5 C640.876670607,139.885967435 628.200469042,147.4898838 617.5,157.5 C609.513249172,164.971476581 601.743340216,173.25996621 599.558323896,183.986409966" fill="none" stroke="#d82626" stroke-linecap="round" stroke-width="5.0"/><path d="M599.558323896 183.986409966 C594.309605191,209.752847243 588.705734381,235.446976077 582.5,261.0 C576.198498027,286.947361063 566.453872307,311.886584617 555.0,336.0 C544.325620842,358.472377176 530.110888914,379.655310329 508.958441558,392.784415584" fill="none" stroke="#d82626" stroke-linecap="round" stroke-width="5.0"/><path d="M494.551290452 401.726785237 C469.811335033,417.082619635 440.018230477,425.765737225 414.0,413.5 C393.775297747,403.965497509 373.115993794,395.296735045 351.633744856,389.0781893" fill="none" stroke="#d82626" stroke-linecap="round" stroke-width="5.0"/></svg>