<?xml version="1.0" ?><!DOCTYPE svg  PUBLIC '-//W3C//DTD SVG 1.1//EN'  'http://www.w3.org/Graphics/SVG/1.1/DTD/svg11.dtd'><svg height="736.000" viewBox="17.000 88.000 917.000 736.000" width="917.000" xmlns="http://www.w3.org/2000/svg"><path d="M293.189415042 555.031393511 C271.592692475,486.739054584 241.0,390.0 211.0,391.0 C185.606389026,391.846453699 160.196835553,392.0 134.789473684,392.0" fill="none" stroke="#d82626" stroke-linecap="round" stroke-width="5.0"/><path d="M120.431578947 392.0 C101.878654468,392.0 85.42846465,402.000078679 70.5,413.0 C52.7196145098,426.101336677 40.1292472065,445.224516761 36.5,467.0 C33.6148128101,484.31112314 32.6735926893,502.662533824 42.0,517.5 C52.5705264865,534.316746683 71.906740635,542.058516504 90.5,549.0 C110.001446066,556.280539865 130.010480746,563.0 150.857142857,563.0" fill="none" stroke="#d82626" stroke-linecap="round" stroke-width="5.0"/><path d="M150.857142857 563.0 C176.266895868,563.0 202.0,563.0 227.0,560.5 C246.290199718,558.570980028 265.615395236,557.018710253 284.951532033,555.625114808" fill="none" stroke="#d82626" stroke-linecap="round" stroke-width="5.0"/><path d="M302.166130986 554.384422992 C338.767350657,551.74649725 375.291212496,547.972583506 411.5,542.0 C433.68371759,538.340830088 460.0,534.0 477.5,528.5 C491.921608805,523.967494376 505.650728538,517.561330108 519.110088728,510.68846533" fill="none" stroke="#d82626" stroke-linecap="round" stroke-width="5.0"/><path d="M519.110088728 510.68846533 C541.399663152,499.306554986 567.318233133,503.050917301 592.0,507.0 C620.726800173,511.596288028 648.950980381,520.992224466 671.0,540.0 C688.749311492,555.301130597 705.393213362,571.884953228 719.846744259,590.336269267" fill="none" stroke="#d82626" stroke-linecap="round" stroke-width="5.0"/><path d="M729.246744259 602.336269267 C737.961235394,613.461151566 747.0,625.0 759.0,632.0 C770.586012238,638.758507139 783.309289549,643.185158447 796.0,647.5 C809.853751357,652.210275461 823.955041623,656.337719043 838.5,658.0 C849.990617767,659.313213459 861.630795902,657.952437854 872.5,654.0 C885.272083251,649.355606091 894.720969645,638.978470945 902.0,627.5 C909.727935666,615.313639912 915.526774938,601.863944359 917.0,587.5 C918.433616891,573.522235311 916.47958228,559.469355408 912.5,546.0 C906.415570061,525.406544823 898.518419525,505.416719466 890.5,485.5 C880.292320402,460.145440999 867.956066893,435.696944549 853.5,412.5 C841.754086845,393.651906797 827.280289891,375.935126827 806.920995199,367.027935399" fill="none" stroke="#d82626" stroke-linecap="round" stroke-width="5.0"/><path d="M806.920995199 367.027935399 C786.666250341,358.166484524 766.470875584,348.902167086 748.5,336.0 C733.925845344,325.536504349 719.831665125,314.426158147 706.0,303.0 C692.518984782,291.863509168 679.245031052,280.472604928 666.5,268.5 C657.837396476,260.36240275 649.225039076,252.162204407 641.153772543,243.436510858" fill="none" stroke="#d82626" stroke-linecap="round" stroke-width="5.0"/><path d="M633.753772543 235.436510858 C622.363159183,223.122334252 610.282442287,211.321508471 596.0,202.5 C579.047741415,192.029487344 563.505368336,179.504329303 548.0,167.0 C526.363738615,149.551402109 502.54498802,135.046956263 477.5,123.0 C443.947686592,106.860912538 406.179774536,104.0 369.0,104.0 C322.239312593,104.0 276.020703753,113.414094082 232.5,130.5 C189.758805148,147.279876497 153.60046347,177.757365026 131.5,218.0 C118.145825598,242.316556373 98.0,279.0 100.0,292.0 C101.353064892,300.794921798 103.916498055,309.355677399 107.5,317.5 C111.752848395,327.165564534 114.870705646,337.274966402 117.5,347.5 C121.261013434,362.126163355 123.690776885,377.046785309 125.789473684,392.0" fill="none" stroke="#d82626" stroke-linecap="round" stroke-width="5.0"/><path d="M125.789473684 392.0 C128.742828039,413.042649781 132.006710417,434.040262504 135.5,455.0 C138.464713889,472.788283335 141.316889481,490.598493745 143.5,508.5 C145.441991309,524.424328731 147.616997646,540.318983521 149.885714286,556.2" fill="none" stroke="#d82626" stroke-linecap="round" stroke-width="5.0"/><path d="M151.885714286 570.2 C154.344990284,587.414931988 156.493505425,604.67531239 158.0,622.0 C159.497476942,639.220984835 161.597489676,656.382113942 164.0,673.5 C166.557437308,691.721740819 170.766891471,709.685809641 177.0,727.0 C182.605117776,742.5697716 189.913067764,757.507280557 199.5,771.0 C213.0,790.0 238.876624177,794.966220802 262.5,799.5 C290.404427397,804.855395157 318.969346076,807.805254958 347.0,803.0 C366.163583001,799.714814343 385.270093577,795.783220995 403.5,789.0 C422.151275349,782.059990568 439.287213823,771.782442695 456.0,761.0 C473.725841058,749.563973511 488.899342874,733.78249708 494.260753585,713.409136379" fill="none" stroke="#d82626" stroke-linecap="round" stroke-width="5.0"/><path d="M494.260753585 713.409136379 C499.642237717,692.959496675 506.145489282,672.825202805 513.5,653.0 C520.924951491,632.984913371 526.879203372,612.44738286 531.0,591.5 C533.519356787,578.693269665 537.0,561.0 535.5,553.0 C534.0,545.0 527.134568356,529.179657517 522.088070983,517.550772264" fill="none" stroke="#d82626" stroke-linecap="round" stroke-width="5.0"/><path d="M517.488070983 506.950772264 C511.487809153,493.124081962 506.687481328,478.822859613 502.0,464.5 C495.888593677,445.826258457 494.076975438,426.05074971 496.0,406.5 C498.056041739,385.596908985 504.236423696,365.346586274 513.5,346.5 C523.563574624,326.025830936 539.571171723,309.222655072 558.5,296.5 C572.814824654,286.878560478 589.0,276.0 601.0,267.0 C613.0,258.0 626.112062941,249.430699023 638.942215679,241.045638572" fill="none" stroke="#d82626" stroke-linecap="round" stroke-width="5.0"/><path d="M638.942215679 241.045638572 C680.812498553,213.681595434 740.0,175.0 769.5,174.5 C783.940796845,174.255240731 799.828565343,175.848338073 805.5,188.5 C811.416304052,201.697909038 816.269468112,215.33401899 821.0,229.0 C827.055699229,246.494242218 828.198546523,265.268284819 825.0,283.5 C822.461027146,297.972145265 819.856296615,312.46304424 815.5,326.5 C811.921669003,338.030177657 809.605608234,349.89754746 807.736796159,361.82234832" fill="none" stroke="#d82626" stroke-linecap="round" stroke-width="5.0"/><path d="M805.527555113 375.919410234 C797.824857108,425.069959404 790.0,475.0 768.0,519.5 C754.925169339,545.946816563 740.864811576,571.91674882 724.808430324,596.670336584" fill="none" stroke="#d82626" stroke-linecap="round" stroke-width="5.0"/><path d="M724.808430324 596.670336584 C700.49341853,634.155979767 659.597763403,655.499753386 619.0,674.0 C581.675716529,691.00853424 540.0,710.0 503.235858228,712.74018448" fill="none" stroke="#d82626" stroke-linecap="round" stroke-width="5.0"/><path d="M485.285648941 714.078088278 C432.742930858,717.994315712 375.072580495,715.986138884 347.0,673.0 C323.251949708,636.63579799 306.280110968,596.426296845 293.189415042,555.031393511" fill="none" stroke="#d82626" stroke-linecap="round" stroke-width="5.0"/></svg>