<?xml version="1.0" ?><!DOCTYPE svg  PUBLIC '-//W3C//DTD SVG 1.1//EN'  'http://www.w3.org/Graphics/SVG/1.1/DTD/svg11.dtd'><svg height="987.000" viewBox="18.000 31.000 908.000 987.000" width="908.000" xmlns="http://www.w3.org/2000/svg"><path d="M571.98556701 101.024742268 C517.807917227,102.34614836 463.643853751,104.174803827 409.5,106.5 C347.629223243,109.157027223 287.262673852,124.607829073 229.0,145.5 C186.411946475,160.771473739 130.0,181.0 118.5,210.0 C110.627377983,229.852698999 103.66649846,250.053189317 97.5,270.5 C91.2983447318,291.063383258 86.081379252,311.912873865 82.0,333.0 C78.9292577415,348.865501669 76.0,364.830449036 76.0,381.0 C76.0,398.0 81.0916439264,420.51042578 85.5,440.0 C90.6026930218,462.559274412 96.007291104,485.069839555 103.219178082,507.048923679" fill="none" stroke="#d82626" stroke-linecap="round" stroke-width="5.0"/><path d="M107.419178082 519.848923679 C113.222973215,537.536680274 124.496203467,552.833902789 139.0,564.5 C159.096228908,580.664358034 184.357078356,587.942091005 209.5,593.5 C233.561441754,598.818845019 258.112709818,603.825457283 282.5,600.0 C300.097063791,597.239676268 315.905186707,588.094813293 328.5,575.5 C340.162396477,563.837603523 351.469309309,551.799043488 361.544967641,538.73800491" fill="none" stroke="#d82626" stroke-linecap="round" stroke-width="5.0"/><path d="M361.544967641 538.73800491 C371.028082613,526.445078095 382.686355262,515.988186843 396.0,508.0 C409.052796606,500.168322036 422.561765301,493.11922499 436.5,487.0 C449.746302609,481.184550074 462.773438037,474.879222683 475.5,468.0 C489.476425762,460.445175264 503.897809429,453.758081673 518.5,447.5 C536.362785123,439.844520661 553.28536254,430.207779455 569.5,419.5 C583.785430036,410.066225448 598.108568779,400.687523515 612.642471042,391.640910882" fill="none" stroke="#d82626" stroke-linecap="round" stroke-width="5.0"/><path d="M624.443820966 384.295172664 C661.051186632,361.508955259 697.321231678,337.8231697 728.5,308.0 C752.433091862,285.107477349 769.217208911,255.971572727 779.5,224.5 C789.314402641,194.461979797 794.420281844,162.810329729 790.0,131.5 C786.216152116,104.697744155 771.010603976,80.8066886618 748.121546277,66.3689753438" fill="none" stroke="#d82626" stroke-linecap="round" stroke-width="5.0"/><path d="M748.121546277 66.3689753438 C722.967591802,50.5026348292 692.163833886,49.6624173699 662.5,51.5 C638.746831285,52.9714352301 606.0,55.0 596.0,66.0 C587.695769473,75.1346535802 581.00593047,85.5612620512 574.788453608,96.2197938144" fill="none" stroke="#d82626" stroke-linecap="round" stroke-width="5.0"/><path d="M567.788453608 108.219793814 C553.269088095,133.110134695 549.595977355,162.272407617 548.0,191.0 C546.499658959,218.006138733 545.356128836,245.789676983 556.5,270.5 C564.163602451,287.493205435 572.503597123,304.173194779 581.5,320.5 C593.905959043,343.014518263 605.400440358,366.0131346 616.803088803,389.051138602" fill="none" stroke="#d82626" stroke-linecap="round" stroke-width="5.0"/><path d="M616.803088803 389.051138602 C629.140093478,413.976923558 644.0,444.0 657.0,462.0 C666.814286899,475.589012629 674.864151442,490.336321813 682.0,505.5 C688.902016191,520.166784405 691.940987895,536.765233894 686.5,552.0 C681.288497986,566.592205638 673.292485143,579.996308535 663.5,592.0 C655.239558959,602.125701922 647.198407606,612.488671589 641.0,624.0 C635.454703797,634.298407234 629.886420402,644.584412384 624.309974425,654.865984655" fill="none" stroke="#d82626" stroke-linecap="round" stroke-width="5.0"/><path d="M617.909974425 666.665984655 C606.387947248,687.909722262 595.685967205,709.584737226 585.5,731.5 C573.737614663,756.806950271 562.455238409,782.333441443 551.5,808.0 C541.336631235,831.811321106 532.987099479,856.470141344 529.506731946,882.137851897" fill="none" stroke="#d82626" stroke-linecap="round" stroke-width="5.0"/><path d="M529.506731946 882.137851897 C526.790231911,902.172039659 531.596212564,922.205770355 539.0,941.0 C548.847025462,965.996295404 573.243445277,980.779822961 599.0,989.0 C640.812951778,1002.34455908 685.206470361,1002.34671511 729.0,1000.5 C767.114874589,998.892746252 812.0,997.0 832.0,970.0 C844.997130188,952.453874246 851.101319711,930.777948066 849.5,909.0 C848.251466803,892.019948524 847.0,875.0 847.0,858.0 C847.0,843.249121186 842.108641719,829.120987033 836.5,815.5 C828.821409084,796.851993489 815.342758147,781.399418856 799.657886025,768.74145188" fill="none" stroke="#d82626" stroke-linecap="round" stroke-width="5.0"/><path d="M788.257886025 759.54145188 C769.082850557,744.066861853 747.504482172,732.002501678 726.0,720.0 C690.9244888,700.422970493 656.331769256,679.999061553 621.887468031,659.332480818" fill="none" stroke="#d82626" stroke-linecap="round" stroke-width="5.0"/><path d="M621.887468031 659.332480818 C598.0,645.0 534.152805597,616.754236577 489.5,597.0 C447.96559382,578.625331828 381.0,549.0 365.435974113,540.790403928" fill="none" stroke="#d82626" stroke-linecap="round" stroke-width="5.0"/><path d="M353.58450203 534.539077994 C315.635694949,514.522124809 275.401086913,498.69490846 233.0,492.0 C189.481179046,485.128607218 145.744062544,495.966830338 105.273972603,513.311154599" fill="none" stroke="#d82626" stroke-linecap="round" stroke-width="5.0"/><path d="M105.273972603 513.311154599 C86.2336627731,521.471287383 71.4845621375,536.846250659 61.5,555.0 C46.4330813812,582.394397489 42.3490821354,613.919103978 39.5,645.0 C36.2997615771,679.911691887 34.4431668126,714.971253284 36.0,750.0 C37.5297686956,784.419795652 65.2217840786,809.784244801 96.0,826.5 C145.724922292,853.505776762 201.643162877,865.365126628 257.5,874.0 C309.706087224,882.070506238 362.163823982,889.967671556 415.0,888.5 C450.221176086,887.521633998 485.413975971,885.681019788 520.535649691,882.858742436" fill="none" stroke="#d82626" stroke-linecap="round" stroke-width="5.0"/><path d="M538.477814201 881.416961359 C571.275858455,878.781404231 603.933852015,874.694219529 636.5,870.0 C662.17662989,866.29886416 692.0,862.0 711.0,850.5 C730.0,839.0 767.314913412,794.289337983 793.072357531,763.42681485" fill="none" stroke="#d82626" stroke-linecap="round" stroke-width="5.0"/><path d="M793.072357531 763.42681485 C817.145387297,734.582553959 841.227791969,705.644422292 861.5,674.0 C879.876287025,645.315064156 888.17733899,611.826074934 895.0,578.5 C906.936811383,520.193267477 908.478238633,460.480795794 909.0,401.0 C909.603787005,332.168281461 909.872072681,263.33344606 909.5,194.5 C909.293603623,156.316670315 909.0,102.0 902.0,81.0 C895.0,60.0 869.595728777,55.7659547962 847.0,52.0 C816.351412833,46.8919021388 784.806146925,50.2404009207 756.360428508,62.746708156" fill="none" stroke="#d82626" stroke-linecap="round" stroke-width="5.0"/><path d="M739.882664046 69.9912425317 C710.551693292,82.8867555356 680.503195709,95.1809278472 648.5,97.5 C623.031051114,99.3455760062 597.513370723,100.402112909 571.98556701,101.024742268" fill="none" stroke="#d82626" stroke-linecap="round" stroke-width="5.0"/></svg>