<?xml version="1.0" ?><!DOCTYPE svg  PUBLIC '-//W3C//DTD SVG 1.1//EN'  'http://www.w3.org/Graphics/SVG/1.1/DTD/svg11.dtd'><svg height="713.000" viewBox="35.000 49.000 799.000 713.000" width="799.000" xmlns="http://www.w3.org/2000/svg"><path d="M360.077105441 467.166290359 C332.398400683,461.511501215 305.297284802,453.432428267 278.5,444.5 C245.363497078,433.454499026 210.657624588,428.16847888 175.764252073,426.808996834" fill="none" stroke="#d82626" stroke-linecap="round" stroke-width="5.0"/><path d="M157.777898202 426.1082298 C117.496008427,424.538805523 74.4636352143,434.706586877 63.5,471.0 C55.2678574705,498.251230442 51.4212711158,527.186202344 59.5,554.5 C66.2447348235,577.30362726 83.1301677726,595.62721476 105.0,605.0 C133.70991371,617.304248733 165.650514071,616.855743436 196.618867925,613.059622642" fill="none" stroke="#d82626" stroke-linecap="round" stroke-width="5.0"/><path d="M196.618867925 613.059622642 C243.870377429,607.267502122 295.0,601.0 324.0,564.0 C343.826653904,538.703924329 355.245490063,508.015402191 359.019958402,476.103988057" fill="none" stroke="#d82626" stroke-linecap="round" stroke-width="5.0"/><path d="M360.861684353 460.533032287 C362.77056631,444.394303013 365.318631605,428.3298841 369.0,412.5 C373.807598716,391.82732552 378.653012441,371.163473279 383.5,350.5 C389.807548823,323.609923441 398.499357514,297.334812997 409.5,272.0 C420.017887513,247.776986335 432.714983268,224.537978122 448.0,203.0 C462.187917506,183.007934423 478.506718492,164.596004275 497.0,148.5 C513.405033277,134.22154511 531.672658354,122.081053887 552.009042954,114.344385833" fill="none" stroke="#d82626" stroke-linecap="round" stroke-width="5.0"/><path d="M552.009042954 114.344385833 C584.586334255,101.950851098 618.879945642,90.6226909497 653.0,98.0 C672.229470002,102.157723244 689.506222566,115.052586289 688.5,133.5 C687.652112988,149.044595222 684.699191396,164.649558476 676.389195743,177.83093089" fill="none" stroke="#d82626" stroke-linecap="round" stroke-width="5.0"/><path d="M670.589195743 187.03093089 C662.056956729,200.564827258 655.045787349,214.993751879 649.5,230.0 C643.545367113,246.112536048 645.9037746,263.829168907 653.0,279.5 C660.530211349,296.129216729 671.347032659,311.146242697 685.530487805,322.646341463" fill="none" stroke="#d82626" stroke-linecap="round" stroke-width="5.0"/><path d="M685.530487805 322.646341463 C696.405040214,331.463546119 707.562451626,339.926436442 719.0,348.0 C728.602668382,354.778354152 737.986634937,361.892033274 746.5,370.0 C755.467456736,378.540434986 762.697802518,388.660659827 769.5,399.0 C779.279345904,413.864605774 784.56855187,431.056805341 788.0,448.5 C791.241307426,464.976646082 791.786669785,482.52120716 782.869189189,496.708108108" fill="none" stroke="#d82626" stroke-linecap="round" stroke-width="5.0"/><path d="M778.469189189 503.708108108 C772.284987177,513.54661131 762.870375297,520.662158567 753.5,527.5 C740.165402688,537.230652093 727.206553821,547.462857807 714.5,558.0 C700.073103753,569.96376762 685.749019031,582.050838283 671.500679532,594.226692036" fill="none" stroke="#d82626" stroke-linecap="round" stroke-width="5.0"/><path d="M671.500679532 594.226692036 C648.855357755,613.578148827 625.822187057,632.47004316 602.5,651.0 C572.777701925,674.614976553 538.258620898,691.008483771 503.0,705.0 C456.790654202,723.337041983 407.898007756,733.545005278 358.5,739.0 C318.440766963,743.423718986 274.976013459,746.009193567 246.5,718.0 C220.470064114,692.396784374 208.002295198,657.075541433 198.872313322,621.772944846" fill="none" stroke="#d82626" stroke-linecap="round" stroke-width="5.0"/><path d="M194.49509434 604.847698113 C188.222237284,580.592650831 182.076258439,556.305033755 176.0,532.0 C167.394469937,497.577879748 166.353986967,461.911107805 166.771075137,426.458613317" fill="none" stroke="#d82626" stroke-linecap="round" stroke-width="5.0"/><path d="M166.771075137 426.458613317 C167.0,407.0 173.146050862,360.758283988 177.5,328.0 C184.78891248,273.159610866 207.619027388,221.835192848 240.0,177.0 C277.208959038,125.479902871 334.866673742,94.129503788 396.5,78.5 C450.924725237,64.6985146527 511.741887574,65.1289737011 546.309902842,107.37877014" fill="none" stroke="#d82626" stroke-linecap="round" stroke-width="5.0"/><path d="M557.708183066 121.310001526 C582.0,151.0 631.482019598,167.742036706 673.736494679,182.038663613" fill="none" stroke="#d82626" stroke-linecap="round" stroke-width="5.0"/><path d="M673.736494679 182.038663613 C695.906149753,189.539674728 717.889431513,198.537061816 735.5,214.0 C751.705483773,228.229205264 741.651285757,252.754390244 728.0,272.5 C716.057935316,289.773343561 700.0,313.0 688.424390244,320.717073171" fill="none" stroke="#d82626" stroke-linecap="round" stroke-width="5.0"/><path d="M680.024390244 326.317073171 C661.822092068,338.451938621 661.234064313,363.140901832 664.5,385.5 C669.224476951,417.844496047 691.980965845,443.626812868 719.5,461.5 C739.739390501,474.64517115 768.0,493.0 780.086486486,501.135135135" fill="none" stroke="#d82626" stroke-linecap="round" stroke-width="5.0"/><path d="M780.086486486 501.135135135 C800.822543719,515.092096734 818.231586475,535.957860862 813.0,559.5 C809.24251678,576.408674489 803.239734672,593.328973871 790.0,604.5 C779.878429144,613.04007541 767.96176061,619.271208293 755.0,622.0 C742.913354958,624.544556851 730.378545577,624.393870165 718.5,621.0 C703.358380715,616.673823062 690.054871516,607.921452786 677.400543626,598.581353629" fill="none" stroke="#d82626" stroke-linecap="round" stroke-width="5.0"/><path d="M669.000543626 592.381353629 C659.0,585.0 619.633728876,572.281666252 594.0,564.0 C552.130451502,550.472915101 511.621125941,532.97974829 473.5,511.0 C438.160858163,490.624278581 400.051253939,475.33305188 360.077105441,467.166290359" fill="none" stroke="#d82626" stroke-linecap="round" stroke-width="5.0"/></svg>