<?xml version="1.0" ?><!DOCTYPE svg  PUBLIC '-//W3C//DTD SVG 1.1//EN'  'http://www.w3.org/Graphics/SVG/1.1/DTD/svg11.dtd'><svg height="734.000" viewBox="53.000 108.000 772.000 734.000" width="772.000" xmlns="http://www.w3.org/2000/svg"><path d="M541.417835685 419.71982981 C549.317242809,366.928670006 504.863300093,325.188677367 455.0,300.0 C415.889275735,280.243036196 358.0,251.0 335.305911004,250.430273916" fill="none" stroke="#d82626" stroke-linecap="round" stroke-width="5.0"/><path d="M335.305911004 250.430273916 C221.737762431,247.579190689 147.346458198,368.284595973 175.291775848,489.824548926" fill="none" stroke="#d82626" stroke-linecap="round" stroke-width="5.0"/><path d="M175.291775848 489.824548926 C182.0,519.0 252.591339863,521.170283912 305.547640378,522.798390238" fill="none" stroke="#d82626" stroke-linecap="round" stroke-width="5.0"/><path d="M323.539139476 523.351526942 C390.687482704,525.415958206 457.835825932,527.48038947 524.98416916,529.544820735" fill="none" stroke="#d82626" stroke-linecap="round" stroke-width="5.0"/><path d="M524.98416916 529.544820735 C576.930140788,531.14186517 628.876112417,532.738909605 680.822084045,534.33595404" fill="none" stroke="#d82626" stroke-linecap="round" stroke-width="5.0"/><path d="M698.813583143 534.889090744 C751.28640764,536.502332921 802.238550526,509.085389035 806.0,460.5 C809.419265943,416.334481569 757.104797417,392.210113882 704.417000098,401.04987748" fill="none" stroke="#d82626" stroke-linecap="round" stroke-width="5.0"/><path d="M704.417000098 401.04987748 C649.639982971,410.240162644 594.862965843,419.430447808 540.085948716,428.620732972" fill="none" stroke="#d82626" stroke-linecap="round" stroke-width="5.0"/><path d="M540.085948716 428.620732972 C469.319425647,440.493678254 398.552902578,452.366623536 327.786379508,464.239568818" fill="none" stroke="#d82626" stroke-linecap="round" stroke-width="5.0"/><path d="M310.034493503 467.217914539 C268.078901952,474.257068381 226.123310401,481.296222223 184.167718851,488.335376065" fill="none" stroke="#d82626" stroke-linecap="round" stroke-width="5.0"/><path d="M166.415832845 491.313721786 C103.296063445,501.903723044 68.7706841413,568.575245083 77.5,635.5 C93.5790639151,758.772823349 243.164858957,783.764267677 375.0,803.0 C533.380911598,826.108958632 671.820703594,699.26194144 689.817833594,534.612522392" fill="none" stroke="#d82626" stroke-linecap="round" stroke-width="5.0"/><path d="M689.817833594 534.612522392 C694.358246702,493.073878141 698.898659811,451.535233889 703.43907292,409.996589638" fill="none" stroke="#d82626" stroke-linecap="round" stroke-width="5.0"/><path d="M705.394927276 392.103165322 C718.497262854,272.234500643 651.877145065,155.403638721 538.0,138.5 C442.296817198,124.294058803 342.389046887,157.417515882 335.989303056,241.45625724" fill="none" stroke="#d82626" stroke-linecap="round" stroke-width="5.0"/><path d="M334.622518953 259.404290593 C329.385158137,328.179107621 324.147797321,396.95392465 318.910436505,465.728741678" fill="none" stroke="#d82626" stroke-linecap="round" stroke-width="5.0"/><path d="M318.910436505 465.728741678 C317.454754313,484.844147315 315.99907212,503.959552953 314.543389927,523.07495859" fill="none" stroke="#d82626" stroke-linecap="round" stroke-width="5.0"/><path d="M314.543389927 523.07495859 C310.704344059,573.487692493 356.136100846,612.319731093 409.5,616.0 C463.698293289,619.73781333 515.975854448,589.746728809 523.652282191,538.445723897" fill="none" stroke="#d82626" stroke-linecap="round" stroke-width="5.0"/><path d="M526.31605613 520.643917573 C530.462058002,492.936490426 534.608059874,465.22906328 538.754061746,437.521636134" fill="none" stroke="#d82626" stroke-linecap="round" stroke-width="5.0"/></svg>