<?xml version="1.0" ?><!DOCTYPE svg  PUBLIC '-//W3C//DTD SVG 1.1//EN'  'http://www.w3.org/Graphics/SVG/1.1/DTD/svg11.dtd'><svg height="605.000" viewBox="201.000 206.000 674.000 605.000" width="674.000" xmlns="http://www.w3.org/2000/svg"><path d="M239.682307174 451.722779981 C217.0,428.0 233.308875822,372.324872193 246.0,329.0 C260.472681994,279.593258021 287.261330193,229.69849188 336.0,228.5 C382.436631907,227.358115609 422.579397345,255.841199691 453.576296231,290.790723267" fill="none" stroke="#d82626" stroke-linecap="round" stroke-width="5.0"/><path d="M465.519911905 304.257350336 C477.794074086,318.096674137 490.068236266,331.935997938 502.342398447,345.775321739" fill="none" stroke="#d82626" stroke-linecap="round" stroke-width="5.0"/><path d="M502.342398447 345.775321739 C546.0,395.0 526.902332037,471.390671853 510.038172043,538.847311828" fill="none" stroke="#d82626" stroke-linecap="round" stroke-width="5.0"/><path d="M510.038172043 538.847311828 C500.005302608,578.978789569 448.358751085,581.942503113 436.757557732,548.652122187" fill="none" stroke="#d82626" stroke-linecap="round" stroke-width="5.0"/><path d="M430.834198702 531.654657146 C409.163844995,469.470163898 387.53405103,400.800004337 424.694540352,347.507829728" fill="none" stroke="#d82626" stroke-linecap="round" stroke-width="5.0"/><path d="M424.694540352 347.507829728 C436.312394924,330.84656542 447.930249496,314.185301111 459.548104068,297.524036802" fill="none" stroke="#d82626" stroke-linecap="round" stroke-width="5.0"/><path d="M459.548104068 297.524036802 C499.468094178,240.274438581 572.469950085,221.59187188 643.0,226.0 C709.589897313,230.161868582 772.157893329,268.432091085 774.252083945,330.706706794" fill="none" stroke="#d82626" stroke-linecap="round" stroke-width="5.0"/><path d="M774.857051708 348.696537644 C776.93648565,410.532336425 779.015919591,472.368135206 781.095353532,534.203933987" fill="none" stroke="#d82626" stroke-linecap="round" stroke-width="5.0"/><path d="M781.095353532 534.203933987 C785.953689299,678.675497564 663.674885554,794.596005184 517.5,789.5 C386.183617307,784.921997668 242.909623047,756.420547968 232.5,639.0 C226.979163277,576.724961765 220.0,498.0 245.352883968,457.653474976" fill="none" stroke="#d82626" stroke-linecap="round" stroke-width="5.0"/><path d="M245.352883968 457.653474976 C283.775786254,396.507350907 344.076779645,349.306603294 415.696779804,347.70859112" fill="none" stroke="#d82626" stroke-linecap="round" stroke-width="5.0"/><path d="M433.692300899 347.307068337 C453.576413232,346.863406601 473.460525566,346.419744866 493.3446379,345.97608313" fill="none" stroke="#d82626" stroke-linecap="round" stroke-width="5.0"/><path d="M511.340158994 345.574560347 C599.078295271,343.616914304 686.816431549,341.659268262 774.554567827,339.701622219" fill="none" stroke="#d82626" stroke-linecap="round" stroke-width="5.0"/><path d="M774.554567827 339.701622219 C801.971084622,339.089894664 821.968032964,361.70454687 838.0,384.5 C858.515926782,413.671083393 853.117371432,452.802511312 831.5,482.0 C816.381031779,502.42042461 793.0,534.0 783.476282826,534.163147189" fill="none" stroke="#d82626" stroke-linecap="round" stroke-width="5.0"/><path d="M772.096673804 534.358086958 C687.743399793,535.803110924 603.390125782,537.24813489 519.036851772,538.693158856" fill="none" stroke="#d82626" stroke-linecap="round" stroke-width="5.0"/><path d="M501.039492314 539.0014648 C478.624954282,539.385439755 456.210416249,539.769414711 433.795878217,540.153389667" fill="none" stroke="#d82626" stroke-linecap="round" stroke-width="5.0"/><path d="M433.795878217 540.153389667 C365.113302256,541.329964844 299.043944174,513.807427852 251.572592085,464.158490805" fill="none" stroke="#d82626" stroke-linecap="round" stroke-width="5.0"/></svg>