<?xml version="1.0" ?><!DOCTYPE svg  PUBLIC '-//W3C//DTD SVG 1.1//EN'  'http://www.w3.org/Graphics/SVG/1.1/DTD/svg11.dtd'><svg height="797.000" viewBox="44.000 64.000 828.000 797.000" width="828.000" xmlns="http://www.w3.org/2000/svg"><path d="M270.704952582 416.001053741 C256.94534512,417.554557809 244.72252983,424.752673034 234.0,433.5 C218.875600434,445.838325961 199.012287596,449.450358096 179.5,450.0 C160.847077495,450.525434437 142.115073163,451.471231709 124.0,456.0 C110.35559705,459.411100737 97.1429555922,464.340611378 84.5,470.5 C72.1047668692,476.53870332 64.0254495572,488.770953985 62.5,502.5 C60.2606294616,522.654334846 77.0070728158,537.945682293 93.5,550.5 C111.966217368,564.556374414 131.322563968,577.662524603 153.0,586.0 C165.127983654,590.664609098 179.0,596.0 190.0,598.0 C201.0,600.0 221.593114535,600.264014289 237.463021952,600.46747464" fill="none" stroke="#d82626" stroke-linecap="round" stroke-width="5.0"/><path d="M252.969825919 600.666279819 C277.008575153,600.974468912 301.01130987,602.435520209 325.0,604.0 C348.870642985,605.556781064 372.92311193,606.660627306 396.5,602.5 C413.671016776,599.469820569 430.619619224,595.298328303 447.257655755,590.083421331" fill="none" stroke="#d82626" stroke-linecap="round" stroke-width="5.0"/><path d="M447.257655755 590.083421331 C468.782771919,583.33674313 488.266412533,568.196950391 486.5,547.0 C485.234301809,531.811621704 483.744189308,516.42934538 477.5,502.5 C474.322267675,495.411212505 471.0,488.0 467.811735941,481.304645477" fill="none" stroke="#d82626" stroke-linecap="round" stroke-width="5.0"/><path d="M463.811735941 472.904645477 C456.881601075,458.351362257 449.881938875,443.829646051 442.5,429.5 C436.93164632,418.690842857 430.482038027,408.356290196 423.139465875,398.664094955" fill="none" stroke="#d82626" stroke-linecap="round" stroke-width="5.0"/><path d="M423.139465875 398.664094955 C413.990815077,386.587875901 405.244758191,374.210668878 397.0,361.5 C391.494402809,353.01220433 385.0,343.0 382.5,335.0 C380.0,327.0 380.277010757,313.426472923 380.5,302.5 C380.825485023,286.551233872 384.499170635,270.835031556 391.5,256.5 C401.572067365,235.876243015 418.30008888,219.687795295 435.0,204.0 C459.472154381,181.011006491 490.860996846,167.463352326 523.473564772,159.564996032" fill="none" stroke="#d82626" stroke-linecap="round" stroke-width="5.0"/><path d="M540.967814538 155.328107417 C579.295983643,146.045503961 618.034176574,138.568447911 657.0,132.5 C686.369965416,127.925988993 718.0,123.0 744.5,133.5 C764.12727621,141.276845291 776.711164253,159.595871614 784.0,179.5 C795.838255305,211.827543333 797.23955858,246.621732616 797.5,281.0 C797.773538028,317.107019687 794.41947102,353.8200552 777.614428858,385.829659319" fill="none" stroke="#d82626" stroke-linecap="round" stroke-width="5.0"/><path d="M777.614428858 385.829659319 C764.472579436,410.861753456 750.8830719,435.659416785 736.5,460.0 C728.024091365,474.343845382 717.0,493.0 714.5,504.5 C712.0,516.0 708.959546313,534.795531885 706.5,550.0 C702.918263279,572.141645187 698.618245319,594.162153304 693.5,616.0 C689.451087116,633.27536164 685.150891612,650.506891431 679.457937031,667.3146621" fill="none" stroke="#d82626" stroke-linecap="round" stroke-width="5.0"/><path d="M675.257937031 679.7146621 C667.901464055,701.43377279 658.754346398,722.491307204 648.5,743.0 C636.437299147,767.125401706 615.800695402,785.432506475 592.5,799.0 C562.746653616,816.324733338 529.971185756,827.502460041 496.5,835.5 C457.782435467,844.75109949 420.171558877,822.186539845 396.0,789.5 C369.318424476,753.419233098 340.734948107,718.734948107 309.0,687.0 C283.654479975,661.654479975 261.180784299,633.290631775 246.462282398,600.582849774" fill="none" stroke="#d82626" stroke-linecap="round" stroke-width="5.0"/><path d="M246.462282398 600.582849774 C234.28626557,573.525034599 234.402676393,543.03487432 240.5,514.0 C245.486078837,490.256767444 251.0,464.0 261.0,444.5 C265.402743078,435.914650998 271.0,425.0 270.763962065,417.800842993" fill="none" stroke="#d82626" stroke-linecap="round" stroke-width="5.0"/><path d="M270.41002909 407.005887253 C269.620776362,382.933679044 268.291322653,358.862089232 265.0,335.0 C261.762895904,311.530995305 258.833858982,288.021029553 256.0,264.5 C252.59288954,236.220983184 254.94195922,207.590523048 262.0,180.0 C268.863965074,153.168136529 283.139946086,128.630520691 304.5,111.0 C327.432376981,92.0716888409 356.819412082,83.7632032427 386.5,82.0 C415.237292241,80.2928341243 444.499779944,82.5819844506 470.5,95.0 C497.502261392,107.896602456 516.694371093,131.892819091 532.220689655,157.446551724" fill="none" stroke="#d82626" stroke-linecap="round" stroke-width="5.0"/><path d="M532.220689655 157.446551724 C542.734549894,174.750613368 553.577666471,191.904080223 566.5,207.5 C579.23615327,222.871219464 592.572463229,237.729709552 606.0,252.5 C624.002496733,272.302746407 642.576145903,291.576145903 661.5,310.5 C680.903756376,329.903756376 703.181579602,346.280190368 728.0,358.0 C744.167418957,365.634614508 764.0,375.0 774.891543086,383.663727455" fill="none" stroke="#d82626" stroke-linecap="round" stroke-width="5.0"/><path d="M783.691543086 390.663727455 C803.350882964,406.301838721 816.449901857,428.233998743 827.0,451.0 C837.23106397,473.077559093 846.47880193,495.830415436 849.5,520.0 C852.053560502,540.428484017 853.773108275,560.949563609 855.0,581.5 C856.202308862,601.638673437 852.09031765,621.992577892 840.5,638.5 C826.964154539,657.778325353 803.977983573,666.65628289 781.0,672.0 C747.155690714,679.870769601 712.081784368,677.754775026 677.822421288,672.143327625" fill="none" stroke="#d82626" stroke-linecap="round" stroke-width="5.0"/><path d="M677.822421288 672.143327625 C644.874168914,666.746631115 612.105851943,660.173100555 580.0,651.0 C556.285480232,644.224422923 532.497659347,637.694359845 508.5,632.0 C486.765003279,626.842543151 468.333750429,613.267125472 453.311710901,596.742881991" fill="none" stroke="#d82626" stroke-linecap="round" stroke-width="5.0"/><path d="M441.606124604 583.866737064 C429.962203467,571.058423814 418.703342613,557.12116988 416.0,540.0 C414.266895097,529.02366895 415.909471299,517.508634441 423.0,509.0 C433.0,497.0 451.138241423,487.737919273 467.014669927,479.630806846" fill="none" stroke="#d82626" stroke-linecap="round" stroke-width="5.0"/><path d="M467.014669927 479.630806846 C478.752214458,473.637167085 483.969063198,460.596677506 488.0,448.0 C491.670070689,436.531029098 496.0,423.0 490.5,414.0 C485.963243691,406.57621695 478.076154715,402.230461886 470.0,399.0 C457.193614896,393.877445958 443.075041442,395.119992632 429.5115727,397.531275964" fill="none" stroke="#d82626" stroke-linecap="round" stroke-width="5.0"/><path d="M420.5115727 399.131275964 C412.762963092,400.508806561 405.262936935,402.973776277 398.0,406.0 C386.0,411.0 366.586224453,411.0 350.5,411.0 C323.827034859,411.0 297.207353342,413.008847203 270.704952582,416.001053741" fill="none" stroke="#d82626" stroke-linecap="round" stroke-width="5.0"/></svg>