<?xml version="1.0" encoding="UTF-8" standalone="no"?>
<svg
   xmlns:dc="http://purl.org/dc/elements/1.1/"
   xmlns:cc="http://creativecommons.org/ns#"
   xmlns:rdf="http://www.w3.org/1999/02/22-rdf-syntax-ns#"
   xmlns:svg="http://www.w3.org/2000/svg"
   xmlns="http://www.w3.org/2000/svg"
   xmlns:sodipodi="http://sodipodi.sourceforge.net/DTD/sodipodi-0.dtd"
   xmlns:inkscape="http://www.inkscape.org/namespaces/inkscape"
   height="667.000"
   viewBox="9.000 116.000 842.000 667.000"
   width="842.000"
   id="svg3391"
   version="1.1"
   inkscape:version="0.91 r13725"
   sodipodi:docname="7_6_annotated.svg">
  <metadata
     id="metadata3425">
    <rdf:RDF>
      <cc:Work
         rdf:about="">
        <dc:format>image/svg+xml</dc:format>
        <dc:type
           rdf:resource="http://purl.org/dc/dcmitype/StillImage" />
        <dc:title></dc:title>
      </cc:Work>
    </rdf:RDF>
  </metadata>
  <defs
     id="defs3423" />
  <sodipodi:namedview
     pagecolor="#ffffff"
     bordercolor="#666666"
     borderopacity="1"
     objecttolerance="10"
     gridtolerance="10"
     guidetolerance="10"
     inkscape:pageopacity="0"
     inkscape:pageshadow="2"
     inkscape:window-width="1855"
     inkscape:window-height="1056"
     id="namedview3421"
     showgrid="false"
     inkscape:zoom="1.3778111"
     inkscape:cx="421"
     inkscape:cy="333.5"
     inkscape:window-x="65"
     inkscape:window-y="24"
     inkscape:window-maximized="1"
     inkscape:current-layer="svg3391" />
  <path
     d="M86.4181818182 382.072727273 C80.9691422166,420.216004484 74.0,469.0 80.0,496.5 C84.0534226258,515.078187035 89.0855666454,533.428120305 95.0,551.5 C99.9308764037,566.566566789 107.523398369,581.17621664 121.0,589.5 C130.148419926,595.15049466 141.280838697,598.16273033 150.5,593.0 C161.726054693,586.713409372 172.177672398,579.175576935 182.5,571.5 C195.508098399,561.827311447 202.398616934,546.237342783 203.0,530.0 C203.752365097,509.686142377 206.416684057,489.50684735 210.0,469.5 C213.510167311,449.901565845 218.636041337,430.546121371 227.304557641,412.611260054"
     fill="none"
     stroke="#d82626"
     stroke-linecap="round"
     stroke-width="5.0"
     id="path3393" />
  <path
     d="M233.104557641 400.611260054 C242.065201982,382.0719959 251.031278411,363.53535795 260.0,345.0 C275.0,314.0 303.134382888,279.495568156 328.0,249.0 C351.784416129,219.83043305 381.0,184.0 404.636363636,166.727272727"
     fill="none"
     stroke="#d82626"
     stroke-linecap="round"
     stroke-width="5.0"
     id="path3395" />
  <path
     d="M404.636363636 166.727272727 C426.617657589,150.664019455 453.139548913,142.786242195 480.0,138.5 C506.309592661,134.301660746 532.9547904,131.54967296 559.5,134.0 C581.805238149,136.05894506 600.832968399,149.941325794 613.5,168.5 C627.409759142,188.879414556 632.080635436,214.110262058 627.080196144,238.279051973"
     fill="none"
     stroke="#d82626"
     stroke-linecap="round"
     stroke-width="5.0"
     id="path3397" />
  <path
     d="M623.605396566 255.073916599 C618.290192746,280.764068394 610.303900172,305.792280161 601.5,330.5 C588.581867413,366.754114035 577.329213275,403.569606011 566.5,440.5 C558.112850524,469.102330266 547.0,507.0 543.687697161,526.873817035"
     fill="none"
     stroke="#d82626"
     stroke-linecap="round"
     stroke-width="5.0"
     id="path3399" />
  <path
     d="M543.687697161 526.873817035 C538.330877589,559.014734468 532.0,597.0 529.0,623.5 C526.865404859,642.35559041 529.464980962,661.357437598 535.0,679.5 C541.069911696,699.395821671 553.269709316,716.77459491 569.205624103,730.140200861"
     fill="none"
     stroke="#d82626"
     stroke-linecap="round"
     stroke-width="5.0"
     id="path3401" />
  <path
     d="M581.605624103 740.540200861 C600.453453777,756.348058007 624.987321797,762.527715547 649.5,764.5 C675.713025104,766.609093974 702.338554854,762.971547386 725.5,750.5 C744.764360691,740.126882705 761.316470922,724.780919889 769.5,704.5 C777.546227486,684.559349275 780.244020059,662.959346012 779.0,641.5 C777.775376415,620.375243153 770.667331173,599.814856523 756.678058275,583.942412273"
     fill="none"
     stroke="#d82626"
     stroke-linecap="round"
     stroke-width="5.0"
     id="path3403" />
  <path
     d="M756.678058275 583.942412273 C737.34366572,562.005313029 712.209637977,545.534388044 683.5,540.0 C660.573283852,535.580392068 637.305384942,532.335329647 614.0,534.0 C593.250909415,535.482077899 572.476422789,533.083150013 552.150157729,528.699053628"
     fill="none"
     stroke="#d82626"
     stroke-linecap="round"
     stroke-width="5.0"
     id="path3405" />
  <path
     d="M534.890007764 524.976276184 C506.104183595,518.767569011 477.609613533,510.657336309 451.5,497.0 C421.648158263,481.385190476 390.363026027,468.783851861 359.0,456.5 C316.12631648,439.707807288 273.159052806,423.15582964 230.130697051,406.764075067"
     fill="none"
     stroke="#d82626"
     stroke-linecap="round"
     stroke-width="5.0"
     id="path3407" />
  <path
     d="M230.130697051 406.764075067 C215.0,401.0 193.482127724,394.275664914 175.0,388.5 C149.253734006,380.454291877 122.118237712,377.610220286 95.3486827086,380.956414661"
     fill="none"
     stroke="#d82626"
     stroke-linecap="round"
     stroke-width="5.0"
     id="path3409" />
  <path
     d="M78.5345454545 383.058181818 C59.4945147892,385.438185651 44.1697937112,399.735928299 40.0,418.5 C33.6453203122,447.096058595 30.8667146867,476.310518865 28.5,505.5 C25.3422150478,544.446014411 26.0197682508,583.584681349 29.5,622.5 C32.4500927827,655.487401115 40.0980327847,689.098032785 63.5,712.5 C92.0,741.0 142.332651615,746.592516846 186.5,751.5 C262.171556213,759.90795069 338.431811657,759.848995818 414.5,757.0 C469.640525633,754.934811774 548.0,752.0 575.507030129,735.425251076"
     fill="none"
     stroke="#d82626"
     stroke-linecap="round"
     stroke-width="5.0"
     id="path3411" />
  <path
     d="M575.507030129 735.425251076 C626.0,705.0 694.376452923,641.657396372 750.075708167,590.058699796"
     fill="none"
     stroke="#d82626"
     stroke-linecap="round"
     stroke-width="5.0"
     id="path3413" />
  <path
     d="M763.14244662 577.953929819 C779.375663693,562.915796211 794.952953994,547.175882007 809.5,530.5 C823.666225639,514.26066817 831.159651439,493.470733217 833.0,472.0 C835.110754729,447.374528159 834.709003286,422.614608049 832.5,398.0 C830.217700463,372.568662303 818.715228416,348.895663006 800.5,331.0 C777.108679356,308.019053403 747.678826124,292.736018364 717.5,280.0 C687.386520814,267.291559243 656.878346365,255.393065921 625.256745707,247.092395748"
     fill="none"
     stroke="#d82626"
     stroke-linecap="round"
     stroke-width="5.0"
     id="path3415" />
  <path
     d="M625.256745707 247.092395748 C585.740422861,236.719361001 547.069494214,223.460494625 508.5,210.0 C475.129801039,198.354024524 434.0,184.0 410.509090909,170.181818182"
     fill="none"
     stroke="#d82626"
     stroke-linecap="round"
     stroke-width="5.0"
     id="path3417" />
  <path
     d="M400.309090909 164.181818182 C383.0,154.0 350.428236307,157.340693712 324.5,160.0 C281.809383114,164.378524809 241.177286862,179.503555947 203.5,200.0 C167.965680976,219.330669549 135.44338581,245.231454214 117.5,281.5 C101.841748803,313.149656674 91.4118129274,347.117309508 86.4181818182,382.072727273"
     fill="none"
     stroke="#d82626"
     stroke-linecap="round"
     stroke-width="5.0"
     id="path3419" />
  <text
     xml:space="preserve"
     style="font-style:normal;font-variant:normal;font-weight:normal;font-stretch:normal;font-size:40px;line-height:125%;font-family:'Bitstream Charter';-inkscape-font-specification:'Bitstream Charter, Normal';text-align:start;letter-spacing:0px;word-spacing:0px;writing-mode:lr-tb;text-anchor:start;fill:#000000;fill-opacity:1;stroke:none;stroke-width:1px;stroke-linecap:butt;stroke-linejoin:miter;stroke-opacity:1"
     x="51.095757"
     y="354.05878"
     id="text3427"
     sodipodi:linespacing="125%"><tspan
       sodipodi:role="line"
       id="tspan3429"
       x="51.095757"
       y="354.05878">3_1</tspan></text>
  <text
     xml:space="preserve"
     style="font-style:normal;font-variant:normal;font-weight:normal;font-stretch:normal;font-size:40px;line-height:125%;font-family:'Bitstream Charter';-inkscape-font-specification:'Bitstream Charter, Normal';text-align:start;letter-spacing:0px;word-spacing:0px;writing-mode:lr-tb;text-anchor:start;fill:#000000;fill-opacity:1;stroke:none;stroke-width:1px;stroke-linecap:butt;stroke-linejoin:miter;stroke-opacity:1"
     x="264.47769"
     y="396.88031"
     id="text3431"
     sodipodi:linespacing="125%"><tspan
       sodipodi:role="line"
       id="tspan3433"
       x="264.47769"
       y="396.88031">3_1</tspan></text>
  <text
     xml:space="preserve"
     style="font-style:normal;font-variant:normal;font-weight:normal;font-stretch:normal;font-size:40px;line-height:125%;font-family:'Bitstream Charter';-inkscape-font-specification:'Bitstream Charter, Normal';text-align:start;letter-spacing:0px;word-spacing:0px;writing-mode:lr-tb;text-anchor:start;fill:#000000;fill-opacity:1;stroke:none;stroke-width:1px;stroke-linecap:butt;stroke-linejoin:miter;stroke-opacity:1"
     x="405.28073"
     y="203.09467"
     id="text3435"
     sodipodi:linespacing="125%"><tspan
       sodipodi:role="line"
       id="tspan3437"
       x="405.28073"
       y="203.09467">5_2</tspan></text>
  <text
     xml:space="preserve"
     style="font-style:normal;font-variant:normal;font-weight:normal;font-stretch:normal;font-size:40px;line-height:125%;font-family:'Bitstream Charter';-inkscape-font-specification:'Bitstream Charter, Normal';text-align:start;letter-spacing:0px;word-spacing:0px;writing-mode:lr-tb;text-anchor:start;fill:#000000;fill-opacity:1;stroke:none;stroke-width:1px;stroke-linecap:butt;stroke-linejoin:miter;stroke-opacity:1"
     x="653.50055"
     y="235.02939"
     id="text3439"
     sodipodi:linespacing="125%"><tspan
       sodipodi:role="line"
       id="tspan3441"
       x="653.50055"
       y="235.02939">5_2</tspan></text>
  <text
     xml:space="preserve"
     style="font-style:normal;font-variant:normal;font-weight:normal;font-stretch:normal;font-size:40px;line-height:125%;font-family:'Bitstream Charter';-inkscape-font-specification:'Bitstream Charter, Normal';text-align:start;letter-spacing:0px;word-spacing:0px;writing-mode:lr-tb;text-anchor:start;fill:#000000;fill-opacity:1;stroke:none;stroke-width:1px;stroke-linecap:butt;stroke-linejoin:miter;stroke-opacity:1"
     x="558.42218"
     y="515.1839"
     id="text3443"
     sodipodi:linespacing="125%"><tspan
       sodipodi:role="line"
       id="tspan3445"
       x="558.42218"
       y="515.1839">0</tspan></text>
  <text
     xml:space="preserve"
     style="font-style:normal;font-variant:normal;font-weight:normal;font-stretch:normal;font-size:40px;line-height:125%;font-family:'Bitstream Charter';-inkscape-font-specification:'Bitstream Charter, Normal';text-align:start;letter-spacing:0px;word-spacing:0px;writing-mode:lr-tb;text-anchor:start;fill:#000000;fill-opacity:1;stroke:none;stroke-width:1px;stroke-linecap:butt;stroke-linejoin:miter;stroke-opacity:1"
     x="477.85962"
     y="725.66266"
     id="text3447"
     sodipodi:linespacing="125%"><tspan
       sodipodi:role="line"
       id="tspan3449"
       x="477.85962"
       y="725.66266">4_1</tspan></text>
  <text
     xml:space="preserve"
     style="font-style:normal;font-variant:normal;font-weight:normal;font-stretch:normal;font-size:40px;line-height:125%;font-family:'Bitstream Charter';-inkscape-font-specification:'Bitstream Charter, Normal';text-align:start;letter-spacing:0px;word-spacing:0px;writing-mode:lr-tb;text-anchor:start;fill:#000000;fill-opacity:1;stroke:none;stroke-width:1px;stroke-linecap:butt;stroke-linejoin:miter;stroke-opacity:1"
     x="748.57892"
     y="540.58655"
     id="text3451"
     sodipodi:linespacing="125%"><tspan
       sodipodi:role="line"
       id="tspan3453"
       x="748.57892"
       y="540.58655">4_1</tspan></text>
</svg>
