<?xml version="1.0" encoding="UTF-8" standalone="no"?>
<svg
   xmlns:dc="http://purl.org/dc/elements/1.1/"
   xmlns:cc="http://creativecommons.org/ns#"
   xmlns:rdf="http://www.w3.org/1999/02/22-rdf-syntax-ns#"
   xmlns:svg="http://www.w3.org/2000/svg"
   xmlns="http://www.w3.org/2000/svg"
   xmlns:sodipodi="http://sodipodi.sourceforge.net/DTD/sodipodi-0.dtd"
   xmlns:inkscape="http://www.inkscape.org/namespaces/inkscape"
   height="829.000"
   viewBox="17.000 64.000 842.000 829.000"
   width="842.000"
   id="svg3391"
   version="1.1"
   inkscape:version="0.91 r13725"
   sodipodi:docname="7_7_annotated.svg">
  <metadata
     id="metadata3425">
    <rdf:RDF>
      <cc:Work
         rdf:about="">
        <dc:format>image/svg+xml</dc:format>
        <dc:type
           rdf:resource="http://purl.org/dc/dcmitype/StillImage" />
        <dc:title></dc:title>
      </cc:Work>
    </rdf:RDF>
  </metadata>
  <defs
     id="defs3423" />
  <sodipodi:namedview
     pagecolor="#ffffff"
     bordercolor="#666666"
     borderopacity="1"
     objecttolerance="10"
     gridtolerance="10"
     guidetolerance="10"
     inkscape:pageopacity="0"
     inkscape:pageshadow="2"
     inkscape:window-width="1855"
     inkscape:window-height="1056"
     id="namedview3421"
     showgrid="false"
     inkscape:zoom="1.1085645"
     inkscape:cx="421"
     inkscape:cy="414.5"
     inkscape:window-x="65"
     inkscape:window-y="24"
     inkscape:window-maximized="1"
     inkscape:current-layer="svg3391" />
  <path
     d="M83.1533477322 462.647948164 C88.7982487584,474.996169159 94.5680089362,487.287077222 100.5,499.5 C106.429873395,511.708562872 114.749297707,522.56383649 124.5,532.0 C137.761188483,544.83340821 155.946049118,550.283010112 174.0,554.0 C206.499551545,560.691084142 239.848108353,560.510029102 273.0,560.0 C306.000489395,559.492300163 339.003632416,558.957292238 371.978633893,557.554100685"
     fill="none"
     stroke="#d82626"
     stroke-linecap="round"
     stroke-width="5.0"
     id="path3393" />
  <path
     d="M389.465154932 556.809993407 C449.582886508,554.251792063 526.0,551.0 569.5,558.0 C601.367191985,563.128053883 627.694417612,583.953669094 647.5,609.5 C670.319515916,638.933868356 684.135257127,674.284942705 688.033898305,711.322033898"
     fill="none"
     stroke="#d82626"
     stroke-linecap="round"
     stroke-width="5.0"
     id="path3395" />
  <path
     d="M688.033898305 711.322033898 C691.200163743,741.401555557 684.554526334,771.336420999 675.0,800.0 C665.690554861,827.928335416 649.607694757,854.427842987 622.5,865.5 C594.310009836,877.014221335 563.017795414,872.307594756 534.0,863.0 C504.726612455,853.610422863 476.22151941,839.930038169 457.193529182,815.759347879"
     fill="none"
     stroke="#d82626"
     stroke-linecap="round"
     stroke-width="5.0"
     id="path3397" />
  <path
     d="M446.059456268 801.61606607 C422.640288099,771.86739299 403.532605023,738.663865474 394.0,702.0 C381.743833184,654.86089686 380.743628117,605.853061123 380.473292366,557.192625857"
     fill="none"
     stroke="#d82626"
     stroke-linecap="round"
     stroke-width="5.0"
     id="path3399" />
  <path
     d="M380.473292366 557.192625857 C380.243945781,515.91024059 380.0,472.0 376.816287684,433.441706399"
     fill="none"
     stroke="#d82626"
     stroke-linecap="round"
     stroke-width="5.0"
     id="path3401" />
  <path
     d="M375.335089689 415.502752904 C372.107313264,376.410793979 370.404931615,337.213703301 369.5,298.0 C368.607017684,259.304099637 373.880559146,220.383527651 390.242845802,185.27898537"
     fill="none"
     stroke="#d82626"
     stroke-linecap="round"
     stroke-width="5.0"
     id="path3403" />
  <path
     d="M390.242845802 185.27898537 C410.610953744,141.580135603 447.801434557,107.664364427 494.0,94.0 C536.540420122,81.4176222174 582.277841863,80.4473456307 623.0,98.0 C660.593938608,114.204283883 686.84477813,148.522197834 696.0,188.5 C702.895219555,218.60912539 711.0,254.0 700.355593353,278.41952113"
     fill="none"
     stroke="#d82626"
     stroke-linecap="round"
     stroke-width="5.0"
     id="path3405" />
  <path
     d="M694.098222907 292.774665095 C683.651182924,316.741403881 671.750465828,340.076206418 657.5,362.0 C638.0,392.0 592.282915129,402.219113089 553.0,411.0 C513.536903257,419.821162801 468.0,430.0 433.5,426.0 C414.422593584,423.788126792 395.180145768,422.411945064 376.075688687,424.472229651"
     fill="none"
     stroke="#d82626"
     stroke-linecap="round"
     stroke-width="5.0"
     id="path3407" />
  <path
     d="M376.075688687 424.472229651 C321.231763563,430.386770596 266.146126164,433.71753195 211.0,435.0 C169.470998935,435.965790722 125.0,437.0 90.8267590039,457.944889643"
     fill="none"
     stroke="#d82626"
     stroke-linecap="round"
     stroke-width="5.0"
     id="path3409" />
  <path
     d="M75.4799364605 467.351006686 C46.9939786078,484.810142144 33.0386830278,517.889709639 34.5,551.5 C36.6036998503,599.885096557 50.8106705781,646.583136327 67.5,692.0 C91.0488119426,756.083652172 160.578773033,784.517684111 229.5,795.0 C303.052901554,806.186753088 377.372136947,813.859652153 451.626492725,808.687706974"
     fill="none"
     stroke="#d82626"
     stroke-linecap="round"
     stroke-width="5.0"
     id="path3411" />
  <path
     d="M451.626492725 808.687706974 C535.355489292,802.855836567 612.358570912,765.167939928 680.700780734,716.539829093"
     fill="none"
     stroke="#d82626"
     stroke-linecap="round"
     stroke-width="5.0"
     id="path3413" />
  <path
     d="M695.367015876 706.104238704 C736.48775854,676.845248731 775.264121493,643.107082021 799.0,598.5 C817.42011993,563.882878062 830.776553684,526.723665964 837.0,488.0 C843.260468123,449.045976123 835.776699421,409.43158174 819.5,373.5 C797.828307471,325.658716494 747.982720739,300.604939771 697.694491692,284.524401413"
     fill="none"
     stroke="#d82626"
     stroke-linecap="round"
     stroke-width="5.0"
     id="path3415" />
  <path
     d="M697.694491692 284.524401413 C646.053599875,268.011325541 594.974281209,249.793835768 544.5,230.0 C497.338945374,211.505468774 448.866799137,196.377694982 399.085766033,186.953130463"
     fill="none"
     stroke="#d82626"
     stroke-linecap="round"
     stroke-width="5.0"
     id="path3417" />
  <path
     d="M381.399925571 183.604840278 C317.940101161,171.590601676 252.324475831,163.97708436 190.5,183.0 C139.342112768,198.740888379 102.975920991,241.748554527 81.5,291.0 C57.5914635101,345.830243683 58.282778207,408.243577328 83.1533477322,462.647948164"
     fill="none"
     stroke="#d82626"
     stroke-linecap="round"
     stroke-width="5.0"
     id="path3419" />
  <text
     xml:space="preserve"
     style="font-style:normal;font-variant:normal;font-weight:normal;font-stretch:normal;font-size:40px;line-height:125%;font-family:'Bitstream Charter';-inkscape-font-specification:'Bitstream Charter, Normal';text-align:start;letter-spacing:0px;word-spacing:0px;writing-mode:lr-tb;text-anchor:start;fill:#000000;fill-opacity:1;stroke:none;stroke-width:1px;stroke-linecap:butt;stroke-linejoin:miter;stroke-opacity:1"
     x="104.50054"
     y="426.63113"
     id="text3427"
     sodipodi:linespacing="125%"><tspan
       sodipodi:role="line"
       id="tspan3429"
       x="104.50054"
       y="426.63113">3_1</tspan></text>
  <text
     xml:space="preserve"
     style="font-style:normal;font-variant:normal;font-weight:normal;font-stretch:normal;font-size:40px;line-height:125%;font-family:'Bitstream Charter';-inkscape-font-specification:'Bitstream Charter, Normal';text-align:start;letter-spacing:0px;word-spacing:0px;writing-mode:lr-tb;text-anchor:start;fill:#000000;fill-opacity:1;stroke:none;stroke-width:1px;stroke-linecap:butt;stroke-linejoin:miter;stroke-opacity:1"
     x="394.96628"
     y="399.56909"
     id="text3431"
     sodipodi:linespacing="125%"><tspan
       sodipodi:role="line"
       id="tspan3433"
       x="394.96628"
       y="399.56909">0</tspan></text>
  <text
     xml:space="preserve"
     style="font-style:normal;font-variant:normal;font-weight:normal;font-stretch:normal;font-size:40px;line-height:125%;font-family:'Bitstream Charter';-inkscape-font-specification:'Bitstream Charter, Normal';text-align:start;letter-spacing:0px;word-spacing:0px;writing-mode:lr-tb;text-anchor:start;fill:#000000;fill-opacity:1;stroke:none;stroke-width:1px;stroke-linecap:butt;stroke-linejoin:miter;stroke-opacity:1"
     x="393.16214"
     y="534.87921"
     id="text3435"
     sodipodi:linespacing="125%"><tspan
       sodipodi:role="line"
       id="tspan3437"
       x="393.16214"
       y="534.87921">0</tspan></text>
  <text
     xml:space="preserve"
     style="font-style:normal;font-variant:normal;font-weight:normal;font-stretch:normal;font-size:40px;line-height:125%;font-family:'Bitstream Charter';-inkscape-font-specification:'Bitstream Charter, Normal';text-align:start;letter-spacing:0px;word-spacing:0px;writing-mode:lr-tb;text-anchor:start;fill:#000000;fill-opacity:1;stroke:none;stroke-width:1px;stroke-linecap:butt;stroke-linejoin:miter;stroke-opacity:1"
     x="362.49185"
     y="146.08813"
     id="text3439"
     sodipodi:linespacing="125%"><tspan
       sodipodi:role="line"
       id="tspan3441"
       x="362.49185"
       y="146.08813">4_1</tspan></text>
  <text
     xml:space="preserve"
     style="font-style:normal;font-variant:normal;font-weight:normal;font-stretch:normal;font-size:40px;line-height:125%;font-family:'Bitstream Charter';-inkscape-font-specification:'Bitstream Charter, Normal';text-align:start;letter-spacing:0px;word-spacing:0px;writing-mode:lr-tb;text-anchor:start;fill:#000000;fill-opacity:1;stroke:none;stroke-width:1px;stroke-linecap:butt;stroke-linejoin:miter;stroke-opacity:1"
     x="728.7312"
     y="266.96518"
     id="text3443"
     sodipodi:linespacing="125%"><tspan
       sodipodi:role="line"
       id="tspan3445"
       x="728.7312"
       y="266.96518">4_1</tspan></text>
  <text
     xml:space="preserve"
     style="font-style:normal;font-variant:normal;font-weight:normal;font-stretch:normal;font-size:40px;line-height:125%;font-family:'Bitstream Charter';-inkscape-font-specification:'Bitstream Charter, Normal';text-align:start;letter-spacing:0px;word-spacing:0px;writing-mode:lr-tb;text-anchor:start;fill:#000000;fill-opacity:1;stroke:none;stroke-width:1px;stroke-linecap:butt;stroke-linejoin:miter;stroke-opacity:1"
     x="698.06091"
     y="670.18933"
     id="text3447"
     sodipodi:linespacing="125%"><tspan
       sodipodi:role="line"
       id="tspan3449"
       x="698.06091"
       y="670.18933">4_1</tspan></text>
  <text
     xml:space="preserve"
     style="font-style:normal;font-variant:normal;font-weight:normal;font-stretch:normal;font-size:40px;line-height:125%;font-family:'Bitstream Charter';-inkscape-font-specification:'Bitstream Charter, Normal';text-align:start;letter-spacing:0px;word-spacing:0px;writing-mode:lr-tb;text-anchor:start;fill:#000000;fill-opacity:1;stroke:none;stroke-width:1px;stroke-linecap:butt;stroke-linejoin:miter;stroke-opacity:1"
     x="465.32755"
     y="774.82916"
     id="text3451"
     sodipodi:linespacing="125%"><tspan
       sodipodi:role="line"
       id="tspan3453"
       x="465.32755"
       y="774.82916">4_1</tspan></text>
</svg>
