<?xml version="1.0" encoding="UTF-8" standalone="no"?>
<svg
   xmlns:dc="http://purl.org/dc/elements/1.1/"
   xmlns:cc="http://creativecommons.org/ns#"
   xmlns:rdf="http://www.w3.org/1999/02/22-rdf-syntax-ns#"
   xmlns:svg="http://www.w3.org/2000/svg"
   xmlns="http://www.w3.org/2000/svg"
   xmlns:sodipodi="http://sodipodi.sourceforge.net/DTD/sodipodi-0.dtd"
   xmlns:inkscape="http://www.inkscape.org/namespaces/inkscape"
   height="772.000"
   viewBox="35.000 75.000 876.000 772.000"
   width="876.000"
   id="svg3395"
   version="1.1"
   inkscape:version="0.91 r13725"
   sodipodi:docname="8_12_annotated.svg">
  <metadata
     id="metadata3433">
    <rdf:RDF>
      <cc:Work
         rdf:about="">
        <dc:format>image/svg+xml</dc:format>
        <dc:type
           rdf:resource="http://purl.org/dc/dcmitype/StillImage" />
        <dc:title></dc:title>
      </cc:Work>
    </rdf:RDF>
  </metadata>
  <defs
     id="defs3431" />
  <sodipodi:namedview
     pagecolor="#ffffff"
     bordercolor="#666666"
     borderopacity="1"
     objecttolerance="10"
     gridtolerance="10"
     guidetolerance="10"
     inkscape:pageopacity="0"
     inkscape:pageshadow="2"
     inkscape:window-width="1855"
     inkscape:window-height="1056"
     id="namedview3429"
     showgrid="false"
     inkscape:zoom="1.1904145"
     inkscape:cx="438"
     inkscape:cy="386"
     inkscape:window-x="65"
     inkscape:window-y="24"
     inkscape:window-maximized="1"
     inkscape:current-layer="svg3395" />
  <path
     d="M232.056944005 670.444795951 C191.463926545,660.16808267 166.014813998,622.530182143 155.0,581.5 C145.036244845,544.385012048 134.616843688,506.523009489 110.5,476.5 C94.0893613953,456.070429492 84.5442425193,431.078485823 82.0,405.0 C79.428495811,378.642082063 80.0527659645,352.04565703 84.5352634135,325.941701298"
     fill="none"
     stroke="#d82626"
     stroke-linecap="round"
     stroke-width="5.0"
     id="path3397" />
  <path
     d="M87.5815856693 308.201354043 C92.2025420385,281.291078717 104.52887047,256.117154647 124.5,237.5 C141.167800043,221.962220299 162.509360094,211.097981948 185.0,214.0 C207.375561575,216.887169235 225.977504522,231.374101806 239.5,249.5 C252.744089082,267.252715153 263.335248552,287.369722491 264.5,309.5 C265.398633823,326.574042642 265.708599033,343.682318859 264.832885133,360.758739915"
     fill="none"
     stroke="#d82626"
     stroke-linecap="round"
     stroke-width="5.0"
     id="path3399" />
  <path
     d="M264.832885133 360.758739915 C263.209445568,392.415811423 260.980935534,424.050609282 257.0,455.5 C253.814644077,480.664311789 250.64615538,505.830756963 247.5,531.0 C244.648573733,553.811410132 241.961500874,576.643206171 239.5,599.5 C237.229869895,620.579779549 235.008737117,641.664813112 232.845555204,662.755836761"
     fill="none"
     stroke="#d82626"
     stroke-linecap="round"
     stroke-width="5.0"
     id="path3401" />
  <path
     d="M231.245555204 678.355836761 C228.852097112,701.692053156 229.777287527,725.205682176 232.5,748.5 C235.180858916,771.436237396 244.507924293,793.456814892 262.0,808.5 C283.407222526,826.910211372 312.744985523,830.238379496 341.0,830.5 C367.004617063,830.740783491 395.429996556,830.43562952 411.0,810.0 C423.850932274,793.133151391 431.809233042,773.260691864 438.0,753.0 C443.838943738,733.890729586 449.345287837,714.632311976 452.229689067,694.853560682"
     fill="none"
     stroke="#d82626"
     stroke-linecap="round"
     stroke-width="5.0"
     id="path3403" />
  <path
     d="M452.229689067 694.853560682 C455.19959497,674.488491631 457.26703825,654.006714042 459.0,633.5 C461.105124785,608.589356716 464.009014857,583.754258285 467.5,559.0 C470.761065961,535.876077729 474.554788074,512.824055044 479.5,490.0 C484.403407521,467.368888364 485.185454821,444.116369006 484.0,421.0 C482.820280025,397.995460486 482.0,374.970713787 482.0,351.935483871"
     fill="none"
     stroke="#d82626"
     stroke-linecap="round"
     stroke-width="5.0"
     id="path3405" />
  <path
     d="M482.0 335.535483871 C482.0,317.415282973 484.770531837,298.10020674 499.5,288.0 C512.081775608,279.372496726 528.546463033,284.011831492 541.5,293.0 C556.900245616,303.685884713 568.793752229,318.822375459 574.452238117,336.691278265"
     fill="none"
     stroke="#d82626"
     stroke-linecap="round"
     stroke-width="5.0"
     id="path3407" />
  <path
     d="M574.452238117 336.691278265 C580.665527404,356.312191802 586.053922658,376.206433428 589.5,396.5 C591.919520272,410.748286044 594.494524823,424.978099291 598.0,439.0 C601.977133711,454.908534846 619.892860674,460.262606081 636.0,465.0 C669.146865743,474.74907816 703.991941707,475.248116363 738.5,475.5 C767.917826837,475.714728663 807.0,476.0 824.897613344,466.860793186"
     fill="none"
     stroke="#d82626"
     stroke-linecap="round"
     stroke-width="5.0"
     id="path3409" />
  <path
     d="M834.297613344 462.060793186 C851.588090631,453.231613295 862.60400238,436.464995702 872.0,419.5 C881.744427259,401.905895227 890.449966657,383.475261184 893.0,363.5 C895.016958475,347.700491947 893.342094712,331.671896763 888.5,316.5 C884.113590417,302.755916639 876.266136304,290.076143011 864.0,282.5 C851.552761578,274.811999798 838.429877753,268.299265393 825.0,262.5 C808.669857165,255.448347412 790.559324116,254.555084485 772.919670443,256.760041195"
     fill="none"
     stroke="#d82626"
     stroke-linecap="round"
     stroke-width="5.0"
     id="path3411" />
  <path
     d="M772.919670443 256.760041195 C745.524522338,260.184434708 718.827909797,267.921557396 694.0,280.0 C675.029892903,289.22870075 656.074820686,298.498173477 637.5,308.5 C619.854793515,318.00126503 601.354140462,325.762380437 582.790437311,333.303884842"
     fill="none"
     stroke="#d82626"
     stroke-linecap="round"
     stroke-width="5.0"
     id="path3413" />
  <path
     d="M570.361790494 338.353022612 C554.0,345.0 511.851205504,344.660090367 482.0,344.419354839"
     fill="none"
     stroke="#d82626"
     stroke-linecap="round"
     stroke-width="5.0"
     id="path3415" />
  <path
     d="M482.0 344.419354839 C449.922154755,344.160662538 417.833675023,345.520790622 386.0,349.5 C348.719876838,354.160015395 311.272825123,357.293072752 273.807928066,360.088960592"
     fill="none"
     stroke="#d82626"
     stroke-linecap="round"
     stroke-width="5.0"
     id="path3417" />
  <path
     d="M255.857842199 361.428519239 C224.359085012,363.77917276 192.69021754,360.289297705 162.5,351.0 C135.734123954,342.764345832 109.612887333,332.242198621 86.0584245414,317.071527671"
     fill="none"
     stroke="#d82626"
     stroke-linecap="round"
     stroke-width="5.0"
     id="path3419" />
  <path
     d="M86.0584245414 317.071527671 C67.1757357989,304.909795938 56.3886158789,283.893273865 54.0,261.5 C51.4751199779,237.829249793 60.2005521643,214.35584159 77.5,198.0 C105.0,172.0 183.488472782,156.129169107 241.0,144.5 C336.034922897,125.283379561 432.047644291,111.368062795 528.5,101.5 C601.980149867,93.9822288915 683.439318015,90.9464348974 724.5,150.0 C745.643984316,180.409325758 769.0,214.0 772.135736354,248.208032956"
     fill="none"
     stroke="#d82626"
     stroke-linecap="round"
     stroke-width="5.0"
     id="path3421" />
  <path
     d="M773.741225989 265.722465336 C780.0,334.0 804.919728428,399.90612387 829.37201668,464.575991483"
     fill="none"
     stroke="#d82626"
     stroke-linecap="round"
     stroke-width="5.0"
     id="path3423" />
  <path
     d="M829.37201668 464.575991483 C843.596139581,502.195053366 854.367106916,542.231383659 845.5,581.5 C838.567195782,612.202418682 821.443159101,639.568504234 797.5,660.0 C760.0,692.0 702.495972128,692.525150939 650.5,693.0 C587.409638231,693.576167687 524.31934935,694.160390872 461.229273046,694.767026221"
     fill="none"
     stroke="#d82626"
     stroke-linecap="round"
     stroke-width="5.0"
     id="path3425" />
  <path
     d="M443.230105089 694.940095143 C372.078786874,695.624242434 301.041795246,687.909315252 232.056944005,670.444795951"
     fill="none"
     stroke="#d82626"
     stroke-linecap="round"
     stroke-width="5.0"
     id="path3427" />
  <text
     xml:space="preserve"
     style="font-style:normal;font-variant:normal;font-weight:normal;font-stretch:normal;font-size:20px;line-height:125%;font-family:'Bitstream Charter';-inkscape-font-specification:'Bitstream Charter, Normal';text-align:start;letter-spacing:0px;word-spacing:0px;writing-mode:lr-tb;text-anchor:start;fill:#000000;fill-opacity:1;stroke:none;stroke-width:1px;stroke-linecap:butt;stroke-linejoin:miter;stroke-opacity:1"
     x="108.92383"
     y="314.41241"
     id="text3435"
     sodipodi:linespacing="125%"><tspan
       sodipodi:role="line"
       id="tspan3437"
       x="108.92383"
       y="314.41241">4_1</tspan></text>
  <text
     xml:space="preserve"
     style="font-style:normal;font-variant:normal;font-weight:normal;font-stretch:normal;font-size:20px;line-height:125%;font-family:'Bitstream Charter';-inkscape-font-specification:'Bitstream Charter, Normal';text-align:start;letter-spacing:0px;word-spacing:0px;writing-mode:lr-tb;text-anchor:start;fill:#000000;fill-opacity:1;stroke:none;stroke-width:1px;stroke-linecap:butt;stroke-linejoin:miter;stroke-opacity:1"
     x="286.173"
     y="335.41348"
     id="text3439"
     sodipodi:linespacing="125%"><tspan
       sodipodi:role="line"
       id="tspan3441"
       x="286.173"
       y="335.41348">4_1</tspan></text>
  <text
     xml:space="preserve"
     style="font-style:normal;font-variant:normal;font-weight:normal;font-stretch:normal;font-size:20px;line-height:125%;font-family:'Bitstream Charter';-inkscape-font-specification:'Bitstream Charter, Normal';text-align:start;letter-spacing:0px;word-spacing:0px;writing-mode:lr-tb;text-anchor:start;fill:#000000;fill-opacity:1;stroke:none;stroke-width:1px;stroke-linecap:butt;stroke-linejoin:miter;stroke-opacity:1"
     x="246.69096"
     y="652.10992"
     id="text3443"
     sodipodi:linespacing="125%"><tspan
       sodipodi:role="line"
       id="tspan3445"
       x="246.69096"
       y="652.10992">6_1</tspan></text>
  <text
     xml:space="preserve"
     style="font-style:normal;font-variant:normal;font-weight:normal;font-stretch:normal;font-size:20px;line-height:125%;font-family:'Bitstream Charter';-inkscape-font-specification:'Bitstream Charter, Normal';text-align:start;letter-spacing:0px;word-spacing:0px;writing-mode:lr-tb;text-anchor:start;fill:#000000;fill-opacity:1;stroke:none;stroke-width:1px;stroke-linecap:butt;stroke-linejoin:miter;stroke-opacity:1"
     x="477.70294"
     y="674.79108"
     id="text3447"
     sodipodi:linespacing="125%"><tspan
       sodipodi:role="line"
       id="tspan3449"
       x="477.70294"
       y="674.79108">6_1</tspan></text>
  <text
     xml:space="preserve"
     style="font-style:normal;font-variant:normal;font-weight:normal;font-stretch:normal;font-size:20px;line-height:125%;font-family:'Bitstream Charter';-inkscape-font-specification:'Bitstream Charter, Normal';text-align:start;letter-spacing:0px;word-spacing:0px;writing-mode:lr-tb;text-anchor:start;fill:#000000;fill-opacity:1;stroke:none;stroke-width:1px;stroke-linecap:butt;stroke-linejoin:miter;stroke-opacity:1"
     x="452.50162"
     y="324.49292"
     id="text3451"
     sodipodi:linespacing="125%"><tspan
       sodipodi:role="line"
       id="tspan3453"
       x="452.50162"
       y="324.49292">6_1</tspan></text>
  <text
     xml:space="preserve"
     style="font-style:normal;font-variant:normal;font-weight:normal;font-stretch:normal;font-size:20px;line-height:125%;font-family:'Bitstream Charter';-inkscape-font-specification:'Bitstream Charter, Normal';text-align:start;letter-spacing:0px;word-spacing:0px;writing-mode:lr-tb;text-anchor:start;fill:#000000;fill-opacity:1;stroke:none;stroke-width:1px;stroke-linecap:butt;stroke-linejoin:miter;stroke-opacity:1"
     x="580.18823"
     y="298.4516"
     id="text3455"
     sodipodi:linespacing="125%"><tspan
       sodipodi:role="line"
       id="tspan3457"
       x="580.18823"
       y="298.4516">6_1</tspan></text>
  <text
     xml:space="preserve"
     style="font-style:normal;font-variant:normal;font-weight:normal;font-stretch:normal;font-size:20px;line-height:125%;font-family:'Bitstream Charter';-inkscape-font-specification:'Bitstream Charter, Normal';text-align:start;letter-spacing:0px;word-spacing:0px;writing-mode:lr-tb;text-anchor:start;fill:#000000;fill-opacity:1;stroke:none;stroke-width:1px;stroke-linecap:butt;stroke-linejoin:miter;stroke-opacity:1"
     x="785.15887"
     y="453.85962"
     id="text3459"
     sodipodi:linespacing="125%"><tspan
       sodipodi:role="line"
       id="tspan3461"
       x="785.15887"
       y="453.85962">4_1</tspan></text>
  <text
     xml:space="preserve"
     style="font-style:normal;font-variant:normal;font-weight:normal;font-stretch:normal;font-size:20px;line-height:125%;font-family:'Bitstream Charter';-inkscape-font-specification:'Bitstream Charter, Normal';text-align:start;letter-spacing:0px;word-spacing:0px;writing-mode:lr-tb;text-anchor:start;fill:#000000;fill-opacity:1;stroke:none;stroke-width:1px;stroke-linecap:butt;stroke-linejoin:miter;stroke-opacity:1"
     x="784.31885"
     y="239.64853"
     id="text3463"
     sodipodi:linespacing="125%"><tspan
       sodipodi:role="line"
       id="tspan3465"
       x="784.31885"
       y="239.64853">4_1</tspan></text>
</svg>
