<?xml version="1.0" ?><!DOCTYPE svg  PUBLIC '-//W3C//DTD SVG 1.1//EN'  'http://www.w3.org/Graphics/SVG/1.1/DTD/svg11.dtd'><svg height="573.000" viewBox="88.000 153.000 751.000 573.000" width="751.000" xmlns="http://www.w3.org/2000/svg"><path d="M170.037617963 436.891767003 C156.362591092,437.971374387 145.821675864,447.923866033 136.0,457.5 C124.318272794,468.889684025 114.485119925,482.302080263 110.0,498.0 C106.557960056,510.047139803 104.444585249,522.556681994 106.0,535.0 C108.0,551.0 172.236367576,595.56590095 212.5,623.5 C272.373434108,665.038985386 339.270527334,697.640986225 412.0,703.0 C457.168691274,706.328219357 507.0,710.0 544.5,690.5 C564.009440869,680.355090748 583.432469092,669.567530908 599.0,654.0 C612.675797475,640.324202525 620.582291981,622.288431008 626.327459194,603.843420482" fill="none" stroke="#d82626" stroke-linecap="round" stroke-width="5.0"/><path d="M626.327459194 603.843420482 C632.443326832,584.208266486 641.32876079,565.576158698 652.0,548.0 C663.464225004,529.117747053 674.121098982,509.757802036 684.0,490.0 C692.765569086,472.468861829 701.500836355,454.92254437 710.161275881,437.339227756" fill="none" stroke="#d82626" stroke-linecap="round" stroke-width="5.0"/><path d="M716.761275881 423.939227756 C729.193003535,398.69905343 745.829693144,375.877522774 763.5,354.0 C781.781300469,331.366008944 798.865106903,307.711512697 812.5,282.0 C822.595224538,262.963290871 822.705107107,239.747940721 809.5,223.0 C792.331867925,201.22578371 761.558148189,200.955582243 733.5,205.0 C700.094273999,209.815239784 667.201494629,218.399252685 637.0,233.5 C607.726945772,248.136527114 580.409239801,266.318625343 554.73341303,286.605698346" fill="none" stroke="#d82626" stroke-linecap="round" stroke-width="5.0"/><path d="M554.73341303 286.605698346 C529.755733584,306.341148773 505.535681738,327.027503573 482.5,349.0 C460.812219686,369.686805838 440.285344236,391.557090478 421.0,414.5 C406.328595674,431.953912043 391.627969336,449.395282581 376.0,466.0 C364.114414297,478.62843481 349.559752944,488.308600198 334.109704641,496.164556962" fill="none" stroke="#d82626" stroke-linecap="round" stroke-width="5.0"/><path d="M322.309704641 502.164556962 C309.863365338,508.493204066 297.168692136,514.352226305 284.0,519.0 C272.130959984,523.189072947 259.583442385,525.0 247.0,525.0 C235.237960252,525.0 223.458374689,524.173620761 212.0,521.5 C199.221053662,518.518245854 192.315249547,505.918275147 187.5,493.5 C180.416174517,475.231186913 176.215296892,456.020341032 173.547022454,436.614708754" fill="none" stroke="#d82626" stroke-linecap="round" stroke-width="5.0"/><path d="M173.547022454 436.614708754 C169.554861218,407.58080886 167.401590905,378.290909203 168.5,349.0 C169.5792279,320.220589339 180.600795991,292.998798504 196.5,269.0 C212.242016706,245.23846535 230.217276295,222.902645889 252.0,204.5 C269.301989021,189.882802379 289.575660605,178.755146041 312.0,175.5 C332.548665981,172.517129132 353.246685326,170.669461764 374.0,170.0 C402.001555086,169.096724029 427.965409935,181.570540175 452.5,195.0 C476.706491465,208.249869012 500.963828806,221.963828806 520.5,241.5 C532.588607251,253.588607251 543.650966624,266.749648534 551.986730424,281.684558677" fill="none" stroke="#d82626" stroke-linecap="round" stroke-width="5.0"/><path d="M556.786730424 290.284558677 C565.0,305.0 573.800937786,319.835866554 582.5,334.5 C592.313941004,351.043500549 603.293204364,367.010929704 617.5,380.0 C630.247410769,391.654775561 645.210472481,400.51617052 661.0,407.5 C678.469361454,415.226832951 695.787260509,423.291452807 712.951594852,431.674034695" fill="none" stroke="#d82626" stroke-linecap="round" stroke-width="5.0"/><path d="M712.951594852 431.674034695 C727.695031071,438.8743175 740.382383084,449.459504588 752.5,460.5 C767.497057113,474.16398537 776.134429731,493.289655417 778.0,513.5 C779.682380963,531.725793771 779.389815405,550.327371098 773.0,567.5 C765.907769557,586.560369314 744.634023704,593.777204316 724.5,598.5 C695.316213135,605.345579635 665.192593807,606.644511265 635.304175138,604.490391001" fill="none" stroke="#d82626" stroke-linecap="round" stroke-width="5.0"/><path d="M617.350743249 603.196449964 C578.073887152,600.36568556 539.811466538,590.417395268 502.0,579.5 C464.261630887,568.603710327 426.58333179,557.45682677 389.5,544.5 C364.772761658,535.860362507 342.165665883,521.248498825 327.637130802,499.455696203" fill="none" stroke="#d82626" stroke-linecap="round" stroke-width="5.0"/><path d="M327.637130802 499.455696203 C317.277349602,483.916024403 305.239033467,469.601495081 293.0,455.5 C270.0,429.0 222.559978115,432.745264886 182.519105792,435.906386385" fill="none" stroke="#d82626" stroke-linecap="round" stroke-width="5.0"/></svg>