<?xml version="1.0" ?><!DOCTYPE svg  PUBLIC '-//W3C//DTD SVG 1.1//EN'  'http://www.w3.org/Graphics/SVG/1.1/DTD/svg11.dtd'><svg height="545.000" viewBox="42.000 218.000 745.000 545.000" width="745.000" xmlns="http://www.w3.org/2000/svg"><path d="M126.98 594.904 C116.0,591.0 98.0389258044,577.030275626 84.5,566.5 C65.8046224888,551.959150825 57.7142995235,527.464243136 65.0,505.0 C72.5740141148,481.646789813 83.5444430864,459.477004353 98.5,440.0 C112.151877363,422.220810876 134.731632203,414.104518886 156.992840674,417.284691525" fill="none" stroke="#d82626" stroke-linecap="round" stroke-width="5.0"/><path d="M169.321908894 419.045986985 C183.0,421.0 217.496881995,428.371128631 241.5,433.5 C271.948058328,440.005995369 302.39367328,446.911875535 331.5,458.0 C348.375771806,464.42886545 365.068346078,472.166838748 377.555703803,485.248832555" fill="none" stroke="#d82626" stroke-linecap="round" stroke-width="5.0"/><path d="M377.555703803 485.248832555 C391.806315087,500.178044377 406.387218675,514.937309916 423.5,526.5 C438.714668759,536.780181594 451.738917622,549.845612806 464.0,563.5 C479.03934458,580.24836101 496.075843857,595.070767619 514.5,608.0 C533.018886079,620.995709529 547.953334643,638.489414537 557.614285714,658.94789916" fill="none" stroke="#d82626" stroke-linecap="round" stroke-width="5.0"/><path d="M564.414285714 673.34789916 C574.756019766,695.248041857 600.443899256,702.442072839 625.0,705.0 C650.766944015,707.684056668 676.994272085,708.898131839 702.0,702.0 C719.839544577,697.078746324 736.444472329,688.101821643 749.0,674.5 C760.801445775,661.71510041 767.895811594,645.325234787 769.5,628.0 C771.213057992,609.49897369 767.544373854,590.974841172 760.0,574.0 C753.43745799,559.234280477 744.957041732,544.971361155 731.5,536.0 C717.503997441,526.669331627 703.714790357,517.033969664 689.972614108,507.333609959" fill="none" stroke="#d82626" stroke-linecap="round" stroke-width="5.0"/><path d="M689.972614108 507.333609959 C681.0,501.0 672.041444617,487.969373988 664.5,477.0 C651.789597331,458.512141572 637.458061615,441.217833569 622.5,424.5 C608.717322524,409.095831056 595.268362553,393.335942389 584.0,376.0 C573.927047002,360.503149235 565.544561794,343.998035946 557.897637795,327.17480315" fill="none" stroke="#d82626" stroke-linecap="round" stroke-width="5.0"/><path d="M552.897637795 316.17480315 C548.616208535,306.755658778 543.739824298,297.609736448 538.0,289.0 C530.0,277.0 498.626578391,268.866149953 476.0,263.0 C449.333109233,256.086361653 422.0,249.0 396.5,240.5 C376.321869004,233.773956335 354.650433197,235.976921655 334.0,241.0 C311.665456375,246.432726828 290.307512701,255.855926387 273.0,271.0 C257.978998542,284.143376276 243.926589958,298.378001196 231.5,314.0 C220.680546168,327.601599103 209.423277156,340.854099986 197.5,353.5 C181.0,371.0 173.292226937,395.279485148 165.902386117,418.557483731" fill="none" stroke="#d82626" stroke-linecap="round" stroke-width="5.0"/><path d="M165.902386117 418.557483731 C161.777609129,431.550531242 159.427256535,445.009204253 157.5,458.5 C155.5498766,472.150863803 153.659312652,485.810670622 152.0,499.5 C150.852036743,508.970696874 149.897179278,518.467697317 149.5,528.0 C149.155744551,536.262130788 147.929699221,544.459586581 146.0,552.5 C143.0,565.0 136.459745316,577.208475411 130.184,588.9232" fill="none" stroke="#d82626" stroke-linecap="round" stroke-width="5.0"/><path d="M124.184 600.1232 C118.177896013,611.334594109 113.0,623.263302365 113.0,636.0 C113.0,651.0 114.850160605,670.030223361 116.5,687.0 C120.0,723.0 167.394375337,729.462869364 208.0,735.0 C246.557213259,740.257801808 296.0,747.0 324.0,746.0 C352.0,745.0 384.668082772,743.703647509 415.0,742.5 C445.91280229,741.273301496 478.0,740.0 505.0,725.5 C517.759197859,718.647838187 532.0,711.0 538.0,699.0 C543.962964417,687.074071165 552.640921264,676.834210278 561.267857143,666.68487395" fill="none" stroke="#d82626" stroke-linecap="round" stroke-width="5.0"/><path d="M561.267857143 666.68487395 C574.789145951,650.777475352 590.152458198,636.583607259 606.0,623.0 C621.772114715,609.48104453 636.626903434,594.719120329 647.5,577.0 C654.421803553,565.72002384 661.331512774,554.431692387 668.0,543.0 C674.095877319,532.549924596 680.510063126,522.290545382 686.978091286,512.066887967" fill="none" stroke="#d82626" stroke-linecap="round" stroke-width="5.0"/><path d="M693.178091286 502.266887967 C703.024456602,486.703278274 711.358010376,470.253592638 719.0,453.5 C726.518576586,437.016966716 734.240823702,420.625058486 742.5,404.5 C749.666540721,390.508182402 750.878571789,374.357144497 747.5,359.0 C744.016539301,343.16608773 733.804206723,329.628910252 719.5,322.0 C697.420144908,310.224077284 671.925408537,308.495524512 647.0,307.0 C615.61971687,305.117183012 584.048233188,308.8803759 554.622047244,319.968503937" fill="none" stroke="#d82626" stroke-linecap="round" stroke-width="5.0"/><path d="M554.622047244 319.968503937 C539.337924833,325.727738469 523.995245804,331.334918065 508.5,336.5 C492.158641089,341.947119637 477.700588965,351.587552387 464.0,362.0 C450.407290526,372.3304592 437.2715843,383.479900787 427.5,397.5 C418.650492795,410.197119033 411.446954643,423.933917143 405.0,438.0 C398.184340023,452.87053086 390.292056316,467.242265208 380.844563042,480.599066044" fill="none" stroke="#d82626" stroke-linecap="round" stroke-width="5.0"/><path d="M375.044563042 488.799066044 C365.998982695,501.587645156 356.524888024,514.064729525 347.0,526.5 C337.43008334,538.994057862 327.487566158,551.288369569 315.5,561.5 C302.0,573.0 275.910599634,580.140256942 254.5,586.0 C231.171249041,592.384710789 207.0,599.0 184.0,603.0 C164.743693572,606.348922857 145.372303692,601.443485757 126.98,594.904" fill="none" stroke="#d82626" stroke-linecap="round" stroke-width="5.0"/></svg>