<?xml version="1.0" ?><!DOCTYPE svg  PUBLIC '-//W3C//DTD SVG 1.1//EN'  'http://www.w3.org/Graphics/SVG/1.1/DTD/svg11.dtd'><svg height="532.000" viewBox="106.000 75.000 649.000 532.000" width="649.000" xmlns="http://www.w3.org/2000/svg"><path d="M533.613650998 138.264327109 C507.0,140.0 476.863695594,142.318177262 448.5,144.5 C422.998639839,146.461643089 390.0,149.0 371.936694021,147.996483001" fill="none" stroke="#d82626" stroke-linecap="round" stroke-width="5.0"/><path d="M361.136694021 147.396483001 C336.0,146.0 303.05552625,145.46863752 274.0,145.0 C243.038756987,144.500625113 210.887460845,144.687751478 184.5,161.0 C164.587079144,173.30980562 151.042154733,193.202777577 142.5,215.0 C131.14486904,243.97516176 126.511528927,274.964982271 124.5,306.0 C122.338390493,339.350546674 122.676745513,372.855048934 127.0,406.0 C130.752885672,434.772123482 138.823248601,462.899926869 152.5,488.5 C160.825625946,504.083863951 172.0,525.0 183.282051282,525.256410256" fill="none" stroke="#d82626" stroke-linecap="round" stroke-width="5.0"/><path d="M183.282051282 525.256410256 C200.728721094,525.652925479 218.800126087,523.793840052 232.5,513.0 C246.619227799,501.875759916 254.163245111,484.979650585 260.0,468.0 C265.830843177,451.037547121 271.80038598,434.113375904 278.806060606,417.6" fill="none" stroke="#d82626" stroke-linecap="round" stroke-width="5.0"/><path d="M284.272524379 404.714763963 C302.553328988,361.624295958 319.756663285,318.081342803 335.5,274.0 C350.134543443,233.023278361 361.010820043,190.784493998 367.420867526,147.745603751" fill="none" stroke="#d82626" stroke-linecap="round" stroke-width="5.0"/><path d="M367.420867526 147.745603751 C369.433815805,134.230093879 372.0,117.0 379.5,110.0 C387.0,103.0 403.418515062,99.382361088 416.5,96.5 C440.078683889,91.3046967702 464.4165694,93.9464077285 488.0,99.0 C508.765978026,103.449852434 530.501947097,112.203806941 532.890920798,132.211461687" fill="none" stroke="#d82626" stroke-linecap="round" stroke-width="5.0"/><path d="M534.490920798 145.611461687 C537.379150474,169.800385223 540.858966094,193.913160311 544.5,218.0 C547.864108624,240.254872435 555.000322368,263.212944289 574.5,274.0 C589.853366673,282.493351777 606.965809923,287.33833245 624.5,288.0 C643.134417843,288.703185579 661.02994597,294.899968218 677.096989967,304.351170569" fill="none" stroke="#d82626" stroke-linecap="round" stroke-width="5.0"/><path d="M677.096989967 304.351170569 C691.933507908,313.078534064 706.012419349,323.137807453 718.0,335.5 C729.46445347,347.322717641 735.420720958,363.162807524 737.5,379.5 C739.49850502,395.202539446 738.251203779,411.49803018 730.0,425.0 C722.794917269,436.790135379 714.010622205,447.545877546 703.796363066,456.85220254" fill="none" stroke="#d82626" stroke-linecap="round" stroke-width="5.0"/><path d="M694.796363066 465.05220254 C683.27316928,475.551112434 671.193312954,485.530920207 657.5,493.0 C644.783751594,499.936135494 631.487321319,505.722352528 618.0,511.0 C597.123946193,519.16889062 576.614989414,528.232094292 556.155697551,537.392971246" fill="none" stroke="#d82626" stroke-linecap="round" stroke-width="5.0"/><path d="M556.155697551 537.392971246 C529.894219982,549.151841799 502.714834642,558.669199551 475.5,568.0 C442.806422051,579.209226725 408.979598667,587.011781539 374.5,589.5 C347.039548607,591.481682059 319.088174598,590.235269839 293.5,580.0 C270.675032507,570.870013003 247.252185889,563.333916237 223.5,557.0 C205.892599409,552.304693176 185.984219706,546.87375765 183.825641026,529.605128205" fill="none" stroke="#d82626" stroke-linecap="round" stroke-width="5.0"/><path d="M182.425641026 518.405128205 C180.243187609,500.945500875 182.997523843,483.171515807 191.0,467.5 C197.956380446,453.877088293 205.633453224,440.598456252 215.0,428.5 C227.0,413.0 256.648422668,413.0 280.757575758,413.0" fill="none" stroke="#d82626" stroke-linecap="round" stroke-width="5.0"/><path d="M280.757575758 413.0 C314.600756858,413.0 346.738620038,425.187959032 378.0,438.0 C415.917733959,453.540054901 452.88953053,471.362064299 488.0,492.5 C509.934810296,505.705651096 537.0,522.0 552.32455804,534.314376997" fill="none" stroke="#d82626" stroke-linecap="round" stroke-width="5.0"/><path d="M563.171277964 543.030491221 C579.076472934,555.811451465 596.356401132,567.57130232 616.5,571.0 C636.36348192,574.381018199 656.59524548,572.499346572 676.5,569.5 C696.44034114,566.495291061 716.110079337,558.153050847 725.5,540.5 C738.0,517.0 717.292697675,486.114532125 699.995453833,460.315253174" fill="none" stroke="#d82626" stroke-linecap="round" stroke-width="5.0"/><path d="M699.995453833 460.315253174 C688.775638815,443.580613825 678.457131464,425.878505916 675.0,406.0 C672.289306872,390.413514512 670.139086662,374.73523196 668.5,359.0 C666.788048287,342.565263553 669.253546489,326.014014459 674.877591973,310.480936455" fill="none" stroke="#d82626" stroke-linecap="round" stroke-width="5.0"/><path d="M679.077591973 298.880936455 C684.934160676,282.705651466 687.796193528,265.654242231 689.0,248.5 C690.563909948,226.214283234 677.955573144,206.269024362 662.5,190.0 C643.679985227,170.189458134 619.784661564,155.963545876 593.5,148.5 C573.874905964,142.927442434 553.0,137.0 533.613650998,138.264327109" fill="none" stroke="#d82626" stroke-linecap="round" stroke-width="5.0"/></svg>