<?xml version="1.0" ?><!DOCTYPE svg  PUBLIC '-//W3C//DTD SVG 1.1//EN'  'http://www.w3.org/Graphics/SVG/1.1/DTD/svg11.dtd'><svg height="905.000" viewBox="33.000 27.000 891.000 905.000" width="891.000" xmlns="http://www.w3.org/2000/svg"><path d="M625.0 370.62745098 C625.0,346.144160278 625.0,316.0 610.5,302.5 C598.774796709,291.583431419 582.862111776,287.187877486 567.0,285.0 C538.0,281.0 494.405621634,279.637675676 458.0,278.5 C400.475615291,276.702362978 342.963747592,274.529947451 285.46190304,272.117282645" fill="none" stroke="#d82626" stroke-linecap="round" stroke-width="5.0"/><path d="M268.175851794 271.391993782 C249.622419297,270.613528082 231.065255048,269.912561223 212.5,269.5 C194.771026252,269.106022806 177.079253805,270.694524091 159.5,273.0 C142.849635939,275.183654303 126.199318559,278.322544014 111.0,285.5 C96.9501370211,292.134657518 86.6536346139,304.285488729 78.5,317.5 C65.8958179112,337.927467523 60.9642417479,361.783268034 57.5,385.5 C53.2891386371,414.328204715 50.6853351116,443.373257757 50.0,472.5 C49.4702543265,495.014191124 50.8993659856,518.165609976 62.5,537.5 C69.7931697951,549.655282992 78.4776174124,561.321395953 91.0,568.0 C104.864701448,575.394507439 119.930500943,580.083077863 135.0,584.5 C153.768849505,590.00121451 173.022733733,593.725041104 192.519524882,595.291747535" fill="none" stroke="#d82626" stroke-linecap="round" stroke-width="5.0"/><path d="M192.519524882 595.291747535 C235.504919338,598.745931018 278.510131032,602.086556242 321.610029201,603.572759628" fill="none" stroke="#d82626" stroke-linecap="round" stroke-width="5.0"/><path d="M339.59933719 604.193080593 C390.470949891,605.947274134 450.0,608.0 491.881154499,613.983022071" fill="none" stroke="#d82626" stroke-linecap="round" stroke-width="5.0"/><path d="M491.881154499 613.983022071 C520.284201917,618.040600274 548.595145243,622.818555903 576.5,629.5 C607.247363964,636.862044893 638.352755099,642.583087843 669.5,648.0 C697.741599663,652.91158255 727.0,658.0 754.790751985,654.823914059" fill="none" stroke="#d82626" stroke-linecap="round" stroke-width="5.0"/><path d="M768.790751985 653.223914059 C787.805812081,651.050764334 806.59789609,647.257743974 825.0,642.0 C841.968513129,637.151853392 858.145181952,629.550112906 871.5,618.0 C886.09207485,605.379827157 893.344713988,586.837296587 897.5,568.0 C903.296408388,541.72294864 905.83142518,514.87722086 907.0,488.0 C908.235714756,459.578560609 907.177683656,431.066101936 902.5,403.0 C898.706027986,380.236167918 891.417132194,357.93079669 877.5,339.5 C867.647237675,326.451747191 854.714750316,314.895481715 838.5,314.5 C823.2572658,314.128225995 808.15398618,316.813146806 793.5,321.0 C776.722055137,325.793698532 760.077740537,331.041679362 743.561840844,336.672099712" fill="none" stroke="#d82626" stroke-linecap="round" stroke-width="5.0"/><path d="M743.561840844 336.672099712 C707.461358087,348.97908247 670.989773424,360.257207953 633.779565175,368.647745108" fill="none" stroke="#d82626" stroke-linecap="round" stroke-width="5.0"/><path d="M616.220434825 372.607156853 C594.191856626,377.574385271 571.96812035,381.715106405 549.5,384.0 C524.723146864,386.51967998 499.865665271,388.118574152 475.0,389.5 C448.015170652,390.999157186 421.016156324,392.249551213 394.0,393.0 C365.867788592,393.781450317 338.401449513,400.711832359 311.79328957,409.824215901" fill="none" stroke="#d82626" stroke-linecap="round" stroke-width="5.0"/><path d="M311.79328957 409.824215901 C293.951352152,415.934468441 277.433559755,425.362688388 263.0,437.5 C246.564035025,451.321152366 234.068574166,469.047389804 224.0,488.0 C214.737210574,505.43583892 206.386184367,523.529439888 203.0,543.0 C200.296283023,558.546372617 197.224279384,574.026257184 193.815619905,589.433398028" fill="none" stroke="#d82626" stroke-linecap="round" stroke-width="5.0"/><path d="M190.57538562 604.079256996 C181.912227492,643.236731734 174.177257782,682.899671197 176.0,723.0 C177.135521261,747.981467731 180.592782097,773.015254464 190.5,796.0 C198.83758196,815.343190148 209.983330202,833.345931217 223.5,849.5 C236.293520298,864.789816942 251.452437686,878.024316351 269.0,887.5 C289.386742349,898.508840869 312.13752512,903.8754613 335.0,907.5 C376.0,914.0 424.207534624,914.518360587 469.0,915.0 C522.224120782,915.572302374 575.737201537,911.63391269 626.5,895.5 C660.779747052,884.604886596 694.928298293,869.938538737 717.0,841.5 C732.249322915,821.851833936 745.516142519,800.571388754 753.5,777.0 C764.0,746.0 762.756577389,695.434147144 761.738439981,654.029892574" fill="none" stroke="#d82626" stroke-linecap="round" stroke-width="5.0"/><path d="M761.738439981 654.029892574 C761.116960147,628.7563793 763.695765029,603.5571152 767.0,578.5 C770.977444884,548.337709626 772.001606356,517.857696406 770.0,487.5 C768.384831494,463.003277654 766.234771077,438.492700771 761.0,414.5 C755.972241056,391.456104842 750.783581715,368.447759547 745.556430776,345.448295414" fill="none" stroke="#d82626" stroke-linecap="round" stroke-width="5.0"/><path d="M741.849472675 329.13767977 C735.44577016,300.961388706 732.104984235,272.221104177 729.0,243.5 C725.615240644,212.190975961 720.719161563,180.967414819 711.0,151.0 C703.714400534,128.536068314 691.560775573,107.727712738 673.5,92.5 C653.499127135,75.6365189572 629.065688859,65.4057717083 604.0,58.0 C564.197917268,46.2402937382 522.456425699,44.2871473234 481.0,43.5 C438.568096807,42.694330952 394.482796951,49.7203706992 365.0,80.0 C339.398046862,106.293897817 318.536553074,136.744904488 302.0,169.5 C285.944293814,201.302648792 276.139837546,236.102454974 276.469814743,271.739992227" fill="none" stroke="#d82626" stroke-linecap="round" stroke-width="5.0"/><path d="M276.469814743 271.739992227 C276.713555502,298.063994269 277.0,329.0 288.0,348.5 C297.375953024,365.121007633 303.655750478,383.220722715 309.234631656,401.459372721" fill="none" stroke="#d82626" stroke-linecap="round" stroke-width="5.0"/><path d="M314.425828647 418.430593653 C320.264346184,437.518054832 325.083938519,457.029048902 325.5,477.0 C325.903549449,496.370373533 327.297172763,515.701291314 329.0,535.0 C331.020753885,557.901877369 331.523572982,580.910675439 330.604683196,603.88292011" fill="none" stroke="#d82626" stroke-linecap="round" stroke-width="5.0"/><path d="M330.604683196 603.88292011 C329.67411038,627.147240505 335.434045821,650.720003413 351.5,667.5 C367.046010722,683.736944532 390.026636886,689.54303301 412.5,687.5 C429.911994517,685.917091408 451.0,684.0 460.5,673.0 C470.0,662.0 480.108741675,639.81692799 488.149119116,622.172766384" fill="none" stroke="#d82626" stroke-linecap="round" stroke-width="5.0"/><path d="M494.704923599 607.786417657 C500.871734799,594.25369308 507.572289324,580.903614235 516.5,569.0 C526.720106522,555.373191304 536.861191726,541.68739117 547.0,528.0 C560.731134817,509.462967997 574.747670278,491.139328738 589.0,473.0 C599.626388965,459.475504954 611.0,445.0 618.0,430.5 C625.0,416.0 625.0,390.998696023 625.0,370.62745098" fill="none" stroke="#d82626" stroke-linecap="round" stroke-width="5.0"/></svg>