<?xml version="1.0" ?><!DOCTYPE svg  PUBLIC '-//W3C//DTD SVG 1.1//EN'  'http://www.w3.org/Graphics/SVG/1.1/DTD/svg11.dtd'><svg height="825.000" viewBox="-4.000 -11.000 963.000 825.000" width="963.000" xmlns="http://www.w3.org/2000/svg"><path d="M427.786920745 175.182330013 C405.956321207,204.1078744 389.185200549,236.386312487 374.5,269.5 C355.903912735,311.432353637 333.119799888,351.332564687 308.05280915,389.741663399" fill="none" stroke="#d82626" stroke-linecap="round" stroke-width="5.0"/><path d="M299.907183453 402.222864064 C288.064853067,420.368370301 275.083333441,437.729999858 262.0,455.0 C244.19281725,478.50548123 228.728538285,503.67224325 214.965590888,529.749406739" fill="none" stroke="#d82626" stroke-linecap="round" stroke-width="5.0"/><path d="M214.965590888 529.749406739 C203.674153144,551.143709833 197.854663385,574.889375989 196.0,599.0 C194.13485169,623.246928032 195.945071363,647.718735497 203.0,671.0 C210.257392147,694.949394084 223.902149802,716.28969614 240.5,735.0 C262.385756652,759.67121659 294.255221214,771.610090003 326.5,778.5 C357.444212054,785.112011123 388.508541728,791.350854173 420.0,794.5 C455.0,798.0 507.326425356,795.274665346 551.0,793.0 C596.583877049,790.625839737 647.0,788.0 680.0,760.5 C697.747481035,745.710432471 714.433988436,728.857366741 722.0,707.0 C729.672636901,684.834604507 733.999481562,661.717618528 737.603421084,638.549435886" fill="none" stroke="#d82626" stroke-linecap="round" stroke-width="5.0"/><path d="M740.189427313 621.925110132 C743.731195038,599.156603325 746.954647848,576.340141144 750.0,553.5 C753.539499354,526.953754844 755.741133999,500.250902532 757.0,473.5 C758.225028284,447.468148961 757.77770202,421.357427044 754.5,395.5 C751.493726765,371.783844482 746.460448216,348.37004414 739.5,325.5 C731.291117776,298.527958408 710.878340698,277.792688983 688.094795539,261.187732342" fill="none" stroke="#d82626" stroke-linecap="round" stroke-width="5.0"/><path d="M688.094795539 261.187732342 C670.0,248.0 638.719048255,238.751718615 612.5,231.0 C577.284246689,220.588385977 541.970633913,210.507592595 506.5,201.0 C481.905178114,194.407573515 457.278385568,187.693860544 433.829536596,177.74586401" fill="none" stroke="#d82626" stroke-linecap="round" stroke-width="5.0"/><path d="M420.629536596 172.14586401 C405.754516474,165.835249413 390.830684669,159.610228223 375.5,154.5 C361.450526032,149.816842011 346.997959357,146.509010433 332.5,143.5 C306.0,138.0 273.005829129,147.029983607 243.830388693,155.014840989" fill="none" stroke="#d82626" stroke-linecap="round" stroke-width="5.0"/><path d="M243.830388693 155.014840989 C211.0,164.0 162.796884052,179.523037339 122.5,192.5 C81.636288548,205.659500298 34.0,221.0 21.5,257.5 C12.9665558612,282.417656885 12.1543666241,309.215180187 17.5,335.0 C24.0412129816,366.551733205 34.4850818711,397.10922807 46.5,427.0 C58.9189345117,457.895885858 82.9023790689,483.18919738 114.5,493.5 C145.500944198,503.61609758 176.222606689,514.571742827 206.585681122,526.466555491" fill="none" stroke="#d82626" stroke-linecap="round" stroke-width="5.0"/><path d="M223.345500653 533.032257988 C243.243645159,540.827407382 262.575137443,550.671762779 277.5,566.0 C291.194944322,580.065077952 308.346708388,590.060126388 326.5,597.5 C343.252609727,604.365823658 360.947339698,609.641150937 379.0,608.0 C392.311421124,606.789870807 405.51081239,604.275277616 418.0,599.5 C431.956837552,594.163562113 444.521177639,585.914472455 456.5,577.0 C468.879042281,567.787689466 480.434234765,557.348647853 489.0,544.5 C498.537601196,530.193598207 508.828890418,516.412081327 519.248730964,502.736040609" fill="none" stroke="#d82626" stroke-linecap="round" stroke-width="5.0"/><path d="M519.248730964 502.736040609 C534.215061909,483.092731244 548.770875662,462.815852292 557.0,439.5 C562.824223871,422.998032366 569.449549632,406.787305314 577.0,391.0 C586.450805681,371.239224485 602.121112302,355.499343208 618.5,341.0 C642.763727075,319.520635049 663.466944556,294.456934548 682.739994507,268.421410929" fill="none" stroke="#d82626" stroke-linecap="round" stroke-width="5.0"/><path d="M691.675836431 256.350185874 C704.384407096,239.182467607 710.262254041,218.293440599 715.0,197.5 C721.201414007,170.282682971 718.565700955,141.95587901 709.612424732,115.522396828" fill="none" stroke="#d82626" stroke-linecap="round" stroke-width="5.0"/><path d="M709.612424732 115.522396828 C703.663354693,97.9584757596 691.784264742,83.3524687514 679.5,69.5 C668.045008637,56.582669314 656.0,43.0 642.5,33.5 C629.0,24.0 605.971882423,21.0198906665 586.5,18.5 C559.847916915,15.0509068948 533.182911349,11.7019493618 506.5,8.5 C483.269018667,5.71228224004 459.832249217,4.70521159873 436.5,6.5 C417.651823373,7.94985974051 398.863132171,10.786736636 381.0,17.0 C361.875421705,23.652027233 343.551155948,32.3355669803 325.5,41.5 C306.816808416,50.9853126503 288.500244886,61.244009501 271.5,73.5 C250.0,89.0 247.204191751,118.915148269 244.667860737,146.053890115" fill="none" stroke="#d82626" stroke-linecap="round" stroke-width="5.0"/><path d="M243.064310954 163.211872792 C240.845112064,186.957300916 238.852737788,210.723198384 237.0,234.5 C235.212921022,257.434180217 235.770368809,280.587294898 241.0,303.0 C244.947130726,319.916274542 249.399701026,336.732536068 255.5,353.0 C263.0,373.0 283.992286546,385.69903754 303.133979316,397.27858008" fill="none" stroke="#d82626" stroke-linecap="round" stroke-width="5.0"/><path d="M303.133979316 397.27858008 C328.349670429,412.532516679 353.488654838,427.913219681 378.5,443.5 C400.421844442,457.16143929 423.823468904,468.353750928 448.5,476.0 C470.14629267,482.707301954 491.504233004,490.35010402 512.198984772,499.588832487" fill="none" stroke="#d82626" stroke-linecap="round" stroke-width="5.0"/><path d="M527.466971906 506.404898173 C564.736813243,523.043220198 601.797421952,540.213029034 637.5,560.0 C673.449931203,579.924058257 706.552946501,604.430069501 738.986784141,629.656387665" fill="none" stroke="#d82626" stroke-linecap="round" stroke-width="5.0"/><path d="M738.986784141 629.656387665 C757.045102463,643.70174636 778.185819985,653.717642186 801.0,655.5 C820.12212448,656.993915975 839.559875164,654.5107047 856.5,645.5 C872.035732213,637.236312652 885.365384029,625.384616217 895.5,611.0 C910.332441201,589.947502811 918.866401031,565.400796907 927.0,541.0 C938.315736699,507.052789903 942.622035321,471.267030939 942.0,435.5 C941.373972624,399.503425908 941.143560838,363.500355342 941.5,327.5 C941.810266367,296.163096983 939.732875111,264.814203721 934.0,234.0 C929.293193487,208.700914992 921.579745858,183.878479438 908.0,162.0 C896.641642345,143.700423777 882.523947141,127.202244721 865.5,114.0 C844.520380809,97.7300912398 816.447111802,97.8885750821 790.0,101.0 C764.929743942,103.949441889 739.0,107.0 715.489939786,113.817917462" fill="none" stroke="#d82626" stroke-linecap="round" stroke-width="5.0"/><path d="M700.968562483 118.02911688 C658.227477283,130.424031588 614.578391274,139.386938436 570.5,145.5 C537.418304253,150.087972403 502.0,155.0 471.0,157.0 C454.574791933,158.059690843 437.640590222,162.126217956 427.786920745,175.182330013" fill="none" stroke="#d82626" stroke-linecap="round" stroke-width="5.0"/></svg>