<?xml version="1.0" ?><!DOCTYPE svg  PUBLIC '-//W3C//DTD SVG 1.1//EN'  'http://www.w3.org/Graphics/SVG/1.1/DTD/svg11.dtd'><svg height="526.000" viewBox="118.000 132.000 551.000 526.000" width="551.000" xmlns="http://www.w3.org/2000/svg"><path d="M248.186559223 399.862430413 C204.675113478,375.747653253 151.0,346.0 140.0,307.5 C134.063545823,286.722410381 146.529665902,265.129814022 167.5,260.5 C206.0,252.0 281.217844345,290.780134282 336.119356975,319.085758441" fill="none" stroke="#d82626" stroke-linecap="round" stroke-width="5.0"/><path d="M336.119356975 319.085758441 C360.102515387,331.450777829 384.085673798,343.815797218 408.068832209,356.180816606" fill="none" stroke="#d82626" stroke-linecap="round" stroke-width="5.0"/><path d="M408.068832209 356.180816606 C451.164879446,378.399885943 489.945406716,414.925920272 474.920192853,456.32191765" fill="none" stroke="#d82626" stroke-linecap="round" stroke-width="5.0"/><path d="M468.778882029 473.241855634 C448.182776256,529.986228683 372.486855583,501.106664171 306.846969345,469.950404804" fill="none" stroke="#d82626" stroke-linecap="round" stroke-width="5.0"/><path d="M290.585796755 462.231968045 C260.93016778,448.155793923 239.07744143,422.283317883 256.058444265,404.225161882" fill="none" stroke="#d82626" stroke-linecap="round" stroke-width="5.0"/><path d="M256.058444265 404.225161882 C280.690278063,378.030861015 305.32211186,351.836560149 329.953945658,325.642259282" fill="none" stroke="#d82626" stroke-linecap="round" stroke-width="5.0"/><path d="M342.284768293 312.529257599 C412.365169002,238.003458337 497.0,148.0 569.5,187.5 C626.16852672,218.374576627 629.886788051,292.757436297 617.58399489,359.54402774" fill="none" stroke="#d82626" stroke-linecap="round" stroke-width="5.0"/><path d="M617.58399489 359.54402774 C613.848207871,379.824014416 610.112420852,400.104001092 606.376633832,420.383987767" fill="none" stroke="#d82626" stroke-linecap="round" stroke-width="5.0"/><path d="M603.115710102 438.086145162 C581.451135521,555.693835743 489.181553601,641.523562608 409.5,593.5 C340.929511469,552.173005229 261.0,504.0 298.71638305,466.091186425" fill="none" stroke="#d82626" stroke-linecap="round" stroke-width="5.0"/><path d="M298.71638305 466.091186425 C306.887530751,457.878349195 315.058678451,449.665511965 323.229826152,441.452674735" fill="none" stroke="#d82626" stroke-linecap="round" stroke-width="5.0"/><path d="M323.229826152 441.452674735 C349.393579106,415.155433246 375.557332059,388.858191757 401.721085013,362.560950267" fill="none" stroke="#d82626" stroke-linecap="round" stroke-width="5.0"/><path d="M414.416579405 349.800682945 C457.0,307.0 540.266484014,334.245283372 609.030251722,356.745192659" fill="none" stroke="#d82626" stroke-linecap="round" stroke-width="5.0"/><path d="M626.137738058 362.342862821 C652.660289289,371.021197598 648.010855797,417.662749817 604.746171967,429.235066465" fill="none" stroke="#d82626" stroke-linecap="round" stroke-width="5.0"/><path d="M604.746171967 429.235066465 C560.447293792,441.084006524 516.148415616,452.932946583 471.849537441,464.781886642" fill="none" stroke="#d82626" stroke-linecap="round" stroke-width="5.0"/><path d="M471.849537441 464.781886642 C424.400717257,477.473364381 374.081153454,469.635338059 331.101711195,445.815406204" fill="none" stroke="#d82626" stroke-linecap="round" stroke-width="5.0"/><path d="M315.357941109 437.089943265 C298.215403842,427.589259961 281.072866575,418.088576656 263.930329308,408.587893351" fill="none" stroke="#d82626" stroke-linecap="round" stroke-width="5.0"/></svg>