<?xml version="1.0" ?><!DOCTYPE svg  PUBLIC '-//W3C//DTD SVG 1.1//EN'  'http://www.w3.org/Graphics/SVG/1.1/DTD/svg11.dtd'><svg height="401.000" viewBox="15.000 49.000 470.000 401.000" width="470.000" xmlns="http://www.w3.org/2000/svg"><path d="M172.808777312 267.28575838 C166.890251747,261.803029644 162.591904915,254.874481375 159.242312423,247.540935673 C153.559655597,235.099415205 136.620479696,228.239549115 122.169741697,222.387426901 C104.604330052,215.273953824 86.1035283154,209.938021113 67.1616112388,211.001643379" fill="none" stroke="#d82626" stroke-linecap="round" stroke-width="5.0"/><path d="M57.5281549042 211.542579051 C48.8292775988,212.031036452 40.6569765048,216.475458769 36.9298892989,224.280701754 C33.1748821905,232.144414427 31.1545204251,240.721912665 30.9766297663,249.434210526 C30.7758721699,259.266429878 33.463157709,268.86002902 37.4710947109,277.833333333 C41.3013462575,286.4088206 46.1525204007,294.621306092 53.2920857976,300.737883522" fill="none" stroke="#d82626" stroke-linecap="round" stroke-width="5.0"/><path d="M53.2920857976 300.737883522 C61.5828837689,307.840739918 71.5319803342,312.933523253 82.3911439114,314.076023392 C91.572329425,315.041982293 100.838625723,315.295947633 109.992619926,314.076023392 C120.690535447,312.650345575 129.773612484,306.270099646 138.135301353,299.470760234 C145.63653524,293.371103095 154.100861009,286.488304094 159.242312423,279.726608187 C162.573354992,275.345841923 166.559917522,271.498005228 171.123774617,268.42158916" fill="none" stroke="#d82626" stroke-linecap="round" stroke-width="5.0"/><path d="M175.778141161 265.284162259 C183.106224628,260.344429648 191.336550566,256.797892638 200.103321033,255.65497076 C207.733717514,254.660197701 215.514668642,256.716608597 221.210332103,261.875730994 C226.01647148,266.229123969 230.513921306,271.007261219 233.418140779,276.812805209" fill="none" stroke="#d82626" stroke-linecap="round" stroke-width="5.0"/><path d="M233.418140779 276.812805209 C236.204139773,282.382026085 238.990138767,287.95124696 241.776137761,293.520467836 C244.141354069,298.248542779 248.242568443,301.786920041 252.870848708,304.339181287 C257.51198434,306.898531612 263.108815914,307.380121967 267.75399754,304.880116959 C273.998940118,301.519131539 276.911527971,294.598609509 279.119311193,287.840643275 C283.152179556,275.496139544 288.179121454,263.511137217 293.278694892,251.569519892" fill="none" stroke="#d82626" stroke-linecap="round" stroke-width="5.0"/><path d="M297.067132777 242.698174863 C300.610843001,234.399906014 303.920900937,226.003773823 306.991389914,217.519005848 C309.989546464,209.234116089 313.581850439,201.17452412 317.815498155,193.447368421 C321.750484038,186.265323379 325.635749206,179.056092287 329.451414514,171.80994152 C333.427197896,164.259718041 339.313443109,157.952262101 345.958179582,152.606725146 C354.107659346,146.050656982 363.184452499,140.778310038 372.635203687,136.303869619" fill="none" stroke="#d82626" stroke-linecap="round" stroke-width="5.0"/><path d="M372.635203687 136.303869619 C383.183513665,131.309792049 394.949250792,129.688557234 406.573185732,130.698830409 C417.04228289,131.608732958 427.515064748,133.482603405 436.880688807,138.271929825 C445.749463224,142.807180798 453.144706991,149.637787282 459.611316113,157.204678363 C466.619120018,165.404847548 469.403019523,176.398380882 467.188191882,186.956140351 C464.902555436,197.851435038 460.848199213,208.308866432 455.011070111,217.789473684 C450.990868882,224.319044687 446.351783518,231.85380117 442.022140221,236.722222222 C439.21856907,239.874667789 436.304010536,242.927037844 433.264393584,245.852617539" fill="none" stroke="#d82626" stroke-linecap="round" stroke-width="5.0"/><path d="M430.341884359 248.665483036 C423.0799508,255.65497076 417.077006611,264.109448987 411.173431734,272.423976608 C401.928303366,285.444710109 393.017507935,298.698206367 384.244675894,312.04151448" fill="none" stroke="#d82626" stroke-linecap="round" stroke-width="5.0"/><path d="M384.244675894 312.04151448 C376.884530064,323.236154147 369.750513546,334.57720731 362.735547355,345.99122807 C355.170132375,358.300881646 346.427175674,369.85355463 336.487084871,380.340643275 C324.763020086,392.709877029 311.108109623,403.009330712 296.979089791,412.526315789 C282.446353855,422.315234814 266.271101623,429.835753471 248.811808118,431.459064327 C226.15112246,433.565984463 203.374803962,433.756265597 180.619926199,433.893274854 C157.534591644,434.032273822 133.596459458,432.70825633 114.592865929,419.558479532 C100.487473998,409.798075256 89.9386188996,395.794090712 83.7441574416,379.799707602 C78.023545082,365.028824561 71.4850260918,350.55740758 63.1783517835,337.065789474 C57.0796977018,327.160415941 52.5230809337,316.11031528 53.1045173465,304.487382841" fill="none" stroke="#d82626" stroke-linecap="round" stroke-width="5.0"/><path d="M53.5374816762 295.83241208 C54.2316269527,281.956425861 55.4194903635,268.110738749 56.9544895449,254.302631579 C58.5449578869,239.995550779 59.9858804941,225.672180354 61.2570570989,211.333194574" fill="none" stroke="#d82626" stroke-linecap="round" stroke-width="5.0"/><path d="M61.2570570989 211.333194574 C62.2086874154,200.598719502 63.1783517835,189.660818713 67.778597786,179.923976608 C72.3788437884,170.187134503 85.6185705111,154.184282068 95.6506765068,142.058479532 C108.371278675,126.68309274 121.213034367,111.40360825 134.617466175,96.6198830409 C148.035123164,81.8215718018 167.823176505,75.7328851257 187.38499385,71.7368421053 C211.945658882,66.7196459855 237.026572109,64.7060193696 262.071340713,65.7865497076 C286.320356707,66.8327481318 310.052457764,73.3944053724 331.07503075,85.5307017544 C348.836393639,95.7843069768 364.511375969,110.222156026 370.601151879,129.773505052" fill="none" stroke="#d82626" stroke-linecap="round" stroke-width="5.0"/><path d="M374.173107599 141.241341309 C380.324723247,160.99122807 391.025036093,179.913115329 401.431734317,198.315789474 C410.888532478,215.038708814 422.538745387,235.640350877 432.157367749,246.918111105" fill="none" stroke="#d82626" stroke-linecap="round" stroke-width="5.0"/><path d="M432.157367749 246.918111105 C442.641388385,259.210544108 451.567568556,273.065927323 454.740467405,288.92251462 C456.818699181,299.308494493 457.176096624,310.734757402 449.59901599,317.862573099 C442.39795933,324.636660268 431.856157553,325.261939614 421.997539975,323.812865497 C410.289333229,322.091928539 398.83300682,318.876386368 388.115051908,313.854849011" fill="none" stroke="#d82626" stroke-linecap="round" stroke-width="5.0"/><path d="M381.187622634 310.609234976 C368.959409594,304.880116959 353.056053265,291.361573675 340.004920049,280.26754386 C325.742809879,268.144131061 311.050430504,255.65497076 295.736129993,245.814970041" fill="none" stroke="#d82626" stroke-linecap="round" stroke-width="5.0"/><path d="M295.736129993 245.814970041 C287.553284878,240.55719142 277.116729116,239.010079523 269.648216482,244.83625731 C262.38854014,250.499522155 255.502426016,256.627917169 249.082410824,263.228070175 C244.581175267,267.855604925 239.611316113,272.964912281 234.656775846,276.043226623" fill="none" stroke="#d82626" stroke-linecap="round" stroke-width="5.0"/><path d="M230.651855797 278.531530717 C224.671814642,282.247000865 218.625324282,285.869094285 212.280442804,288.92251462 C207.03029157,291.449105321 200.957560214,289.762191405 196.044280443,286.488304094 C187.666578441,280.905953085 180.191038577,274.124444051 172.808777312,267.28575838" fill="none" stroke="#d82626" stroke-linecap="round" stroke-width="5.0"/></svg>