<?xml version="1.0" ?><!DOCTYPE svg  PUBLIC '-//W3C//DTD SVG 1.1//EN'  'http://www.w3.org/Graphics/SVG/1.1/DTD/svg11.dtd'><svg height="778.000" viewBox="40.000 98.000 854.000 778.000" width="854.000" xmlns="http://www.w3.org/2000/svg"><path d="M479.189487717 443.75014283 C402.793370826,389.732686443 307.0,322.0 237.059884312,308.782970264" fill="none" stroke="#d82626" stroke-linecap="round" stroke-width="5.0"/><path d="M219.372932766 305.440554223 C196.585757368,301.134316353 173.165668741,299.505869599 150.5,304.5 C130.779683335,308.845154519 112.750306292,318.711670205 98.0,332.5 C78.7889372057,350.458167395 70.3601451211,376.271303419 65.0,402.0 C58.8677308764,431.434891793 56.1143875227,461.561770548 59.0,491.5 C61.9297451131,521.896105549 65.5242505295,552.223138648 69.5,582.5 C73.2809140349,611.293114574 80.7680044377,639.748007211 96.0,664.5 C109.339634664,686.176906329 128.499518002,703.606888087 151.0,715.5 C167.42811393,724.183431649 186.0,734.0 202.480033278,735.240432612" fill="none" stroke="#d82626" stroke-linecap="round" stroke-width="5.0"/><path d="M202.480033278 735.240432612 C243.713130244,738.343999051 286.056216158,737.67010024 323.5,720.0 C347.492411611,708.677738341 363.922312806,684.542745404 357.0,660.0 C350.557717446,637.159180035 339.703158111,615.443963039 321.900144578,599.735421687" fill="none" stroke="#d82626" stroke-linecap="round" stroke-width="5.0"/><path d="M311.700144578 590.735421687 C297.274854984,578.007224986 290.27873589,559.475575614 285.0,541.0 C276.351390926,510.72986824 267.22007397,480.600829726 258.0,450.5 C249.647123134,423.23031376 241.0,395.0 235.5,368.0 C231.413989511,347.941403052 229.29217887,327.551398525 228.216408539,307.111762244" fill="none" stroke="#d82626" stroke-linecap="round" stroke-width="5.0"/><path d="M228.216408539 307.111762244 C227.119133979,286.263545597 226.407216484,264.389175274 238.0,247.0 C250.0,229.0 291.220725992,209.975049542 321.5,196.0 C358.753681998,178.805992924 396.487750507,162.198218274 436.5,153.0 C466.511378197,146.100832598 496.910939962,141.041891162 527.5,137.5 C546.866429329,135.257571341 575.0,132.0 585.5,134.0 C596.0,136.0 608.599077893,145.860147916 619.0,154.0 C637.977611027,168.852043413 657.748228671,182.646689806 677.71128811,196.142842666" fill="none" stroke="#d82626" stroke-linecap="round" stroke-width="5.0"/><path d="M690.73381756 204.946806238 C708.89544796,217.225091579 726.53031443,230.256851261 744.0,243.5 C761.433240018,256.715520659 779.123181125,269.60854316 797.611707317,281.305365854" fill="none" stroke="#d82626" stroke-linecap="round" stroke-width="5.0"/><path d="M797.611707317 281.305365854 C817.991635165,294.198789594 835.69882816,310.743366389 852.0,328.5 C868.556253861,346.534490812 878.065969551,370.443013491 874.0,394.5 C870.054735892,417.842812637 857.817688229,438.9095228 840.0,454.5 C823.832469846,468.646588885 806.728811935,481.795327004 787.741634719,491.864284619" fill="none" stroke="#d82626" stroke-linecap="round" stroke-width="5.0"/><path d="M774.541634719 498.864284619 C761.478861612,505.791512782 746.0,514.0 736.5,521.5 C727.837597232,528.338739028 719.169122868,535.169781983 710.5,542.0 C700.042674403,550.239105015 691.317860006,560.522052929 685.5,572.5 C679.82970571,584.174135303 675.397689582,596.409241673 672.25,609.0" fill="none" stroke="#d82626" stroke-linecap="round" stroke-width="5.0"/><path d="M672.25 609.0 C667.656510293,627.373958829 663.0,646.0 658.0,664.0 C653.158822957,681.428237355 647.837240005,698.717508557 642.5,716.0 C635.129089463,739.867710311 623.426556982,762.114647743 609.0,782.5 C593.444591423,804.480468642 572.207135957,821.714946969 548.0,833.5 C521.714147912,846.297059569 493.118761215,853.467933807 464.0,856.0 C423.047489768,859.561087846 381.920454172,856.720041288 341.0,853.0 C301.93637129,849.448761026 261.060410234,842.705632158 235.0,813.5 C217.617007991,794.019060679 205.172587233,770.243634032 203.170301768,744.213922982" fill="none" stroke="#d82626" stroke-linecap="round" stroke-width="5.0"/><path d="M201.789764788 726.266942243 C199.696950689,699.060358961 216.222704938,675.043440448 237.0,657.0 C262.352841519,634.983058681 288.672733714,614.105258497 315.875180723,594.419277108" fill="none" stroke="#d82626" stroke-linecap="round" stroke-width="5.0"/><path d="M315.875180723 594.419277108 C337.371769357,578.862535334 357.436891925,561.330511749 374.5,541.0 C398.0,513.0 438.324864446,478.605262679 472.341982149,449.590662285" fill="none" stroke="#d82626" stroke-linecap="round" stroke-width="5.0"/><path d="M486.036993284 437.909623375 C520.056848511,408.892688034 551.162198728,376.666525421 580.0,342.5 C603.024849162,315.220559146 626.060832198,287.915993631 647.0,259.0 C660.550822287,240.286959699 673.342259758,221.032635406 685.16727195,201.183507797" fill="none" stroke="#d82626" stroke-linecap="round" stroke-width="5.0"/><path d="M685.16727195 201.183507797 C696.0,183.0 716.172945827,164.685088657 734.0,148.5 C754.394020399,129.984376217 778.535122899,114.192209497 806.0,115.0 C826.501548093,115.602986709 841.15289189,134.21569187 842.5,155.5 C844.012754421,179.401519856 840.715021376,203.569957248 830.0,225.0 C821.24745989,242.50508022 811.882873312,259.715653195 801.089365854,276.044292683" fill="none" stroke="#d82626" stroke-linecap="round" stroke-width="5.0"/><path d="M793.289365854 287.844292683 C782.521884459,304.133559408 773.12994832,321.318631784 766.0,339.5 C757.256311716,361.796405123 756.703297841,386.098935222 757.5,410.0 C758.49662842,439.898852588 766.946591517,469.045138495 781.677043398,495.080355774" fill="none" stroke="#d82626" stroke-linecap="round" stroke-width="5.0"/><path d="M781.677043398 495.080355774 C793.330388709,515.676966091 804.557258229,536.523677774 814.5,558.0 C824.871602132,580.402660604 829.01862952,604.96200303 831.5,629.5 C833.897732316,653.210908455 815.658593272,674.0 792.0,674.0 C767.121965875,674.0 741.90636925,669.745955891 721.5,655.5 C704.860777833,643.883939242 689.599145869,630.352794916 676.8,614.6" fill="none" stroke="#d82626" stroke-linecap="round" stroke-width="5.0"/><path d="M666.574666374 602.014973999 C635.792611264,564.129367709 600.899583473,529.643456199 561.0,501.5 C533.722881319,482.259889502 505.0,462.0 479.189487717,443.75014283" fill="none" stroke="#d82626" stroke-linecap="round" stroke-width="5.0"/></svg>