<?xml version="1.0" ?><!DOCTYPE svg  PUBLIC '-//W3C//DTD SVG 1.1//EN'  'http://www.w3.org/Graphics/SVG/1.1/DTD/svg11.dtd'><svg height="861.000" viewBox="46.000 56.000 841.000 861.000" width="841.000" xmlns="http://www.w3.org/2000/svg"><path d="M429.809393429 183.180497051 C366.0,214.0 323.973976682,281.449173226 285.0,344.0 C250.325967035,399.649682536 204.0,474.0 160.36862736,481.27189544" fill="none" stroke="#d82626" stroke-linecap="round" stroke-width="5.0"/><path d="M142.613536731 484.231077212 C119.047091871,488.158818021 90.0,493.0 77.5,507.5 C68.8465881226,517.537957778 64.2274476671,530.304937578 63.0,543.5 C61.5942514873,558.611796511 72.740622704,571.215623784 86.5,578.5 C106.63311917,589.158710149 128.555296824,595.76256746 150.757297081,600.808476609" fill="none" stroke="#d82626" stroke-linecap="round" stroke-width="5.0"/><path d="M150.757297081 600.808476609 C167.448863354,604.602014399 184.395649855,607.272155313 201.5,608.0 C223.367748427,608.930542486 245.188666559,610.68238888 267.0,612.5 C304.021838216,615.585153185 341.013647665,619.015778403 378.0,622.5 C420.494563935,626.503111095 462.904368186,631.402818215 505.108774984,637.779023559" fill="none" stroke="#d82626" stroke-linecap="round" stroke-width="5.0"/><path d="M522.906801845 640.467934092 C558.902132575,645.906077583 594.775511001,652.293599466 630.0,661.5 C659.768148042,669.28031142 685.898221094,686.822933329 705.968897196,710.140336449" fill="none" stroke="#d82626" stroke-linecap="round" stroke-width="5.0"/><path d="M705.968897196 710.140336449 C729.192510877,737.120711166 745.338464918,769.52694082 752.0,804.5 C757.669173989,834.263163442 749.455573597,865.815002338 725.0,883.0 C699.639936073,900.820585463 666.256529054,898.563133946 638.0,885.0 C607.976739817,870.588835112 582.275894192,847.724946105 569.097221975,817.161642452" fill="none" stroke="#d82626" stroke-linecap="round" stroke-width="5.0"/><path d="M561.970088922 800.632759415 C541.0,752.0 527.092789959,693.842576193 514.007788415,639.123478825" fill="none" stroke="#d82626" stroke-linecap="round" stroke-width="5.0"/><path d="M514.007788415 639.123478825 C509.72729493,621.223233346 507.623448931,602.891743452 507.0,584.5 C506.0,555.0 509.764136486,525.38879298 513.5,496.0 C517.530654896,464.292181486 521.672735255,432.596641968 526.5,401.0 C530.013573042,378.002067363 533.514810428,355.002251172 537.0,332.0 C539.93275698,312.64380393 546.85130324,293.808254428 560.221215242,279.500102987" fill="none" stroke="#d82626" stroke-linecap="round" stroke-width="5.0"/><path d="M570.92122318 268.049217299 C599.0,238.0 644.874591061,234.350884802 687.0,231.0 C728.105635871,227.73023351 775.0,224.0 793.0,258.5 C803.205355267,278.060264262 810.844388144,299.224474222 810.292494809,321.300207654" fill="none" stroke="#d82626" stroke-linecap="round" stroke-width="5.0"/><path d="M810.292494809 321.300207654 C809.482493781,353.700248749 809.576726655,386.120531394 811.0,418.5 C812.548993235,453.739596091 806.913812102,488.764488689 798.5,523.0 C789.154105988,561.028120461 776.323910882,598.135452636 759.5,633.5 C747.043949197,659.683127198 733.735150192,686.095333854 711.775117757,705.112269159" fill="none" stroke="#d82626" stroke-linecap="round" stroke-width="5.0"/><path d="M699.165381733 716.032040561 C658.045862505,751.640696388 613.182687586,782.663464138 565.533655448,808.897200933" fill="none" stroke="#d82626" stroke-linecap="round" stroke-width="5.0"/><path d="M565.533655448 808.897200933 C513.530485701,837.528159558 460.0,867.0 403.5,881.0 C361.656201729,891.368374793 318.36290492,880.25403313 280.0,860.5 C233.808623321,836.714888128 200.409476957,794.720419315 181.0,746.5 C163.387397423,702.743690473 149.265149599,657.01269844 150.518443189,609.805306541" fill="none" stroke="#d82626" stroke-linecap="round" stroke-width="5.0"/><path d="M150.996150973 591.811646678 C151.961039849,555.467499033 151.750762631,519.106768348 151.491082045,482.751486326" fill="none" stroke="#d82626" stroke-linecap="round" stroke-width="5.0"/><path d="M151.491082045 482.751486326 C151.148710857,434.819520039 154.810793586,386.961512178 161.5,339.5 C167.65293772,295.843441895 179.029299292,252.759323647 201.0,214.5 C222.048162331,177.847165596 263.635240735,160.459448344 306.0,156.0 C346.783926707,151.706955084 389.587058955,153.582930174 422.560454668,177.846372303" fill="none" stroke="#d82626" stroke-linecap="round" stroke-width="5.0"/><path d="M437.05833219 188.5146218 C478.427738522,218.956260422 521.386589335,247.144839912 564.776519053,274.625128733" fill="none" stroke="#d82626" stroke-linecap="round" stroke-width="5.0"/><path d="M564.776519053 274.625128733 C602.979988897,298.820659635 647.593706321,309.305981524 692.0,317.5 C729.258095161,324.375005655 776.0,333.0 803.433995847,323.640166123" fill="none" stroke="#d82626" stroke-linecap="round" stroke-width="5.0"/><path d="M818.810390673 318.394102006 C846.110009618,309.080114366 863.316470968,282.941173023 866.5,254.0 C870.714993174,215.681880236 856.038508599,178.636534211 835.5,146.0 C812.189564709,108.958760359 772.998706066,85.0070453025 729.5,80.0 C660.0,72.0 527.213676186,136.134891094 429.809393429,183.180497051" fill="none" stroke="#d82626" stroke-linecap="round" stroke-width="5.0"/></svg>