<?xml version="1.0" ?><!DOCTYPE svg  PUBLIC '-//W3C//DTD SVG 1.1//EN'  'http://www.w3.org/Graphics/SVG/1.1/DTD/svg11.dtd'><svg height="839.000" viewBox="49.000 62.000 832.000 839.000" width="832.000" xmlns="http://www.w3.org/2000/svg"><path d="M438.315397351 352.421357616 C362.877202983,316.464835067 257.0,266.0 215.715997014,289.420732463" fill="none" stroke="#d82626" stroke-linecap="round" stroke-width="5.0"/><path d="M200.059904253 298.302554318 C175.792506108,312.069635958 151.569935755,326.686742442 133.5,348.0 C114.0,371.0 102.656295086,402.710811464 92.0,432.5 C80.826320028,463.735514467 69.9003041725,495.375802419 67.5,528.5 C66.2162990338,546.215073333 65.2420862008,564.119648679 69.0,581.5 C73.0,600.0 90.6671506377,610.65225259 107.0,620.5 C132.677136007,635.981802593 160.277234867,647.8992209 188.5,658.0 C214.124161873,667.17075267 239.975069175,675.839803347 266.609583181,681.466813348" fill="none" stroke="#d82626" stroke-linecap="round" stroke-width="5.0"/><path d="M266.609583181 681.466813348 C289.093677672,686.216974156 313.268392596,684.906931016 331.0,670.5 C343.612498138,660.252345263 353.251813666,645.486489254 348.5,630.5 C343.787723895,615.63820613 330.874286951,605.440281537 316.380493062,599.500202075" fill="none" stroke="#d82626" stroke-linecap="round" stroke-width="5.0"/><path d="M304.180493062 594.500202075 C290.210117093,588.774638153 277.348251472,580.365088407 268.0,568.5 C259.244766397,557.38758812 252.886081951,544.601286827 249.0,531.0 C244.941075901,516.793765652 246.405203141,501.6761701 252.0,488.0 C258.020998236,473.282004311 268.688586657,461.002418673 282.020793951,452.336483932" fill="none" stroke="#d82626" stroke-linecap="round" stroke-width="5.0"/><path d="M282.020793951 452.336483932 C295.520991789,443.561355337 309.800466626,436.067876614 324.5,429.5 C338.343892712,423.314430916 351.881144818,416.412570121 364.5,408.0 C381.0,397.0 409.259465013,375.020416101 431.211227395,357.946823138" fill="none" stroke="#d82626" stroke-linecap="round" stroke-width="5.0"/><path d="M445.419567307 346.895892094 C484.720969577,316.328134773 526.978234314,289.882813896 569.5,264.0 C605.188918854,242.276310263 650.0,215.0 673.844155844,194.896103896" fill="none" stroke="#d82626" stroke-linecap="round" stroke-width="5.0"/><path d="M673.844155844 194.896103896 C692.932274846,178.80219964 709.87073887,160.357155233 725.0,140.5 C737.835744495,123.653085351 755.03336772,109.111729032 776.0,109.5 C797.034957089,109.889536242 811.241774526,128.66519525 820.0,148.5 C830.851503943,173.075464813 836.680025868,199.638978217 836.0,226.5 C835.539729276,244.680693585 835.0,266.0 824.0,277.5 C817.194939151,284.614381797 811.505209747,292.766871437 807.872586873,301.921081081" fill="none" stroke="#d82626" stroke-linecap="round" stroke-width="5.0"/><path d="M803.271123908 313.516767752 C794.225632582,336.311405893 788.51543825,360.50473112 790.0,385.0 C791.49728566,409.705213396 796.217321945,434.065988361 802.5,458.0 C808.446807322,480.654504083 815.230446728,503.121766561 824.584245504,524.600860047" fill="none" stroke="#d82626" stroke-linecap="round" stroke-width="5.0"/><path d="M824.584245504 524.600860047 C833.995311174,546.211455288 841.885855857,568.486351359 847.0,591.5 C852.864364135,617.889638608 847.809467188,645.010783332 840.5,671.0 C830.928972545,705.030319839 813.850893131,736.341575725 792.5,764.5 C771.102230648,792.720246537 746.509980031,818.473889727 718.0,839.5 C689.139298354,860.784767464 654.517381144,872.184083913 619.0,877.0 C584.852137495,881.630218645 550.44841397,884.674377749 516.0,883.5 C487.463775538,882.527174166 459.156992586,877.82602259 432.0,869.0 C392.0,856.0 356.928996917,831.021371905 322.5,806.5 C283.968897132,779.056984289 256.767869338,736.088325172 265.013660382,690.324184878" fill="none" stroke="#d82626" stroke-linecap="round" stroke-width="5.0"/><path d="M267.887666544 674.373450678 C273.0,646.0 292.044737719,620.697705602 309.975616328,596.875252593" fill="none" stroke="#d82626" stroke-linecap="round" stroke-width="5.0"/><path d="M309.975616328 596.875252593 C327.953310008,572.990602418 336.817698422,541.992487435 322.5,516.5 C311.219394866,496.415020127 299.506112493,476.546924991 286.016635161,457.869187146" fill="none" stroke="#d82626" stroke-linecap="round" stroke-width="5.0"/><path d="M278.216635161 447.069187146 C263.468120702,426.648167126 253.128949974,403.543361191 243.0,380.5 C230.457830415,351.966564194 218.635477184,323.118799001 207.887950633,293.861643391" fill="none" stroke="#d82626" stroke-linecap="round" stroke-width="5.0"/><path d="M207.887950633 293.861643391 C197.505371657,265.597956178 187.095175559,236.354921214 191.5,206.5 C196.0,176.0 244.72768517,151.495325955 282.5,132.5 C325.415378592,110.918277818 369.0,89.0 416.5,82.0 C445.909472384,77.6659724907 476.137417018,80.757492688 503.0,93.5 C526.99002967,104.879885869 550.603492182,117.052844615 573.5,130.5 C605.0,149.0 635.777045438,169.518030292 666.355703195,189.90380213" fill="none" stroke="#d82626" stroke-linecap="round" stroke-width="5.0"/><path d="M681.332608493 199.888405662 C725.0,229.0 766.655986283,267.878920531 806.590733591,305.151351351" fill="none" stroke="#d82626" stroke-linecap="round" stroke-width="5.0"/><path d="M806.590733591 305.151351351 C830.108858868,327.10160161 848.44872922,354.345082633 856.5,385.5 C863.4639363,412.447405681 864.837248955,440.782105835 857.0,467.5 C851.246493549,487.114226537 843.96802698,506.859771916 828.867396403,520.680688038" fill="none" stroke="#d82626" stroke-linecap="round" stroke-width="5.0"/><path d="M817.945189293 530.677284376 C787.469983608,558.569845511 742.85695034,539.439606738 703.5,522.0 C647.017054904,496.971629119 594.087167879,464.652339878 545.5,426.5 C511.236257979,399.594913983 471.0,368.0 438.315397351,352.421357616" fill="none" stroke="#d82626" stroke-linecap="round" stroke-width="5.0"/></svg>